%FSLAX25Y25*%
%MOIN*%
G70*
G01*
G75*
G04 Layer_Physical_Order=2*
G04 Layer_Color=16711680*
%ADD10R,0.01772X0.03937*%
%ADD11R,0.05500X0.06200*%
%ADD12R,0.02606X0.03000*%
%ADD13R,0.03000X0.02606*%
G04:AMPARAMS|DCode=14|XSize=55mil|YSize=50mil|CornerRadius=0mil|HoleSize=0mil|Usage=FLASHONLY|Rotation=180.000|XOffset=0mil|YOffset=0mil|HoleType=Round|Shape=Octagon|*
%AMOCTAGOND14*
4,1,8,-0.02750,0.01250,-0.02750,-0.01250,-0.01500,-0.02500,0.01500,-0.02500,0.02750,-0.01250,0.02750,0.01250,0.01500,0.02500,-0.01500,0.02500,-0.02750,0.01250,0.0*
%
%ADD14OCTAGOND14*%

%ADD15R,0.05500X0.05000*%
G04:AMPARAMS|DCode=16|XSize=63.78mil|YSize=53.94mil|CornerRadius=0mil|HoleSize=0mil|Usage=FLASHONLY|Rotation=0.000|XOffset=0mil|YOffset=0mil|HoleType=Round|Shape=Octagon|*
%AMOCTAGOND16*
4,1,8,0.03189,-0.01348,0.03189,0.01348,0.01841,0.02697,-0.01841,0.02697,-0.03189,0.01348,-0.03189,-0.01348,-0.01841,-0.02697,0.01841,-0.02697,0.03189,-0.01348,0.0*
%
%ADD16OCTAGOND16*%

%ADD17R,0.06378X0.05394*%
%ADD18R,0.05000X0.05500*%
G04:AMPARAMS|DCode=19|XSize=55mil|YSize=50mil|CornerRadius=0mil|HoleSize=0mil|Usage=FLASHONLY|Rotation=270.000|XOffset=0mil|YOffset=0mil|HoleType=Round|Shape=Octagon|*
%AMOCTAGOND19*
4,1,8,-0.01250,-0.02750,0.01250,-0.02750,0.02500,-0.01500,0.02500,0.01500,0.01250,0.02750,-0.01250,0.02750,-0.02500,0.01500,-0.02500,-0.01500,-0.01250,-0.02750,0.0*
%
%ADD19OCTAGOND19*%

%ADD20R,0.05000X0.03500*%
%ADD21O,0.05906X0.01181*%
G04:AMPARAMS|DCode=22|XSize=50mil|YSize=35mil|CornerRadius=0mil|HoleSize=0mil|Usage=FLASHONLY|Rotation=90.000|XOffset=0mil|YOffset=0mil|HoleType=Round|Shape=Octagon|*
%AMOCTAGOND22*
4,1,8,0.00875,0.02500,-0.00875,0.02500,-0.01750,0.01625,-0.01750,-0.01625,-0.00875,-0.02500,0.00875,-0.02500,0.01750,-0.01625,0.01750,0.01625,0.00875,0.02500,0.0*
%
%ADD22OCTAGOND22*%

%ADD23R,0.03500X0.05000*%
%ADD24O,0.08268X0.02362*%
%ADD25R,0.08268X0.02362*%
%ADD26R,0.03937X0.01772*%
%ADD27R,0.08661X0.05512*%
%ADD28O,0.02362X0.08268*%
%ADD29R,0.05394X0.06378*%
G04:AMPARAMS|DCode=30|XSize=63.78mil|YSize=53.94mil|CornerRadius=0mil|HoleSize=0mil|Usage=FLASHONLY|Rotation=270.000|XOffset=0mil|YOffset=0mil|HoleType=Round|Shape=Octagon|*
%AMOCTAGOND30*
4,1,8,-0.01348,-0.03189,0.01348,-0.03189,0.02697,-0.01841,0.02697,0.01841,0.01348,0.03189,-0.01348,0.03189,-0.02697,0.01841,-0.02697,-0.01841,-0.01348,-0.03189,0.0*
%
%ADD30OCTAGOND30*%

%ADD31R,0.06000X0.11000*%
%ADD32R,0.23000X0.24500*%
%ADD33R,0.10000X0.07480*%
G04:AMPARAMS|DCode=34|XSize=100mil|YSize=74.8mil|CornerRadius=0mil|HoleSize=0mil|Usage=FLASHONLY|Rotation=180.000|XOffset=0mil|YOffset=0mil|HoleType=Round|Shape=Octagon|*
%AMOCTAGOND34*
4,1,8,-0.05000,0.01870,-0.05000,-0.01870,-0.03130,-0.03740,0.03130,-0.03740,0.05000,-0.01870,0.05000,0.01870,0.03130,0.03740,-0.03130,0.03740,-0.05000,0.01870,0.0*
%
%ADD34OCTAGOND34*%

%ADD35R,0.24500X0.23000*%
%ADD36R,0.11000X0.06000*%
%ADD37C,0.03000*%
%ADD38C,0.00600*%
%ADD39C,0.01500*%
%ADD40R,0.28400X0.26800*%
%ADD41R,0.07900X0.22700*%
%ADD42R,0.06900X0.11300*%
%ADD43R,0.24800X0.08400*%
%ADD44R,0.09200X0.98600*%
%ADD45R,0.23200X0.12400*%
%ADD46R,0.07000X0.06000*%
%ADD47R,0.15300X0.08500*%
%ADD48R,0.06500X0.36000*%
%ADD49R,0.56000X0.11500*%
%ADD50R,0.06000X0.16000*%
%ADD51R,0.09500X0.26900*%
%ADD52R,1.04500X0.12000*%
%ADD53R,0.06000X0.44500*%
%ADD54R,0.27000X0.07000*%
%ADD55R,0.13100X0.15500*%
%ADD56R,0.08000X0.38000*%
%ADD57R,0.19600X0.03800*%
%ADD58R,0.05500X0.15000*%
%ADD59R,0.10000X0.14000*%
%ADD60R,0.07000X0.16800*%
%ADD61R,0.22800X0.08500*%
%ADD62R,0.38200X0.07200*%
%ADD63R,0.07300X0.15800*%
%ADD64R,0.05900X0.05000*%
%ADD65R,0.11200X0.03900*%
%ADD66R,0.04200X0.42200*%
%ADD67R,0.14500X0.07500*%
%ADD68C,0.06200*%
%ADD69C,0.07087*%
%ADD70R,0.07087X0.07087*%
%ADD71C,0.09843*%
%ADD72R,0.09843X0.09843*%
%ADD73R,0.07087X0.07087*%
%ADD74C,0.20000*%
%ADD75C,0.06299*%
%ADD76R,0.06299X0.06299*%
G04:AMPARAMS|DCode=77|XSize=62.99mil|YSize=62.99mil|CornerRadius=0mil|HoleSize=0mil|Usage=FLASHONLY|Rotation=180.000|XOffset=0mil|YOffset=0mil|HoleType=Round|Shape=Octagon|*
%AMOCTAGOND77*
4,1,8,-0.03150,0.01575,-0.03150,-0.01575,-0.01575,-0.03150,0.01575,-0.03150,0.03150,-0.01575,0.03150,0.01575,0.01575,0.03150,-0.01575,0.03150,-0.03150,0.01575,0.0*
%
%ADD77OCTAGOND77*%

%ADD78R,0.06299X0.06299*%
%ADD79C,0.07874*%
%ADD80R,0.06693X0.06693*%
%ADD81C,0.06693*%
%ADD82C,0.11811*%
%ADD83R,0.06693X0.06693*%
%ADD84R,0.07874X0.07874*%
%ADD85C,0.07480*%
%ADD86R,0.07480X0.07480*%
%ADD87C,0.05118*%
%ADD88R,0.05118X0.05118*%
%ADD89C,0.09055*%
%ADD90R,0.05118X0.05118*%
G04:AMPARAMS|DCode=91|XSize=70.87mil|YSize=70.87mil|CornerRadius=0mil|HoleSize=0mil|Usage=FLASHONLY|Rotation=0.000|XOffset=0mil|YOffset=0mil|HoleType=Round|Shape=Octagon|*
%AMOCTAGOND91*
4,1,8,0.03543,-0.01772,0.03543,0.01772,0.01772,0.03543,-0.01772,0.03543,-0.03543,0.01772,-0.03543,-0.01772,-0.01772,-0.03543,0.01772,-0.03543,0.03543,-0.01772,0.0*
%
%ADD91OCTAGOND91*%

%ADD92C,0.03150*%
%ADD93C,0.02362*%
%ADD94C,0.01969*%
%ADD95C,0.06000*%
%ADD96R,0.03347X0.06299*%
%ADD97R,0.06900X0.08000*%
%ADD98R,0.07200X0.15300*%
%ADD99R,0.24800X0.03000*%
%ADD100R,0.10400X0.54200*%
%ADD101R,0.08700X0.08300*%
%ADD102R,0.09700X0.43800*%
%ADD103R,0.10000X0.12500*%
%ADD104R,0.04000X0.38900*%
%ADD105R,0.17100X0.04000*%
%ADD106R,0.04000X0.08200*%
%ADD107R,0.08000X0.32000*%
%ADD108R,0.04000X0.16900*%
%ADD109R,0.26300X0.04500*%
%ADD110R,0.08000X0.15000*%
%ADD111R,1.00500X0.08000*%
%ADD112R,0.59100X0.27000*%
%ADD113R,0.14100X0.20000*%
G36*
X376852Y151935D02*
X376568Y151593D01*
X376318Y151242D01*
X376101Y150881D01*
X375917Y150510D01*
X375767Y150129D01*
X375650Y149740D01*
X375567Y149340D01*
X375517Y148931D01*
X375500Y148512D01*
X372500D01*
X372483Y148931D01*
X372433Y149340D01*
X372350Y149740D01*
X372233Y150129D01*
X372083Y150510D01*
X371899Y150881D01*
X371682Y151242D01*
X371432Y151593D01*
X371148Y151935D01*
X370831Y152267D01*
X377169D01*
X376852Y151935D01*
D02*
G37*
G36*
X402577Y146316D02*
X402482Y146221D01*
X402125Y145811D01*
X402101Y145770D01*
X402086Y145737D01*
X402081Y145712D01*
X400912Y146881D01*
X400937Y146886D01*
X400970Y146900D01*
X401011Y146925D01*
X401060Y146960D01*
X401181Y147059D01*
X401333Y147198D01*
X401516Y147377D01*
X402577Y146316D01*
D02*
G37*
G36*
X431789Y157648D02*
X431767Y157667D01*
X431731Y157685D01*
X431683Y157700D01*
X431623Y157713D01*
X431551Y157724D01*
X431370Y157741D01*
X431139Y157749D01*
X431005Y157750D01*
X431171Y159250D01*
X431306Y159250D01*
X431913Y159287D01*
X431930Y159295D01*
X431789Y157648D01*
D02*
G37*
G36*
X377565Y158352D02*
X377907Y158068D01*
X378258Y157818D01*
X378620Y157601D01*
X378990Y157417D01*
X379370Y157267D01*
X379761Y157150D01*
X380160Y157067D01*
X380570Y157017D01*
X380988Y157000D01*
Y154000D01*
X380570Y153983D01*
X380160Y153933D01*
X379761Y153850D01*
X379370Y153733D01*
X378990Y153583D01*
X378620Y153399D01*
X378258Y153182D01*
X377907Y152932D01*
X377565Y152648D01*
X377233Y152331D01*
Y158669D01*
X377565Y158352D01*
D02*
G37*
G36*
X443604Y143240D02*
X443616Y143153D01*
X443635Y143067D01*
X443662Y142983D01*
X443697Y142900D01*
X443740Y142818D01*
X443791Y142737D01*
X443849Y142658D01*
X443915Y142580D01*
X443989Y142503D01*
X442611D01*
X442685Y142580D01*
X442751Y142658D01*
X442809Y142737D01*
X442860Y142818D01*
X442903Y142900D01*
X442938Y142983D01*
X442965Y143067D01*
X442984Y143153D01*
X442996Y143240D01*
X443000Y143328D01*
X443600D01*
X443604Y143240D01*
D02*
G37*
G36*
X412665Y137112D02*
X412699Y137099D01*
X412745Y137088D01*
X412804Y137078D01*
X412959Y137062D01*
X413165Y137053D01*
X413421Y137050D01*
Y135550D01*
X413287Y135549D01*
X412745Y135512D01*
X412699Y135501D01*
X412665Y135488D01*
X412643Y135473D01*
Y137127D01*
X412665Y137112D01*
D02*
G37*
G36*
X432430Y135505D02*
X432412Y135513D01*
X432382Y135521D01*
X432339Y135528D01*
X432214Y135539D01*
X431927Y135548D01*
X431671Y135550D01*
X431505Y137050D01*
X431639Y137051D01*
X432123Y137087D01*
X432183Y137100D01*
X432231Y137116D01*
X432267Y137133D01*
X432290Y137152D01*
X432430Y135505D01*
D02*
G37*
G36*
X412700Y10260D02*
X413305Y9751D01*
X413600Y9544D01*
X413890Y9369D01*
X414176Y9225D01*
X414456Y9114D01*
X414732Y9034D01*
X415003Y8986D01*
X415269Y8970D01*
Y7470D01*
X415003Y7455D01*
X414732Y7407D01*
X414456Y7327D01*
X414176Y7216D01*
X413890Y7072D01*
X413600Y6897D01*
X413305Y6690D01*
X413004Y6451D01*
X412700Y6180D01*
X412390Y5878D01*
Y10563D01*
X412700Y10260D01*
D02*
G37*
G36*
X465188Y14744D02*
X464800Y15125D01*
X464055Y15767D01*
X463698Y16028D01*
X463351Y16249D01*
X463015Y16429D01*
X462689Y16569D01*
X462373Y16670D01*
X462068Y16730D01*
X461773Y16750D01*
Y18250D01*
X462068Y18270D01*
X462373Y18330D01*
X462689Y18430D01*
X463015Y18571D01*
X463351Y18752D01*
X463698Y18972D01*
X464055Y19233D01*
X464423Y19534D01*
X465188Y20256D01*
Y14744D01*
D02*
G37*
G36*
X362841Y24217D02*
X362857Y24118D01*
X362883Y24019D01*
X362920Y23919D01*
X362967Y23818D01*
X363025Y23717D01*
X363094Y23616D01*
X363173Y23514D01*
X363262Y23411D01*
X363362Y23308D01*
X361709D01*
X361809Y23411D01*
X361898Y23514D01*
X361977Y23616D01*
X362046Y23717D01*
X362104Y23818D01*
X362151Y23919D01*
X362188Y24019D01*
X362214Y24118D01*
X362230Y24217D01*
X362235Y24316D01*
X362835D01*
X362841Y24217D01*
D02*
G37*
G36*
X412700Y30260D02*
X413305Y29751D01*
X413600Y29544D01*
X413890Y29369D01*
X414176Y29225D01*
X414456Y29114D01*
X414732Y29034D01*
X415003Y28986D01*
X415269Y28971D01*
Y27470D01*
X415003Y27455D01*
X414732Y27407D01*
X414456Y27327D01*
X414176Y27216D01*
X413890Y27072D01*
X413600Y26897D01*
X413305Y26690D01*
X413004Y26451D01*
X412700Y26180D01*
X412390Y25878D01*
Y30563D01*
X412700Y30260D01*
D02*
G37*
G36*
X362988Y88819D02*
X362845Y88817D01*
X362709Y88808D01*
X362581Y88792D01*
X362461Y88768D01*
X362348Y88738D01*
X362244Y88700D01*
X362147Y88656D01*
X362058Y88604D01*
X361977Y88545D01*
X361903Y88479D01*
X361479Y88903D01*
X361545Y88977D01*
X361604Y89058D01*
X361655Y89147D01*
X361700Y89244D01*
X361738Y89348D01*
X361768Y89461D01*
X361791Y89581D01*
X361808Y89709D01*
X361817Y89845D01*
X361819Y89988D01*
X362988Y88819D01*
D02*
G37*
G36*
X427280Y162215D02*
X427358Y162149D01*
X427437Y162091D01*
X427518Y162040D01*
X427600Y161997D01*
X427683Y161962D01*
X427767Y161935D01*
X427853Y161916D01*
X427940Y161904D01*
X428028Y161900D01*
Y161300D01*
X427940Y161296D01*
X427853Y161284D01*
X427767Y161265D01*
X427683Y161238D01*
X427600Y161203D01*
X427518Y161160D01*
X427437Y161109D01*
X427358Y161051D01*
X427280Y160985D01*
X427203Y160911D01*
Y162289D01*
X427280Y162215D01*
D02*
G37*
G36*
X407932Y225024D02*
X407793Y224879D01*
X407669Y224713D01*
X407559Y224526D01*
X407464Y224318D01*
X407383Y224089D01*
X407317Y223840D01*
X407266Y223569D01*
X407229Y223277D01*
X407207Y222965D01*
X407200Y222631D01*
X404200Y222740D01*
X404193Y223074D01*
X404139Y223680D01*
X404092Y223953D01*
X404031Y224206D01*
X403957Y224438D01*
X403869Y224650D01*
X403768Y224842D01*
X403653Y225013D01*
X403525Y225164D01*
X407932Y225024D01*
D02*
G37*
G36*
X421845Y26016D02*
X421562Y26292D01*
X421003Y26758D01*
X420729Y26947D01*
X420457Y27107D01*
X420189Y27238D01*
X419924Y27340D01*
X419661Y27412D01*
X419402Y27456D01*
X419146Y27470D01*
Y28971D01*
X419402Y28985D01*
X419661Y29029D01*
X419924Y29101D01*
X420189Y29203D01*
X420457Y29334D01*
X420729Y29494D01*
X421003Y29683D01*
X421281Y29901D01*
X421562Y30149D01*
X421845Y30425D01*
Y26016D01*
D02*
G37*
G36*
X336500Y223718D02*
X336000Y223426D01*
X334892Y223885D01*
X333949Y224009D01*
Y218500D01*
Y212991D01*
X334892Y213115D01*
X336000Y213574D01*
X336500Y213282D01*
Y207968D01*
X336000Y207676D01*
X334892Y208135D01*
X333449Y208325D01*
X332006Y208135D01*
X330661Y207578D01*
X329506Y206692D01*
X328621Y205538D01*
X328064Y204193D01*
X327874Y202750D01*
X328064Y201307D01*
X328621Y199962D01*
X329506Y198808D01*
X330661Y197922D01*
X332006Y197365D01*
X333449Y197175D01*
X334892Y197365D01*
X336000Y197824D01*
X336500Y197532D01*
Y192218D01*
X336000Y191926D01*
X334892Y192385D01*
X333449Y192575D01*
X332006Y192385D01*
X330661Y191828D01*
X329506Y190942D01*
X328621Y189788D01*
X328064Y188443D01*
X327874Y187000D01*
X328064Y185557D01*
X328621Y184212D01*
X329506Y183058D01*
X330661Y182172D01*
X332006Y181615D01*
X333449Y181425D01*
X334892Y181615D01*
X336000Y182074D01*
X336500Y181782D01*
Y176468D01*
X336000Y176176D01*
X334892Y176635D01*
X333449Y176825D01*
X332006Y176635D01*
X330661Y176078D01*
X329506Y175192D01*
X328621Y174038D01*
X328064Y172693D01*
X327874Y171250D01*
X328064Y169807D01*
X328621Y168462D01*
X329506Y167308D01*
X330661Y166422D01*
X332006Y165865D01*
X333449Y165675D01*
X334892Y165865D01*
X336000Y166324D01*
X336500Y166032D01*
Y160718D01*
X336000Y160426D01*
X334892Y160885D01*
X333449Y161075D01*
X332006Y160885D01*
X330661Y160328D01*
X329506Y159442D01*
X328621Y158288D01*
X328064Y156943D01*
X327874Y155500D01*
X328064Y154057D01*
X328621Y152712D01*
X329506Y151558D01*
X330661Y150672D01*
X332006Y150115D01*
X333449Y149925D01*
X334892Y150115D01*
X336000Y150574D01*
X336500Y150282D01*
Y114000D01*
X360483Y90017D01*
X360473Y89347D01*
X359063Y87937D01*
X358775Y87507D01*
X358675Y87000D01*
Y55500D01*
X358775Y54993D01*
X359063Y54563D01*
X361210Y52416D01*
Y24313D01*
X361210Y24313D01*
X361199Y24290D01*
X361180Y24257D01*
X361151Y24214D01*
X361111Y24162D01*
X361059Y24102D01*
X361055Y24099D01*
X360963Y24037D01*
X360481Y23316D01*
X360312Y22465D01*
X360481Y21613D01*
X360963Y20892D01*
X361684Y20410D01*
X362535Y20241D01*
X363387Y20410D01*
X364108Y20892D01*
X364590Y21613D01*
X364759Y22465D01*
X364590Y23316D01*
X364108Y24037D01*
X364015Y24099D01*
X364012Y24102D01*
X363960Y24162D01*
X363920Y24214D01*
X363891Y24257D01*
X363872Y24290D01*
X363861Y24313D01*
X363861Y24313D01*
Y41986D01*
X364323Y42177D01*
X374000Y32500D01*
X374000Y31000D01*
Y1529D01*
X1529D01*
Y234691D01*
X336500D01*
Y223718D01*
D02*
G37*
%LPC*%
G36*
X241203Y142200D02*
X238179D01*
Y139176D01*
X238608Y139233D01*
X239474Y139591D01*
X240217Y140162D01*
X240788Y140905D01*
X241146Y141771D01*
X241203Y142200D01*
D02*
G37*
G36*
X237179D02*
X234155D01*
X234211Y141771D01*
X234570Y140905D01*
X235140Y140162D01*
X235884Y139591D01*
X236750Y139233D01*
X237179Y139176D01*
Y142200D01*
D02*
G37*
G36*
X298500Y53224D02*
X297649Y53054D01*
X296927Y52573D01*
X296445Y51851D01*
X296276Y51000D01*
X296445Y50149D01*
X296927Y49428D01*
X297020Y49366D01*
X297023Y49362D01*
X297075Y49303D01*
X297115Y49251D01*
X297144Y49208D01*
X297164Y49174D01*
X297175Y49151D01*
X297175Y49151D01*
Y45549D01*
X287951Y36325D01*
X263349D01*
X263349Y36325D01*
X263326Y36336D01*
X263292Y36356D01*
X263249Y36385D01*
X263197Y36425D01*
X263138Y36477D01*
X263134Y36480D01*
X263072Y36573D01*
X262351Y37055D01*
X261500Y37224D01*
X260649Y37055D01*
X259928Y36573D01*
X259445Y35851D01*
X259276Y35000D01*
X259445Y34149D01*
X259928Y33428D01*
X260649Y32945D01*
X261500Y32776D01*
X262351Y32945D01*
X263072Y33428D01*
X263134Y33520D01*
X263138Y33523D01*
X263197Y33575D01*
X263249Y33615D01*
X263292Y33644D01*
X263326Y33664D01*
X263349Y33674D01*
X263349Y33674D01*
X288500D01*
X289007Y33775D01*
X289437Y34063D01*
X299437Y44063D01*
X299725Y44493D01*
X299826Y45000D01*
Y49151D01*
X299826Y49151D01*
X299836Y49174D01*
X299856Y49208D01*
X299885Y49251D01*
X299925Y49303D01*
X299977Y49362D01*
X299980Y49366D01*
X300073Y49428D01*
X300555Y50149D01*
X300724Y51000D01*
X300555Y51851D01*
X300073Y52573D01*
X299351Y53054D01*
X298500Y53224D01*
D02*
G37*
G36*
X315861Y169743D02*
X311318D01*
X309047Y167472D01*
Y162928D01*
X311318Y160657D01*
X315861D01*
X318133Y162928D01*
Y167472D01*
X315861Y169743D01*
D02*
G37*
G36*
X26057Y69342D02*
X24331Y69206D01*
X22648Y68802D01*
X21048Y68139D01*
X19572Y67235D01*
X18255Y66110D01*
X17131Y64794D01*
X16226Y63317D01*
X15563Y61718D01*
X15159Y60034D01*
X15023Y58308D01*
X15159Y56582D01*
X15563Y54898D01*
X16226Y53299D01*
X17131Y51822D01*
X18255Y50506D01*
X19572Y49381D01*
X21048Y48477D01*
X22648Y47814D01*
X24331Y47410D01*
X26057Y47274D01*
X27783Y47410D01*
X29467Y47814D01*
X31067Y48477D01*
X32543Y49381D01*
X33860Y50506D01*
X34984Y51822D01*
X35889Y53299D01*
X36551Y54898D01*
X36955Y56582D01*
X37091Y58308D01*
X36955Y60034D01*
X36551Y61718D01*
X35889Y63317D01*
X34984Y64794D01*
X33860Y66110D01*
X32543Y67235D01*
X31067Y68139D01*
X29467Y68802D01*
X27783Y69206D01*
X26057Y69342D01*
D02*
G37*
G36*
X274227Y142500D02*
X270210D01*
Y138483D01*
X270896Y138574D01*
X272002Y139031D01*
X272951Y139760D01*
X273679Y140709D01*
X274137Y141814D01*
X274227Y142500D01*
D02*
G37*
G36*
X80500Y221604D02*
X79365Y221455D01*
X78308Y221017D01*
X77400Y220320D01*
X76703Y219412D01*
X76265Y218355D01*
X76116Y217220D01*
X76265Y216086D01*
X76703Y215029D01*
X77400Y214121D01*
X77500Y214043D01*
X78137Y213387D01*
X78664Y212765D01*
X78850Y212513D01*
X78996Y212287D01*
X79096Y212102D01*
X79153Y211966D01*
X79174Y211891D01*
X79175Y211885D01*
Y154500D01*
X79275Y153993D01*
X79563Y153563D01*
X94563Y138563D01*
X94993Y138275D01*
X95500Y138174D01*
X106151D01*
X106151Y138174D01*
X106175Y138164D01*
X106208Y138144D01*
X106251Y138115D01*
X106303Y138075D01*
X106362Y138023D01*
X106366Y138020D01*
X106428Y137927D01*
X107149Y137445D01*
X108000Y137276D01*
X108851Y137445D01*
X109573Y137927D01*
X110055Y138649D01*
X110224Y139500D01*
X110055Y140351D01*
X109573Y141072D01*
X108851Y141554D01*
X108000Y141724D01*
X107149Y141554D01*
X106428Y141072D01*
X106366Y140980D01*
X106362Y140977D01*
X106303Y140925D01*
X106251Y140885D01*
X106208Y140856D01*
X106175Y140836D01*
X106151Y140825D01*
X106151Y140825D01*
X96049D01*
X81826Y155049D01*
Y211885D01*
X81826Y211891D01*
X81847Y211966D01*
X81904Y212102D01*
X82004Y212287D01*
X82150Y212513D01*
X82330Y212757D01*
X83199Y213743D01*
X83491Y214037D01*
X83600Y214121D01*
X84297Y215029D01*
X84735Y216086D01*
X84884Y217220D01*
X84735Y218355D01*
X84297Y219412D01*
X83600Y220320D01*
X82692Y221017D01*
X81635Y221455D01*
X80500Y221604D01*
D02*
G37*
G36*
X251080Y146259D02*
X243962D01*
Y139141D01*
X251080D01*
Y146259D01*
D02*
G37*
G36*
X269210Y142500D02*
X265194D01*
X265284Y141814D01*
X265742Y140709D01*
X266470Y139760D01*
X267419Y139031D01*
X268524Y138574D01*
X269210Y138483D01*
Y142500D01*
D02*
G37*
G36*
X39943Y164731D02*
X38706Y164568D01*
X37553Y164090D01*
X36562Y163330D01*
X35803Y162340D01*
X35325Y161187D01*
X35162Y159950D01*
X35325Y158712D01*
X35803Y157559D01*
X36562Y156569D01*
X37553Y155809D01*
X38706Y155332D01*
X39943Y155169D01*
X41181Y155332D01*
X42334Y155809D01*
X43324Y156569D01*
X44084Y157559D01*
X44561Y158712D01*
X44724Y159950D01*
X44561Y161187D01*
X44084Y162340D01*
X43324Y163330D01*
X42334Y164090D01*
X41181Y164568D01*
X39943Y164731D01*
D02*
G37*
G36*
X13171D02*
X11934Y164568D01*
X10781Y164090D01*
X9791Y163330D01*
X9031Y162340D01*
X8553Y161187D01*
X8390Y159950D01*
X8553Y158712D01*
X9031Y157559D01*
X9791Y156569D01*
X10781Y155809D01*
X11934Y155332D01*
X13171Y155169D01*
X14409Y155332D01*
X15562Y155809D01*
X16552Y156569D01*
X17312Y157559D01*
X17790Y158712D01*
X17953Y159950D01*
X17790Y161187D01*
X17312Y162340D01*
X16552Y163330D01*
X15562Y164090D01*
X14409Y164568D01*
X13171Y164731D01*
D02*
G37*
G36*
X136057Y157192D02*
X134923Y157043D01*
X133865Y156605D01*
X132957Y155908D01*
X132261Y155000D01*
X131823Y153943D01*
X131673Y152808D01*
X131823Y151673D01*
X132261Y150616D01*
X132957Y149708D01*
X133865Y149011D01*
X134923Y148574D01*
X136057Y148424D01*
X137192Y148574D01*
X138249Y149011D01*
X139157Y149708D01*
X139854Y150616D01*
X140292Y151673D01*
X140441Y152808D01*
X140292Y153943D01*
X139854Y155000D01*
X139157Y155908D01*
X138249Y156605D01*
X137192Y157043D01*
X136057Y157192D01*
D02*
G37*
G36*
X252500Y34224D02*
X251649Y34055D01*
X250927Y33573D01*
X250445Y32851D01*
X250276Y32000D01*
X250445Y31149D01*
X250927Y30428D01*
X251649Y29945D01*
X252500Y29776D01*
X252609Y29798D01*
X252614Y29798D01*
X252693Y29792D01*
X252758Y29784D01*
X252809Y29774D01*
X252846Y29764D01*
X252870Y29755D01*
X253263Y29363D01*
X253693Y29075D01*
X254200Y28975D01*
X274393D01*
X274529Y28475D01*
X273927Y28073D01*
X273445Y27351D01*
X273276Y26500D01*
X273445Y25649D01*
X273927Y24927D01*
X274649Y24445D01*
X275500Y24276D01*
X276351Y24445D01*
X277073Y24927D01*
X277134Y25020D01*
X277137Y25023D01*
X277197Y25075D01*
X277249Y25115D01*
X277292Y25144D01*
X277326Y25164D01*
X277349Y25174D01*
X277349Y25174D01*
X282451D01*
X295756Y11870D01*
X295764Y11846D01*
X295774Y11809D01*
X295784Y11758D01*
X295793Y11693D01*
X295798Y11614D01*
X295798Y11609D01*
X295776Y11500D01*
X295945Y10649D01*
X296427Y9928D01*
X297149Y9445D01*
X298000Y9276D01*
X298851Y9445D01*
X299572Y9928D01*
X300055Y10649D01*
X300224Y11500D01*
X300055Y12351D01*
X299572Y13072D01*
X298851Y13555D01*
X298000Y13724D01*
X297891Y13702D01*
X297886Y13702D01*
X297808Y13708D01*
X297742Y13716D01*
X297691Y13726D01*
X297654Y13736D01*
X297630Y13745D01*
X293511Y17864D01*
X293757Y18325D01*
X294000Y18276D01*
X294109Y18298D01*
X294114Y18298D01*
X294193Y18293D01*
X294258Y18284D01*
X294309Y18274D01*
X294346Y18264D01*
X294370Y18256D01*
X297563Y15063D01*
X297993Y14775D01*
X298500Y14674D01*
X320151D01*
X320151Y14674D01*
X320175Y14664D01*
X320208Y14644D01*
X320251Y14615D01*
X320303Y14575D01*
X320362Y14523D01*
X320366Y14520D01*
X320427Y14427D01*
X321149Y13945D01*
X322000Y13776D01*
X322851Y13945D01*
X323572Y14427D01*
X324055Y15149D01*
X324224Y16000D01*
X324055Y16851D01*
X323572Y17572D01*
X322851Y18055D01*
X322000Y18224D01*
X321149Y18055D01*
X320427Y17572D01*
X320366Y17480D01*
X320362Y17477D01*
X320303Y17425D01*
X320251Y17385D01*
X320208Y17356D01*
X320175Y17336D01*
X320151Y17325D01*
X320151Y17325D01*
X299049D01*
X296244Y20130D01*
X296236Y20154D01*
X296226Y20191D01*
X296216Y20242D01*
X296207Y20308D01*
X296202Y20386D01*
X296202Y20391D01*
X296224Y20500D01*
X296055Y21351D01*
X295572Y22072D01*
X295480Y22134D01*
X295477Y22138D01*
X295425Y22197D01*
X295385Y22249D01*
X295356Y22292D01*
X295336Y22325D01*
X295325Y22349D01*
X295325Y22349D01*
Y23500D01*
X295225Y24007D01*
X294937Y24437D01*
X292744Y26630D01*
X292736Y26654D01*
X292726Y26691D01*
X292716Y26742D01*
X292707Y26807D01*
X292702Y26886D01*
X292702Y26891D01*
X292724Y27000D01*
X292555Y27851D01*
X292138Y28475D01*
X292302Y28975D01*
X328351D01*
X328351Y28975D01*
X328375Y28964D01*
X328408Y28944D01*
X328451Y28915D01*
X328503Y28875D01*
X328562Y28823D01*
X328566Y28820D01*
X328627Y28727D01*
X329349Y28245D01*
X330200Y28076D01*
X331051Y28245D01*
X331772Y28727D01*
X332255Y29449D01*
X332424Y30300D01*
X332255Y31151D01*
X331772Y31872D01*
X331051Y32355D01*
X330200Y32524D01*
X329349Y32355D01*
X328627Y31872D01*
X328566Y31780D01*
X328562Y31777D01*
X328503Y31725D01*
X328451Y31685D01*
X328408Y31656D01*
X328375Y31636D01*
X328351Y31626D01*
X328351Y31626D01*
X255080D01*
X254724Y32000D01*
X254555Y32851D01*
X254072Y33573D01*
X253351Y34055D01*
X252500Y34224D01*
D02*
G37*
G36*
X66557Y179342D02*
X64831Y179206D01*
X63148Y178802D01*
X61548Y178139D01*
X60072Y177235D01*
X58755Y176110D01*
X57631Y174794D01*
X56726Y173317D01*
X56063Y171718D01*
X55659Y170034D01*
X55523Y168308D01*
X55659Y166582D01*
X56063Y164898D01*
X56726Y163299D01*
X57631Y161822D01*
X58755Y160506D01*
X60072Y159381D01*
X61548Y158477D01*
X63148Y157814D01*
X64831Y157410D01*
X66557Y157274D01*
X68283Y157410D01*
X69967Y157814D01*
X71567Y158477D01*
X73043Y159381D01*
X74360Y160506D01*
X75484Y161822D01*
X76389Y163299D01*
X77051Y164898D01*
X77455Y166582D01*
X77591Y168308D01*
X77455Y170034D01*
X77051Y171718D01*
X76389Y173317D01*
X75484Y174794D01*
X74360Y176110D01*
X73043Y177235D01*
X71567Y178139D01*
X69967Y178802D01*
X68283Y179206D01*
X66557Y179342D01*
D02*
G37*
G36*
X86500Y185724D02*
X85649Y185555D01*
X84927Y185073D01*
X84446Y184351D01*
X84276Y183500D01*
X84446Y182649D01*
X84927Y181928D01*
X85020Y181866D01*
X85023Y181862D01*
X85075Y181803D01*
X85115Y181751D01*
X85144Y181708D01*
X85164Y181675D01*
X85175Y181651D01*
X85175Y181651D01*
Y176500D01*
X85275Y175993D01*
X85563Y175563D01*
X97732Y163394D01*
Y159458D01*
X94908D01*
Y156955D01*
X94408Y156856D01*
X94182Y157401D01*
X93517Y158268D01*
X92650Y158933D01*
X91641Y159351D01*
X90557Y159494D01*
X89474Y159351D01*
X88465Y158933D01*
X87598Y158268D01*
X86933Y157401D01*
X86515Y156391D01*
X86372Y155308D01*
X86515Y154225D01*
X86933Y153215D01*
X87598Y152348D01*
X88465Y151683D01*
X89474Y151265D01*
X90557Y151123D01*
X91641Y151265D01*
X92650Y151683D01*
X93517Y152348D01*
X94182Y153215D01*
X94408Y153760D01*
X94908Y153661D01*
Y151158D01*
X103207D01*
Y152727D01*
X103707Y152934D01*
X105482Y151158D01*
X109632D01*
X111707Y153233D01*
Y157383D01*
X109632Y159458D01*
X105482D01*
X103707Y157682D01*
X103207Y157889D01*
Y159458D01*
X100383D01*
Y163943D01*
X100282Y164450D01*
X99994Y164880D01*
X87826Y177049D01*
Y181651D01*
X87826Y181651D01*
X87836Y181675D01*
X87856Y181708D01*
X87885Y181751D01*
X87925Y181803D01*
X87977Y181862D01*
X87980Y181866D01*
X88073Y181928D01*
X88555Y182649D01*
X88724Y183500D01*
X88555Y184351D01*
X88073Y185073D01*
X87351Y185555D01*
X86500Y185724D01*
D02*
G37*
G36*
X299810Y169782D02*
X298624Y169626D01*
X297519Y169169D01*
X296570Y168440D01*
X295842Y167491D01*
X295384Y166386D01*
X295228Y165200D01*
X295384Y164014D01*
X295842Y162909D01*
X296570Y161960D01*
X297519Y161231D01*
X298624Y160774D01*
X299810Y160617D01*
X300996Y160774D01*
X302101Y161231D01*
X303051Y161960D01*
X303779Y162909D01*
X304237Y164014D01*
X304393Y165200D01*
X304237Y166386D01*
X303779Y167491D01*
X303051Y168440D01*
X302101Y169169D01*
X300996Y169626D01*
X299810Y169782D01*
D02*
G37*
G36*
X269210Y147517D02*
X268524Y147426D01*
X267419Y146969D01*
X266470Y146240D01*
X265742Y145291D01*
X265284Y144186D01*
X265194Y143500D01*
X269210D01*
Y147517D01*
D02*
G37*
G36*
X238179Y146224D02*
Y143200D01*
X241203D01*
X241146Y143629D01*
X240788Y144495D01*
X240217Y145238D01*
X239474Y145809D01*
X238608Y146167D01*
X238179Y146224D01*
D02*
G37*
G36*
X237179D02*
X236750Y146167D01*
X235884Y145809D01*
X235140Y145238D01*
X234570Y144495D01*
X234211Y143629D01*
X234155Y143200D01*
X237179D01*
Y146224D01*
D02*
G37*
G36*
X315861Y154443D02*
X311318D01*
X309047Y152172D01*
Y147628D01*
X311318Y145357D01*
X315861D01*
X318133Y147628D01*
Y152172D01*
X315861Y154443D01*
D02*
G37*
G36*
X299810Y154482D02*
X298624Y154326D01*
X297519Y153869D01*
X296570Y153140D01*
X295842Y152191D01*
X295384Y151086D01*
X295228Y149900D01*
X295384Y148714D01*
X295842Y147609D01*
X296570Y146660D01*
X297519Y145931D01*
X298624Y145474D01*
X299810Y145317D01*
X300996Y145474D01*
X302101Y145931D01*
X303051Y146660D01*
X303779Y147609D01*
X304237Y148714D01*
X304393Y149900D01*
X304237Y151086D01*
X303779Y152191D01*
X303051Y153140D01*
X302101Y153869D01*
X300996Y154326D01*
X299810Y154482D01*
D02*
G37*
G36*
X270210Y147517D02*
Y143500D01*
X274227D01*
X274137Y144186D01*
X273679Y145291D01*
X272951Y146240D01*
X272002Y146969D01*
X270896Y147426D01*
X270210Y147517D01*
D02*
G37*
G36*
X321840Y107284D02*
X321489Y107214D01*
X320768Y106732D01*
X320286Y106011D01*
X320216Y105660D01*
X321840D01*
Y107284D01*
D02*
G37*
G36*
X322840D02*
Y105660D01*
X324465D01*
X324395Y106011D01*
X323913Y106732D01*
X323191Y107214D01*
X322840Y107284D01*
D02*
G37*
G36*
X80000Y106624D02*
X79649Y106554D01*
X78927Y106072D01*
X78446Y105351D01*
X78376Y105000D01*
X80000D01*
Y106624D01*
D02*
G37*
G36*
X81000D02*
Y105000D01*
X82624D01*
X82555Y105351D01*
X82073Y106072D01*
X81351Y106554D01*
X81000Y106624D01*
D02*
G37*
G36*
X157000Y86000D02*
X155376D01*
X155446Y85649D01*
X155928Y84927D01*
X156649Y84446D01*
X157000Y84376D01*
Y86000D01*
D02*
G37*
G36*
X60000Y108500D02*
X58376D01*
X58446Y108149D01*
X58928Y107428D01*
X59649Y106946D01*
X60000Y106876D01*
Y108500D01*
D02*
G37*
G36*
X335840Y107284D02*
X335489Y107214D01*
X334768Y106732D01*
X334286Y106011D01*
X334216Y105660D01*
X335840D01*
Y107284D01*
D02*
G37*
G36*
X336840D02*
Y105660D01*
X338464D01*
X338395Y106011D01*
X337913Y106732D01*
X337191Y107214D01*
X336840Y107284D01*
D02*
G37*
G36*
X82624Y104000D02*
X81000D01*
Y102376D01*
X81351Y102445D01*
X82073Y102927D01*
X82555Y103649D01*
X82624Y104000D01*
D02*
G37*
G36*
X321840Y104660D02*
X320216D01*
X320286Y104309D01*
X320768Y103587D01*
X321489Y103105D01*
X321840Y103035D01*
Y104660D01*
D02*
G37*
G36*
X321965Y101188D02*
X321113Y101019D01*
X320392Y100537D01*
X319910Y99816D01*
X319741Y98965D01*
X319910Y98114D01*
X320392Y97392D01*
X320499Y97320D01*
X320534Y97286D01*
X320585Y97231D01*
X320623Y97184D01*
X320651Y97145D01*
X320668Y97116D01*
X320674Y97103D01*
Y86400D01*
X320775Y85893D01*
X321063Y85463D01*
X325756Y80770D01*
X325764Y80746D01*
X325774Y80709D01*
X325784Y80658D01*
X325793Y80593D01*
X325798Y80514D01*
X325798Y80509D01*
X325776Y80400D01*
X325945Y79549D01*
X326428Y78828D01*
X327149Y78346D01*
X327176Y78340D01*
X327282Y77809D01*
X326927Y77573D01*
X326445Y76851D01*
X326276Y76000D01*
X326445Y75149D01*
X326927Y74427D01*
X327649Y73945D01*
X328500Y73776D01*
X329351Y73945D01*
X330072Y74427D01*
X330555Y75149D01*
X330724Y76000D01*
X330702Y76109D01*
X330702Y76114D01*
X330708Y76192D01*
X330716Y76258D01*
X330726Y76309D01*
X330736Y76346D01*
X330745Y76370D01*
X338013Y83638D01*
X338474Y83447D01*
Y82649D01*
X338474Y82649D01*
X338464Y82626D01*
X338444Y82592D01*
X338415Y82549D01*
X338375Y82497D01*
X338323Y82438D01*
X338320Y82434D01*
X338228Y82372D01*
X337745Y81651D01*
X337576Y80800D01*
X337745Y79949D01*
X338228Y79228D01*
X338949Y78746D01*
X339800Y78576D01*
X340651Y78746D01*
X341372Y79228D01*
X341855Y79949D01*
X342024Y80800D01*
X341855Y81651D01*
X341372Y82372D01*
X341280Y82434D01*
X341277Y82437D01*
X341225Y82497D01*
X341185Y82549D01*
X341156Y82592D01*
X341136Y82626D01*
X341125Y82649D01*
X341125Y82649D01*
Y87751D01*
X347130Y93756D01*
X347154Y93764D01*
X347191Y93774D01*
X347242Y93784D01*
X347307Y93792D01*
X347386Y93798D01*
X347391Y93798D01*
X347500Y93776D01*
X348351Y93945D01*
X349073Y94428D01*
X349555Y95149D01*
X349724Y96000D01*
X349555Y96851D01*
X349073Y97572D01*
X348351Y98054D01*
X347500Y98224D01*
X346649Y98054D01*
X345928Y97572D01*
X345445Y96851D01*
X345276Y96000D01*
X345298Y95891D01*
X345298Y95886D01*
X345292Y95807D01*
X345284Y95742D01*
X345274Y95691D01*
X345264Y95654D01*
X345255Y95630D01*
X339987Y90362D01*
X339526Y90553D01*
Y92492D01*
X339591Y92505D01*
X340313Y92987D01*
X340795Y93709D01*
X340964Y94560D01*
X340795Y95411D01*
X340313Y96132D01*
X339591Y96614D01*
X338740Y96784D01*
X337889Y96614D01*
X337168Y96132D01*
X336686Y95411D01*
X336516Y94560D01*
X336686Y93709D01*
X336726Y93648D01*
X336753Y93569D01*
X336843Y93251D01*
X336855Y93198D01*
X336875Y93078D01*
Y86249D01*
X330661Y80036D01*
X330200Y80282D01*
X330224Y80400D01*
X330055Y81251D01*
X329573Y81972D01*
X328851Y82455D01*
X328000Y82624D01*
X327891Y82602D01*
X327886Y82602D01*
X327807Y82608D01*
X327742Y82616D01*
X327691Y82626D01*
X327654Y82636D01*
X327630Y82644D01*
X323325Y86949D01*
Y97129D01*
X323328Y97136D01*
X323340Y97163D01*
X323361Y97201D01*
X323384Y97236D01*
X323472Y97349D01*
X323537Y97392D01*
X324019Y98114D01*
X324188Y98965D01*
X324019Y99816D01*
X323537Y100537D01*
X322816Y101019D01*
X321965Y101188D01*
D02*
G37*
G36*
X80000Y104000D02*
X78376D01*
X78446Y103649D01*
X78927Y102927D01*
X79649Y102445D01*
X80000Y102376D01*
Y104000D01*
D02*
G37*
G36*
X338464Y104660D02*
X336840D01*
Y103035D01*
X337191Y103105D01*
X337913Y103587D01*
X338395Y104309D01*
X338464Y104660D01*
D02*
G37*
G36*
X163124Y86000D02*
X161500D01*
Y84376D01*
X161851Y84446D01*
X162573Y84927D01*
X163055Y85649D01*
X163124Y86000D01*
D02*
G37*
G36*
X324465Y104660D02*
X322840D01*
Y103035D01*
X323191Y103105D01*
X323913Y103587D01*
X324395Y104309D01*
X324465Y104660D01*
D02*
G37*
G36*
X335840D02*
X334216D01*
X334286Y104309D01*
X334768Y103587D01*
X335489Y103105D01*
X335840Y103035D01*
Y104660D01*
D02*
G37*
G36*
X303500Y97724D02*
X302649Y97554D01*
X301927Y97072D01*
X301445Y96351D01*
X301276Y95500D01*
X301445Y94649D01*
X301927Y93928D01*
X302649Y93445D01*
X303500Y93276D01*
X303609Y93298D01*
X303614Y93298D01*
X303693Y93292D01*
X303758Y93284D01*
X303809Y93274D01*
X303846Y93264D01*
X303870Y93256D01*
X308027Y89098D01*
X308457Y88811D01*
X308965Y88710D01*
X315687D01*
X315687Y88710D01*
X315710Y88699D01*
X315743Y88680D01*
X315787Y88651D01*
X315838Y88611D01*
X315898Y88559D01*
X315901Y88555D01*
X315963Y88463D01*
X316033Y88416D01*
X316066Y88376D01*
X316108Y88319D01*
X316139Y88272D01*
X316160Y88234D01*
X316172Y88206D01*
X316175Y88200D01*
Y69500D01*
X316275Y68993D01*
X316563Y68563D01*
X318756Y66370D01*
X318764Y66346D01*
X318774Y66309D01*
X318784Y66258D01*
X318793Y66193D01*
X318798Y66114D01*
X318798Y66109D01*
X318776Y66000D01*
X318945Y65149D01*
X319427Y64428D01*
X320149Y63946D01*
X321000Y63776D01*
X321851Y63946D01*
X322572Y64428D01*
X323055Y65149D01*
X323224Y66000D01*
X323055Y66851D01*
X322572Y67572D01*
X321851Y68054D01*
X321000Y68224D01*
X320891Y68202D01*
X320886Y68202D01*
X320808Y68208D01*
X320742Y68216D01*
X320691Y68226D01*
X320654Y68236D01*
X320630Y68244D01*
X318826Y70049D01*
Y88174D01*
X318832Y88187D01*
X318849Y88216D01*
X318877Y88255D01*
X318915Y88302D01*
X318966Y88357D01*
X319001Y88391D01*
X319108Y88463D01*
X319590Y89184D01*
X319759Y90035D01*
X319590Y90886D01*
X319108Y91608D01*
X318387Y92090D01*
X317535Y92259D01*
X316684Y92090D01*
X315963Y91608D01*
X315901Y91515D01*
X315898Y91512D01*
X315838Y91460D01*
X315787Y91420D01*
X315743Y91391D01*
X315710Y91372D01*
X315687Y91361D01*
X315687Y91361D01*
X309514D01*
X305744Y95130D01*
X305736Y95154D01*
X305726Y95191D01*
X305716Y95242D01*
X305708Y95307D01*
X305702Y95386D01*
X305702Y95391D01*
X305724Y95500D01*
X305555Y96351D01*
X305072Y97072D01*
X304351Y97554D01*
X303500Y97724D01*
D02*
G37*
G36*
X249400Y64097D02*
X248728Y64008D01*
X248101Y63749D01*
X247564Y63336D01*
X247151Y62799D01*
X246891Y62172D01*
X246803Y61500D01*
X246811Y61438D01*
X246808Y61422D01*
X246808Y61396D01*
X246806Y61390D01*
X246792Y61361D01*
X246767Y61318D01*
X246737Y61273D01*
X246677Y61200D01*
X242697Y57220D01*
X242657Y57189D01*
X242597Y57147D01*
X242549Y57119D01*
X242515Y57102D01*
X242502Y57097D01*
X242500Y57097D01*
X242473Y57094D01*
X242463Y57093D01*
X242457Y57091D01*
X241828Y57008D01*
X241201Y56749D01*
X240664Y56336D01*
X240251Y55799D01*
X239991Y55172D01*
X239903Y54500D01*
X239991Y53828D01*
X240251Y53202D01*
X240664Y52664D01*
X241201Y52251D01*
X241828Y51991D01*
X242500Y51903D01*
X243172Y51991D01*
X243798Y52251D01*
X244336Y52664D01*
X244749Y53202D01*
X245008Y53828D01*
X245091Y54457D01*
X245093Y54463D01*
X245093Y54473D01*
X245097Y54500D01*
X245097Y54502D01*
X245102Y54515D01*
X245119Y54549D01*
X245147Y54597D01*
X245181Y54646D01*
X245240Y54716D01*
X249291Y58767D01*
X249329Y58798D01*
X249393Y58843D01*
X249445Y58875D01*
X249483Y58895D01*
X249507Y58906D01*
X249513Y58908D01*
X249551Y58911D01*
X249621Y58932D01*
X250072Y58991D01*
X250698Y59251D01*
X251236Y59664D01*
X251649Y60202D01*
X251908Y60828D01*
X251997Y61500D01*
X251908Y62172D01*
X251649Y62799D01*
X251236Y63336D01*
X250698Y63749D01*
X250072Y64008D01*
X249400Y64097D01*
D02*
G37*
G36*
X13494Y123651D02*
X12950Y123579D01*
X11977Y123176D01*
X11141Y122535D01*
X10500Y121699D01*
X10097Y120726D01*
X10026Y120182D01*
X13494D01*
Y123651D01*
D02*
G37*
G36*
X22368D02*
Y120182D01*
X25837D01*
X25765Y120726D01*
X25362Y121699D01*
X24721Y122535D01*
X23886Y123176D01*
X22912Y123579D01*
X22368Y123651D01*
D02*
G37*
G36*
X330000Y134224D02*
X329149Y134055D01*
X328428Y133572D01*
X328366Y133480D01*
X328362Y133477D01*
X328303Y133425D01*
X328251Y133385D01*
X328208Y133356D01*
X328174Y133336D01*
X328151Y133326D01*
X328151Y133326D01*
X311849D01*
X311849Y133326D01*
X311825Y133336D01*
X311792Y133356D01*
X311749Y133385D01*
X311697Y133425D01*
X311638Y133477D01*
X311634Y133480D01*
X311573Y133572D01*
X310851Y134055D01*
X310000Y134224D01*
X309149Y134055D01*
X308428Y133572D01*
X307945Y132851D01*
X307776Y132000D01*
X307945Y131149D01*
X308428Y130428D01*
X309149Y129946D01*
X310000Y129776D01*
X310851Y129946D01*
X311573Y130428D01*
X311634Y130520D01*
X311637Y130523D01*
X311697Y130575D01*
X311749Y130615D01*
X311792Y130644D01*
X311825Y130664D01*
X311849Y130675D01*
X311849Y130675D01*
X328151D01*
X328151Y130675D01*
X328174Y130664D01*
X328208Y130644D01*
X328251Y130615D01*
X328303Y130575D01*
X328362Y130523D01*
X328366Y130520D01*
X328428Y130428D01*
X329149Y129946D01*
X330000Y129776D01*
X330851Y129946D01*
X331573Y130428D01*
X332055Y131149D01*
X332224Y132000D01*
X332055Y132851D01*
X331573Y133572D01*
X330851Y134055D01*
X330000Y134224D01*
D02*
G37*
G36*
X255700Y198584D02*
X203400D01*
X202717Y198449D01*
X202138Y198062D01*
X202138Y198062D01*
X197438Y193362D01*
X197052Y192783D01*
X196916Y192100D01*
Y190556D01*
X196645Y190151D01*
X196476Y189300D01*
X196645Y188449D01*
X197127Y187727D01*
X197849Y187246D01*
X198700Y187076D01*
X199551Y187246D01*
X200272Y187727D01*
X200754Y188449D01*
X200924Y189300D01*
X200754Y190151D01*
X200489Y190549D01*
X200484Y190617D01*
Y191361D01*
X204139Y195016D01*
X254961D01*
X265816Y184161D01*
Y177655D01*
X265545Y177251D01*
X265376Y176400D01*
X265545Y175549D01*
X265811Y175151D01*
X265816Y175083D01*
Y159563D01*
X265810Y159512D01*
X265797Y159440D01*
X265783Y159386D01*
X265771Y159350D01*
X265766Y159338D01*
X265764Y159336D01*
X265747Y159315D01*
X265741Y159308D01*
X265737Y159302D01*
X265351Y158799D01*
X265091Y158172D01*
X265003Y157500D01*
X265091Y156828D01*
X265242Y156465D01*
X257838Y149062D01*
X257452Y148483D01*
X257316Y147800D01*
Y138106D01*
X257145Y137851D01*
X256976Y137000D01*
X257145Y136149D01*
X257628Y135427D01*
X258349Y134945D01*
X259200Y134776D01*
X260051Y134945D01*
X260772Y135427D01*
X261255Y136149D01*
X261424Y137000D01*
X261255Y137851D01*
X260885Y138404D01*
X260884Y138414D01*
Y147061D01*
X268862Y155038D01*
X268862Y155038D01*
X269114Y155417D01*
X269436Y155664D01*
X269849Y156202D01*
X270109Y156828D01*
X270197Y157500D01*
X270109Y158172D01*
X269849Y158799D01*
X269463Y159302D01*
X269459Y159308D01*
X269453Y159315D01*
X269436Y159336D01*
X269434Y159338D01*
X269429Y159350D01*
X269417Y159386D01*
X269403Y159440D01*
X269393Y159499D01*
X269384Y159590D01*
Y175145D01*
X269655Y175549D01*
X269824Y176400D01*
X269655Y177251D01*
X269389Y177649D01*
X269384Y177717D01*
Y184900D01*
X269249Y185583D01*
X268862Y186162D01*
X256962Y198062D01*
X256383Y198449D01*
X255700Y198584D01*
D02*
G37*
G36*
X296000Y127224D02*
X295149Y127055D01*
X294427Y126573D01*
X294366Y126480D01*
X294362Y126477D01*
X294303Y126425D01*
X294251Y126385D01*
X294208Y126356D01*
X294175Y126336D01*
X294151Y126326D01*
X294151Y126326D01*
X228349D01*
X228349Y126326D01*
X228326Y126336D01*
X228292Y126356D01*
X228249Y126385D01*
X228197Y126425D01*
X228138Y126477D01*
X228134Y126480D01*
X228073Y126573D01*
X227351Y127055D01*
X226500Y127224D01*
X225649Y127055D01*
X224927Y126573D01*
X224445Y125851D01*
X224276Y125000D01*
X224445Y124149D01*
X224927Y123427D01*
X225649Y122945D01*
X226500Y122776D01*
X227351Y122945D01*
X228073Y123427D01*
X228134Y123520D01*
X228137Y123523D01*
X228197Y123575D01*
X228249Y123615D01*
X228292Y123644D01*
X228326Y123664D01*
X228349Y123674D01*
X228349Y123674D01*
X294151D01*
X294151Y123674D01*
X294175Y123664D01*
X294208Y123644D01*
X294251Y123615D01*
X294303Y123575D01*
X294362Y123523D01*
X294366Y123520D01*
X294427Y123427D01*
X295149Y122945D01*
X296000Y122776D01*
X296851Y122945D01*
X297572Y123427D01*
X298055Y124149D01*
X298224Y125000D01*
X298055Y125851D01*
X297572Y126573D01*
X296851Y127055D01*
X296000Y127224D01*
D02*
G37*
G36*
X294000Y60224D02*
X293149Y60054D01*
X292427Y59572D01*
X291945Y58851D01*
X291776Y58000D01*
X291945Y57149D01*
X292427Y56428D01*
X292520Y56366D01*
X292523Y56362D01*
X292575Y56303D01*
X292615Y56251D01*
X292644Y56208D01*
X292664Y56174D01*
X292674Y56151D01*
X292674Y56151D01*
Y54549D01*
X291370Y53244D01*
X291346Y53236D01*
X291309Y53226D01*
X291258Y53216D01*
X291193Y53207D01*
X291114Y53202D01*
X291109Y53202D01*
X291000Y53224D01*
X290149Y53054D01*
X289427Y52573D01*
X288945Y51851D01*
X288776Y51000D01*
X288945Y50149D01*
X289427Y49428D01*
X290149Y48945D01*
X291000Y48776D01*
X291851Y48945D01*
X292572Y49428D01*
X293055Y50149D01*
X293224Y51000D01*
X293202Y51109D01*
X293202Y51114D01*
X293208Y51192D01*
X293216Y51258D01*
X293226Y51309D01*
X293236Y51346D01*
X293245Y51370D01*
X294937Y53063D01*
X295225Y53493D01*
X295325Y54000D01*
Y56151D01*
X295325Y56151D01*
X295336Y56174D01*
X295356Y56208D01*
X295385Y56251D01*
X295425Y56303D01*
X295477Y56362D01*
X295480Y56366D01*
X295572Y56428D01*
X296055Y57149D01*
X296224Y58000D01*
X296055Y58851D01*
X295572Y59572D01*
X294851Y60054D01*
X294000Y60224D01*
D02*
G37*
G36*
X105500Y84124D02*
X105149Y84054D01*
X104428Y83573D01*
X103946Y82851D01*
X103876Y82500D01*
X105500D01*
Y84124D01*
D02*
G37*
G36*
X108124Y81500D02*
X106500D01*
Y79876D01*
X106851Y79945D01*
X107572Y80427D01*
X108054Y81149D01*
X108124Y81500D01*
D02*
G37*
G36*
X62624Y108500D02*
X61000D01*
Y106876D01*
X61351Y106946D01*
X62072Y107428D01*
X62555Y108149D01*
X62624Y108500D01*
D02*
G37*
G36*
X106500Y84124D02*
Y82500D01*
X108124D01*
X108054Y82851D01*
X107572Y83573D01*
X106851Y84054D01*
X106500Y84124D01*
D02*
G37*
G36*
X13494Y119182D02*
X10026D01*
X10097Y118638D01*
X10500Y117665D01*
X11141Y116829D01*
X11977Y116188D01*
X12950Y115785D01*
X13494Y115713D01*
Y119182D01*
D02*
G37*
G36*
X326965Y124188D02*
X326114Y124019D01*
X325392Y123537D01*
X325330Y123445D01*
X325327Y123441D01*
X325268Y123389D01*
X325216Y123349D01*
X325172Y123320D01*
X325139Y123301D01*
X325116Y123290D01*
X325116Y123290D01*
X312465D01*
X311957Y123189D01*
X311527Y122902D01*
X304370Y115744D01*
X304346Y115736D01*
X304309Y115726D01*
X304258Y115716D01*
X304192Y115708D01*
X304114Y115702D01*
X304109Y115702D01*
X304000Y115724D01*
X303149Y115554D01*
X302428Y115073D01*
X301945Y114351D01*
X301776Y113500D01*
X301945Y112649D01*
X302428Y111927D01*
X303149Y111445D01*
X304000Y111276D01*
X304851Y111445D01*
X305573Y111927D01*
X306055Y112649D01*
X306224Y113500D01*
X306202Y113609D01*
X306202Y113614D01*
X306207Y113692D01*
X306216Y113758D01*
X306226Y113809D01*
X306236Y113846D01*
X306244Y113870D01*
X313014Y120639D01*
X325116D01*
X325116Y120639D01*
X325139Y120628D01*
X325172Y120609D01*
X325216Y120580D01*
X325267Y120540D01*
X325327Y120488D01*
X325330Y120484D01*
X325392Y120392D01*
X326114Y119910D01*
X326965Y119741D01*
X327816Y119910D01*
X328537Y120392D01*
X329019Y121114D01*
X329188Y121965D01*
X329019Y122816D01*
X328537Y123537D01*
X327816Y124019D01*
X326965Y124188D01*
D02*
G37*
G36*
X124000Y112724D02*
X123149Y112555D01*
X122427Y112073D01*
X122366Y111980D01*
X122362Y111977D01*
X122303Y111925D01*
X122251Y111885D01*
X122208Y111856D01*
X122175Y111836D01*
X122151Y111826D01*
X122151Y111826D01*
X117349D01*
X117349Y111826D01*
X117325Y111836D01*
X117292Y111856D01*
X117249Y111885D01*
X117197Y111925D01*
X117138Y111977D01*
X117134Y111980D01*
X117072Y112073D01*
X116351Y112555D01*
X115500Y112724D01*
X114649Y112555D01*
X113927Y112073D01*
X113445Y111351D01*
X113276Y110500D01*
X113445Y109649D01*
X113927Y108928D01*
X114649Y108446D01*
X115500Y108276D01*
X116351Y108446D01*
X117072Y108928D01*
X117134Y109020D01*
X117138Y109023D01*
X117197Y109075D01*
X117249Y109115D01*
X117292Y109144D01*
X117325Y109164D01*
X117349Y109175D01*
X117349Y109175D01*
X122151D01*
X122151Y109175D01*
X122175Y109164D01*
X122208Y109144D01*
X122251Y109115D01*
X122303Y109075D01*
X122362Y109023D01*
X122366Y109020D01*
X122427Y108928D01*
X123149Y108446D01*
X124000Y108276D01*
X124851Y108446D01*
X125573Y108928D01*
X126055Y109649D01*
X126224Y110500D01*
X126055Y111351D01*
X125573Y112073D01*
X124851Y112555D01*
X124000Y112724D01*
D02*
G37*
G36*
X105500Y81500D02*
X103876D01*
X103946Y81149D01*
X104428Y80427D01*
X105149Y79945D01*
X105500Y79876D01*
Y81500D01*
D02*
G37*
G36*
X125000Y178224D02*
X124149Y178054D01*
X123427Y177573D01*
X122945Y176851D01*
X122776Y176000D01*
X122945Y175149D01*
X123211Y174751D01*
X123216Y174683D01*
Y166755D01*
X122945Y166351D01*
X122776Y165500D01*
X122945Y164649D01*
X123427Y163927D01*
X124149Y163445D01*
X125000Y163276D01*
X125851Y163445D01*
X126573Y163927D01*
X127055Y164649D01*
X127224Y165500D01*
X127055Y166351D01*
X126789Y166749D01*
X126784Y166817D01*
Y174744D01*
X127055Y175149D01*
X127224Y176000D01*
X127055Y176851D01*
X126573Y177573D01*
X125851Y178054D01*
X125000Y178224D01*
D02*
G37*
G36*
X163404Y222154D02*
X154711D01*
Y213462D01*
X157395D01*
X157408Y213385D01*
X157416Y213295D01*
Y210600D01*
X157552Y209917D01*
X157938Y209338D01*
X162681Y204596D01*
X162681Y204596D01*
X163260Y204209D01*
X163943Y204073D01*
X163943Y204073D01*
X222883D01*
X223060Y204039D01*
X223278Y203972D01*
X223528Y203869D01*
X223805Y203728D01*
X224109Y203547D01*
X224426Y203331D01*
X225161Y202750D01*
X225329Y202601D01*
X225379Y202536D01*
X225545Y202409D01*
X225554Y202401D01*
X225560Y202397D01*
X226410Y201745D01*
X227611Y201248D01*
X228900Y201078D01*
X230189Y201248D01*
X231390Y201745D01*
X232010Y202221D01*
X232082Y202258D01*
X232327Y202451D01*
X232552Y202604D01*
X232784Y202737D01*
X233026Y202853D01*
X233278Y202951D01*
X233542Y203032D01*
X233818Y203096D01*
X234109Y203142D01*
X234205Y203151D01*
X241829D01*
X241925Y203142D01*
X242215Y203096D01*
X242491Y203032D01*
X242755Y202951D01*
X243007Y202853D01*
X243249Y202737D01*
X243482Y202604D01*
X243706Y202451D01*
X243952Y202258D01*
X244023Y202221D01*
X244643Y201745D01*
X245845Y201248D01*
X247133Y201078D01*
X248422Y201248D01*
X249623Y201745D01*
X250243Y202221D01*
X250315Y202258D01*
X250561Y202451D01*
X250785Y202604D01*
X251017Y202737D01*
X251259Y202853D01*
X251512Y202951D01*
X251775Y203032D01*
X252052Y203096D01*
X252342Y203142D01*
X252438Y203151D01*
X260062D01*
X260158Y203142D01*
X260448Y203096D01*
X260725Y203032D01*
X260989Y202951D01*
X261241Y202853D01*
X261483Y202737D01*
X261715Y202604D01*
X261939Y202451D01*
X262185Y202258D01*
X262257Y202221D01*
X262877Y201745D01*
X264078Y201248D01*
X265367Y201078D01*
X266655Y201248D01*
X267857Y201745D01*
X268477Y202221D01*
X268548Y202258D01*
X268794Y202451D01*
X269018Y202604D01*
X269251Y202737D01*
X269493Y202853D01*
X269745Y202951D01*
X270009Y203032D01*
X270285Y203096D01*
X270575Y203142D01*
X270671Y203151D01*
X278124D01*
X278238Y203140D01*
X278519Y203091D01*
X278784Y203023D01*
X279034Y202939D01*
X279270Y202836D01*
X279494Y202715D01*
X279709Y202576D01*
X279914Y202416D01*
X280005Y202333D01*
X280079Y202236D01*
X280155Y202178D01*
X280211Y202115D01*
X280369Y201906D01*
X280508Y201689D01*
X280628Y201461D01*
X280730Y201222D01*
X280815Y200970D01*
X280881Y200703D01*
X280930Y200420D01*
X280941Y200309D01*
Y148840D01*
X280918Y148575D01*
X280857Y148211D01*
X280782Y147929D01*
X280701Y147733D01*
X280632Y147619D01*
X280588Y147571D01*
X280569Y147558D01*
X280548Y147551D01*
X280478Y147543D01*
X278946D01*
Y138457D01*
X288033D01*
Y147543D01*
X286502D01*
X286432Y147551D01*
X286411Y147558D01*
X286392Y147571D01*
X286348Y147619D01*
X286278Y147733D01*
X286198Y147929D01*
X286122Y148211D01*
X286062Y148575D01*
X286039Y148840D01*
Y200203D01*
X286051Y200323D01*
X286102Y200599D01*
X286170Y200857D01*
X286256Y201099D01*
X286361Y201326D01*
X286483Y201540D01*
X286624Y201743D01*
X286786Y201936D01*
X286965Y202117D01*
X287121Y202236D01*
X287195Y202333D01*
X287286Y202416D01*
X287491Y202576D01*
X287706Y202715D01*
X287930Y202836D01*
X288166Y202938D01*
X288416Y203023D01*
X288681Y203091D01*
X288962Y203140D01*
X289076Y203151D01*
X295219D01*
X295257Y203148D01*
X295514Y203109D01*
X295748Y203057D01*
X295961Y202992D01*
X296152Y202916D01*
X296325Y202829D01*
X296480Y202732D01*
X296622Y202625D01*
X296696Y202556D01*
X296770Y202460D01*
X297719Y201731D01*
X298824Y201274D01*
X300010Y201117D01*
X301196Y201274D01*
X302302Y201731D01*
X303251Y202460D01*
X303979Y203409D01*
X304437Y204514D01*
X304593Y205700D01*
X304437Y206886D01*
X303979Y207991D01*
X303251Y208940D01*
X302302Y209669D01*
X301196Y210126D01*
X300010Y210282D01*
X298824Y210126D01*
X297719Y209669D01*
X296770Y208940D01*
X296696Y208844D01*
X296622Y208775D01*
X296480Y208668D01*
X296325Y208571D01*
X296152Y208484D01*
X295961Y208408D01*
X295748Y208343D01*
X295514Y208291D01*
X295257Y208252D01*
X295219Y208249D01*
X289131D01*
X289013Y208261D01*
X288735Y208311D01*
X288474Y208379D01*
X288230Y208465D01*
X288001Y208569D01*
X287783Y208691D01*
X287577Y208832D01*
X287379Y208993D01*
X287228Y209140D01*
X287121Y209279D01*
X286090Y210070D01*
X284889Y210567D01*
X283600Y210737D01*
X282311Y210567D01*
X281110Y210070D01*
X280079Y209279D01*
X279972Y209140D01*
X279821Y208993D01*
X279623Y208832D01*
X279417Y208691D01*
X279199Y208569D01*
X278970Y208465D01*
X278726Y208379D01*
X278465Y208311D01*
X278187Y208261D01*
X278069Y208249D01*
X271019D01*
X270891Y208263D01*
X270622Y208314D01*
X270374Y208384D01*
X270146Y208472D01*
X269934Y208577D01*
X269736Y208699D01*
X269550Y208842D01*
X269374Y209005D01*
X269177Y209226D01*
X269158Y209240D01*
X269145Y209260D01*
X269117Y209279D01*
X268888Y209579D01*
X267857Y210370D01*
X266655Y210867D01*
X265367Y211037D01*
X264078Y210867D01*
X262877Y210370D01*
X261845Y209579D01*
X261616Y209279D01*
X261588Y209260D01*
X261575Y209240D01*
X261556Y209226D01*
X261359Y209005D01*
X261183Y208842D01*
X260997Y208700D01*
X260800Y208577D01*
X260588Y208472D01*
X260359Y208384D01*
X260111Y208314D01*
X259842Y208263D01*
X259714Y208249D01*
X252786D01*
X252658Y208263D01*
X252389Y208314D01*
X252141Y208384D01*
X251912Y208472D01*
X251700Y208577D01*
X251503Y208699D01*
X251317Y208842D01*
X251141Y209005D01*
X250944Y209226D01*
X250925Y209240D01*
X250912Y209260D01*
X250884Y209279D01*
X250654Y209579D01*
X249623Y210370D01*
X248422Y210867D01*
X247133Y211037D01*
X245845Y210867D01*
X244643Y210370D01*
X243612Y209579D01*
X243383Y209279D01*
X243355Y209260D01*
X243342Y209240D01*
X243323Y209226D01*
X243126Y209005D01*
X242950Y208842D01*
X242764Y208700D01*
X242566Y208577D01*
X242354Y208472D01*
X242126Y208384D01*
X241878Y208314D01*
X241609Y208263D01*
X241481Y208249D01*
X234552D01*
X234424Y208263D01*
X234155Y208314D01*
X233908Y208384D01*
X233679Y208472D01*
X233467Y208577D01*
X233270Y208699D01*
X233084Y208842D01*
X232908Y209005D01*
X232711Y209226D01*
X232666Y209260D01*
X232421Y209579D01*
X231390Y210370D01*
X230189Y210867D01*
X228900Y211037D01*
X227611Y210867D01*
X226410Y210370D01*
X225379Y209579D01*
X225219Y209370D01*
X225203Y209359D01*
X224858Y208985D01*
X224539Y208670D01*
X224234Y208400D01*
X223946Y208173D01*
X223675Y207990D01*
X223424Y207848D01*
X223195Y207745D01*
X222989Y207678D01*
X222810Y207642D01*
X164682D01*
X160984Y211339D01*
Y213295D01*
X160992Y213385D01*
X161005Y213462D01*
X163404D01*
Y222154D01*
D02*
G37*
G36*
X129057Y222126D02*
X128423Y222043D01*
X127365Y221605D01*
X126457Y220908D01*
X125761Y220000D01*
X125323Y218943D01*
X125239Y218308D01*
X129057D01*
Y222126D01*
D02*
G37*
G36*
X130057D02*
Y218308D01*
X133875D01*
X133792Y218943D01*
X133354Y220000D01*
X132657Y220908D01*
X131749Y221605D01*
X130692Y222043D01*
X130057Y222126D01*
D02*
G37*
G36*
X103207Y198958D02*
X94908D01*
Y190658D01*
X103207D01*
Y198958D01*
D02*
G37*
G36*
X90000Y221539D02*
X89365Y221455D01*
X88308Y221017D01*
X87400Y220320D01*
X86703Y219412D01*
X86265Y218355D01*
X86182Y217721D01*
X90000D01*
Y221539D01*
D02*
G37*
G36*
X147943Y14231D02*
X146706Y14068D01*
X145553Y13590D01*
X144562Y12831D01*
X143803Y11840D01*
X143325Y10687D01*
X143162Y9450D01*
X143325Y8212D01*
X143803Y7059D01*
X144562Y6069D01*
X145553Y5309D01*
X146706Y4832D01*
X147943Y4669D01*
X149180Y4832D01*
X150334Y5309D01*
X151324Y6069D01*
X152084Y7059D01*
X152561Y8212D01*
X152724Y9450D01*
X152561Y10687D01*
X152084Y11840D01*
X151324Y12831D01*
X150334Y13590D01*
X149180Y14068D01*
X147943Y14231D01*
D02*
G37*
G36*
X91000Y221539D02*
Y217721D01*
X94818D01*
X94735Y218355D01*
X94297Y219412D01*
X93600Y220320D01*
X92692Y221017D01*
X91635Y221455D01*
X91000Y221539D01*
D02*
G37*
G36*
X316061Y210243D02*
X311518D01*
X309246Y207972D01*
Y203428D01*
X311518Y201157D01*
X316061D01*
X318333Y203428D01*
Y207972D01*
X316061Y210243D01*
D02*
G37*
G36*
X166057Y197192D02*
X164923Y197043D01*
X163865Y196605D01*
X162957Y195908D01*
X162261Y195000D01*
X161823Y193943D01*
X161673Y192808D01*
X161823Y191673D01*
X162261Y190616D01*
X162957Y189708D01*
X163865Y189011D01*
X164923Y188574D01*
X166057Y188424D01*
X167192Y188574D01*
X168249Y189011D01*
X169157Y189708D01*
X169854Y190616D01*
X170292Y191673D01*
X170441Y192808D01*
X170292Y193943D01*
X169854Y195000D01*
X169157Y195908D01*
X168249Y196605D01*
X167192Y197043D01*
X166057Y197192D01*
D02*
G37*
G36*
X39943Y14231D02*
X38706Y14068D01*
X37553Y13590D01*
X36562Y12831D01*
X35803Y11840D01*
X35325Y10687D01*
X35162Y9450D01*
X35325Y8212D01*
X35803Y7059D01*
X36562Y6069D01*
X37553Y5309D01*
X38706Y4832D01*
X39943Y4669D01*
X41181Y4832D01*
X42334Y5309D01*
X43324Y6069D01*
X44084Y7059D01*
X44561Y8212D01*
X44724Y9450D01*
X44561Y10687D01*
X44084Y11840D01*
X43324Y12831D01*
X42334Y13590D01*
X41181Y14068D01*
X39943Y14231D01*
D02*
G37*
G36*
X283600Y230422D02*
X282311Y230252D01*
X281110Y229755D01*
X280079Y228964D01*
X279288Y227932D01*
X278790Y226731D01*
X278620Y225443D01*
X278790Y224154D01*
X279288Y222953D01*
X280079Y221921D01*
X281110Y221130D01*
X282311Y220633D01*
X283600Y220463D01*
X284889Y220633D01*
X286090Y221130D01*
X287121Y221921D01*
X287913Y222953D01*
X288410Y224154D01*
X288580Y225443D01*
X288410Y226731D01*
X287913Y227932D01*
X287121Y228964D01*
X286090Y229755D01*
X284889Y230252D01*
X283600Y230422D01*
D02*
G37*
G36*
X236846Y19846D02*
X228153D01*
Y11153D01*
X236846D01*
Y19846D01*
D02*
G37*
G36*
X332949Y224009D02*
X332006Y223885D01*
X330661Y223328D01*
X329506Y222442D01*
X328621Y221288D01*
X328064Y219943D01*
X327939Y219000D01*
X332949D01*
Y224009D01*
D02*
G37*
G36*
X222500Y19884D02*
X221365Y19735D01*
X220308Y19297D01*
X219400Y18600D01*
X218703Y17692D01*
X218265Y16635D01*
X218116Y15500D01*
X218265Y14365D01*
X218703Y13308D01*
X219400Y12400D01*
X220308Y11703D01*
X221365Y11265D01*
X222500Y11116D01*
X223635Y11265D01*
X224692Y11703D01*
X225600Y12400D01*
X226297Y13308D01*
X226735Y14365D01*
X226884Y15500D01*
X226735Y16635D01*
X226297Y17692D01*
X225600Y18600D01*
X224692Y19297D01*
X223635Y19735D01*
X222500Y19884D01*
D02*
G37*
G36*
X93943Y14231D02*
X92706Y14068D01*
X91553Y13590D01*
X90562Y12831D01*
X89803Y11840D01*
X89325Y10687D01*
X89162Y9450D01*
X89325Y8212D01*
X89803Y7059D01*
X90562Y6069D01*
X91553Y5309D01*
X92706Y4832D01*
X93943Y4669D01*
X95181Y4832D01*
X96334Y5309D01*
X97324Y6069D01*
X98084Y7059D01*
X98561Y8212D01*
X98724Y9450D01*
X98561Y10687D01*
X98084Y11840D01*
X97324Y12831D01*
X96334Y13590D01*
X95181Y14068D01*
X93943Y14231D01*
D02*
G37*
G36*
X186057Y197192D02*
X184923Y197043D01*
X183865Y196605D01*
X182957Y195908D01*
X182261Y195000D01*
X181823Y193943D01*
X181673Y192808D01*
X181823Y191673D01*
X182261Y190616D01*
X182957Y189708D01*
X183865Y189011D01*
X184923Y188574D01*
X186057Y188424D01*
X187192Y188574D01*
X188249Y189011D01*
X189157Y189708D01*
X189854Y190616D01*
X190292Y191673D01*
X190441Y192808D01*
X190292Y193943D01*
X189854Y195000D01*
X189157Y195908D01*
X188249Y196605D01*
X187192Y197043D01*
X186057Y197192D01*
D02*
G37*
G36*
X152000Y40724D02*
X151149Y40555D01*
X150427Y40073D01*
X149945Y39351D01*
X149776Y38500D01*
X149945Y37649D01*
X150427Y36928D01*
X151149Y36445D01*
X152000Y36276D01*
X152109Y36298D01*
X152114Y36298D01*
X152192Y36292D01*
X152258Y36284D01*
X152309Y36274D01*
X152346Y36264D01*
X152370Y36255D01*
X157175Y31451D01*
Y11349D01*
X157175Y11349D01*
X157164Y11326D01*
X157144Y11292D01*
X157115Y11249D01*
X157075Y11197D01*
X157023Y11138D01*
X157020Y11134D01*
X156928Y11073D01*
X156446Y10351D01*
X156276Y9500D01*
X156446Y8649D01*
X156928Y7927D01*
X157649Y7445D01*
X158500Y7276D01*
X159351Y7445D01*
X160073Y7927D01*
X160555Y8649D01*
X160724Y9500D01*
X160555Y10351D01*
X160073Y11073D01*
X159980Y11134D01*
X159977Y11137D01*
X159925Y11197D01*
X159885Y11249D01*
X159856Y11292D01*
X159836Y11326D01*
X159826Y11349D01*
X159826Y11349D01*
Y32000D01*
X159725Y32507D01*
X159437Y32937D01*
X154244Y38130D01*
X154236Y38154D01*
X154226Y38191D01*
X154216Y38242D01*
X154208Y38307D01*
X154202Y38386D01*
X154202Y38391D01*
X154224Y38500D01*
X154054Y39351D01*
X153572Y40073D01*
X152851Y40555D01*
X152000Y40724D01*
D02*
G37*
G36*
X71912Y14190D02*
X62431D01*
Y4710D01*
X71912D01*
Y14190D01*
D02*
G37*
G36*
X94818Y216721D02*
X91000D01*
Y212902D01*
X91635Y212986D01*
X92692Y213424D01*
X93600Y214121D01*
X94297Y215029D01*
X94735Y216086D01*
X94818Y216721D01*
D02*
G37*
G36*
X179912Y14190D02*
X170431D01*
Y4710D01*
X179912D01*
Y14190D01*
D02*
G37*
G36*
X125912D02*
X116431D01*
Y4710D01*
X125912D01*
Y14190D01*
D02*
G37*
G36*
X74847Y221567D02*
X66154D01*
Y212874D01*
X74847D01*
Y221567D01*
D02*
G37*
G36*
X17912Y14190D02*
X8431D01*
Y4710D01*
X17912D01*
Y14190D01*
D02*
G37*
G36*
X16974Y223698D02*
X16123Y223529D01*
X15402Y223047D01*
X14920Y222325D01*
X14751Y221474D01*
X14920Y220623D01*
X15402Y219902D01*
X15494Y219840D01*
X15498Y219837D01*
X15550Y219777D01*
X15590Y219725D01*
X15619Y219682D01*
X15638Y219649D01*
X15649Y219626D01*
X15649Y219626D01*
Y209879D01*
X15187Y209687D01*
X11800Y213075D01*
Y219626D01*
X11800Y219626D01*
X11811Y219649D01*
X11830Y219682D01*
X11859Y219725D01*
X11899Y219777D01*
X11951Y219837D01*
X11954Y219840D01*
X12047Y219902D01*
X12529Y220623D01*
X12698Y221474D01*
X12529Y222325D01*
X12047Y223047D01*
X11325Y223529D01*
X10474Y223698D01*
X9623Y223529D01*
X8902Y223047D01*
X8420Y222325D01*
X8251Y221474D01*
X8420Y220623D01*
X8902Y219902D01*
X8994Y219840D01*
X8997Y219837D01*
X9050Y219777D01*
X9090Y219725D01*
X9119Y219682D01*
X9138Y219649D01*
X9149Y219626D01*
X9149Y219626D01*
Y212526D01*
X9250Y212018D01*
X9537Y211588D01*
X14049Y207077D01*
Y196859D01*
X14150Y196352D01*
X14437Y195922D01*
X21974Y188384D01*
Y155675D01*
X22075Y155167D01*
X22363Y154737D01*
X43174Y133925D01*
Y117849D01*
X43174Y117849D01*
X43164Y117825D01*
X43144Y117792D01*
X43115Y117749D01*
X43075Y117697D01*
X43023Y117638D01*
X43020Y117634D01*
X42928Y117572D01*
X42445Y116851D01*
X42276Y116000D01*
X42445Y115149D01*
X42928Y114427D01*
X43649Y113945D01*
X44500Y113776D01*
X45351Y113945D01*
X46073Y114427D01*
X46555Y115149D01*
X46724Y116000D01*
X46555Y116851D01*
X46073Y117572D01*
X45980Y117634D01*
X45977Y117638D01*
X45925Y117697D01*
X45885Y117749D01*
X45856Y117792D01*
X45836Y117825D01*
X45825Y117849D01*
X45825Y117849D01*
Y118894D01*
X46325Y119162D01*
X46649Y118946D01*
X47500Y118776D01*
X48351Y118946D01*
X49073Y119428D01*
X49174Y119580D01*
X49674Y119429D01*
Y110000D01*
X49775Y109493D01*
X50063Y109063D01*
X51913Y107212D01*
X51745Y106673D01*
X51149Y106554D01*
X50428Y106072D01*
X49945Y105351D01*
X49776Y104500D01*
X49798Y104391D01*
X49798Y104386D01*
X49793Y104307D01*
X49784Y104242D01*
X49774Y104191D01*
X49764Y104154D01*
X49755Y104130D01*
X46951Y101326D01*
X26351D01*
X25479Y102198D01*
X25765Y102890D01*
X25903Y103934D01*
X25765Y104978D01*
X25362Y105951D01*
X24721Y106787D01*
X23886Y107428D01*
X23469Y107600D01*
Y108142D01*
X23886Y108314D01*
X24721Y108955D01*
X25362Y109791D01*
X25649Y110483D01*
X28459D01*
X28460Y110483D01*
X28483Y110472D01*
X28516Y110452D01*
X28559Y110423D01*
X28611Y110383D01*
X28670Y110331D01*
X28674Y110328D01*
X28736Y110236D01*
X29457Y109754D01*
X30308Y109584D01*
X31159Y109754D01*
X31881Y110236D01*
X32363Y110957D01*
X32532Y111808D01*
X32363Y112659D01*
X31881Y113381D01*
X31159Y113863D01*
X30308Y114032D01*
X29457Y113863D01*
X28736Y113381D01*
X28674Y113288D01*
X28670Y113285D01*
X28611Y113233D01*
X28559Y113193D01*
X28516Y113164D01*
X28483Y113145D01*
X28460Y113134D01*
X28459Y113134D01*
X25649D01*
X25362Y113825D01*
X24721Y114661D01*
X23886Y115302D01*
X23469Y115474D01*
Y116016D01*
X23886Y116188D01*
X24721Y116829D01*
X25362Y117665D01*
X25765Y118638D01*
X25837Y119182D01*
X21868D01*
Y119682D01*
X21368D01*
Y123651D01*
X20824Y123579D01*
X19851Y123176D01*
X19015Y122535D01*
X18374Y121699D01*
X18202Y121283D01*
X17661D01*
X17488Y121699D01*
X16847Y122535D01*
X16012Y123176D01*
X15039Y123579D01*
X14494Y123651D01*
Y119682D01*
Y115713D01*
X15039Y115785D01*
X16012Y116188D01*
X16847Y116829D01*
X17488Y117665D01*
X17661Y118081D01*
X18202D01*
X18374Y117665D01*
X19015Y116829D01*
X19851Y116188D01*
X20267Y116016D01*
Y115474D01*
X19851Y115302D01*
X19015Y114661D01*
X18374Y113825D01*
X17971Y112852D01*
X17834Y111808D01*
X17971Y110764D01*
X18374Y109791D01*
X19015Y108955D01*
X19851Y108314D01*
X20267Y108142D01*
Y107600D01*
X19851Y107428D01*
X19015Y106787D01*
X18374Y105951D01*
X18202Y105535D01*
X17661D01*
X17488Y105951D01*
X16847Y106787D01*
X16012Y107428D01*
X15039Y107831D01*
X13994Y107969D01*
X12950Y107831D01*
X11977Y107428D01*
X11141Y106787D01*
X10500Y105951D01*
X10097Y104978D01*
X9960Y103934D01*
X10097Y102890D01*
X10500Y101917D01*
X11141Y101081D01*
X11977Y100440D01*
X12950Y100037D01*
X13994Y99900D01*
X15039Y100037D01*
X15084Y100056D01*
X15094Y100056D01*
X15131Y100053D01*
X15183Y100042D01*
X15252Y100017D01*
X15341Y99975D01*
X15448Y99911D01*
X15571Y99823D01*
X15637Y99768D01*
X19167Y96238D01*
X19746Y95851D01*
X20428Y95716D01*
X68521D01*
X68669Y95701D01*
X68674Y95608D01*
Y84849D01*
X68674Y84849D01*
X68664Y84825D01*
X68644Y84792D01*
X68615Y84749D01*
X68575Y84697D01*
X68523Y84638D01*
X68520Y84634D01*
X68427Y84572D01*
X67945Y83851D01*
X67776Y83000D01*
X67945Y82149D01*
X68427Y81428D01*
X69149Y80945D01*
X70000Y80776D01*
X70851Y80945D01*
X71573Y81428D01*
X72054Y82149D01*
X72224Y83000D01*
X72054Y83851D01*
X71573Y84572D01*
X71480Y84634D01*
X71477Y84637D01*
X71425Y84697D01*
X71385Y84749D01*
X71356Y84792D01*
X71336Y84825D01*
X71325Y84849D01*
X71325Y84849D01*
Y95658D01*
X71327Y95706D01*
X71363Y95711D01*
X71428Y95716D01*
X72134D01*
X72418Y95216D01*
X72276Y94500D01*
X72445Y93649D01*
X72927Y92927D01*
X73649Y92445D01*
X74372Y92302D01*
X74381Y92296D01*
X74547Y91951D01*
X74570Y91791D01*
X74500Y91724D01*
X73649Y91554D01*
X72927Y91072D01*
X72445Y90351D01*
X72276Y89500D01*
X72445Y88649D01*
X72927Y87928D01*
X73649Y87445D01*
X74500Y87276D01*
X75351Y87445D01*
X76073Y87928D01*
X76555Y88649D01*
X76724Y89500D01*
X76702Y89609D01*
X76702Y89614D01*
X76708Y89692D01*
X76716Y89758D01*
X76726Y89809D01*
X76736Y89846D01*
X76744Y89870D01*
X78218Y91344D01*
X103620D01*
X104587Y90377D01*
X104341Y89916D01*
X104300Y89924D01*
X103449Y89754D01*
X102727Y89272D01*
X102666Y89180D01*
X102663Y89177D01*
X102603Y89125D01*
X102551Y89085D01*
X102508Y89056D01*
X102474Y89036D01*
X102451Y89025D01*
X102451Y89025D01*
X89100D01*
X88593Y88925D01*
X88163Y88637D01*
X78270Y78744D01*
X78246Y78736D01*
X78209Y78726D01*
X78158Y78716D01*
X78092Y78707D01*
X78014Y78702D01*
X78009Y78702D01*
X77900Y78724D01*
X77049Y78554D01*
X76328Y78073D01*
X75845Y77351D01*
X75676Y76500D01*
X75845Y75649D01*
X76328Y74928D01*
X77049Y74445D01*
X77900Y74276D01*
X78751Y74445D01*
X79473Y74928D01*
X79954Y75649D01*
X80124Y76500D01*
X80102Y76609D01*
X80102Y76614D01*
X80107Y76692D01*
X80116Y76758D01*
X80126Y76809D01*
X80136Y76846D01*
X80144Y76870D01*
X89649Y86374D01*
X102451D01*
X102451Y86374D01*
X102474Y86364D01*
X102508Y86344D01*
X102551Y86315D01*
X102603Y86275D01*
X102662Y86223D01*
X102666Y86220D01*
X102727Y86128D01*
X103449Y85646D01*
X104300Y85476D01*
X105151Y85646D01*
X105872Y86128D01*
X106354Y86849D01*
X106524Y87700D01*
X106516Y87741D01*
X106976Y87987D01*
X135001Y59963D01*
X135431Y59675D01*
X135938Y59575D01*
X151551D01*
X172563Y38563D01*
X172993Y38275D01*
X173500Y38175D01*
X193000D01*
X193507Y38275D01*
X193937Y38563D01*
X203130Y47756D01*
X203154Y47764D01*
X203191Y47774D01*
X203242Y47784D01*
X203308Y47793D01*
X203386Y47798D01*
X203391Y47798D01*
X203500Y47776D01*
X204351Y47945D01*
X205072Y48428D01*
X205555Y49149D01*
X205724Y50000D01*
X205555Y50851D01*
X205072Y51573D01*
X204351Y52055D01*
X203500Y52224D01*
X202649Y52055D01*
X201927Y51573D01*
X201446Y50851D01*
X201276Y50000D01*
X201298Y49891D01*
X201298Y49886D01*
X201292Y49808D01*
X201284Y49742D01*
X201274Y49691D01*
X201264Y49654D01*
X201255Y49630D01*
X192451Y40826D01*
X188230D01*
X188211Y41326D01*
X189283Y41410D01*
X190967Y41814D01*
X192567Y42477D01*
X194043Y43381D01*
X195360Y44506D01*
X196484Y45822D01*
X197389Y47299D01*
X198051Y48898D01*
X198455Y50582D01*
X198591Y52308D01*
X198455Y54034D01*
X198051Y55718D01*
X197389Y57317D01*
X196484Y58794D01*
X195360Y60110D01*
X194043Y61235D01*
X192567Y62139D01*
X190967Y62802D01*
X189283Y63206D01*
X187557Y63342D01*
X185831Y63206D01*
X184148Y62802D01*
X182548Y62139D01*
X181515Y61506D01*
X181091Y61833D01*
X181224Y62500D01*
X181054Y63351D01*
X180666Y63932D01*
X180929Y64390D01*
X181500Y64276D01*
X182351Y64446D01*
X183072Y64928D01*
X183554Y65649D01*
X183724Y66500D01*
X183554Y67351D01*
X183072Y68072D01*
X182351Y68555D01*
X181500Y68724D01*
X180649Y68555D01*
X180251Y68289D01*
X180183Y68284D01*
X153255D01*
X152851Y68555D01*
X152000Y68724D01*
X151149Y68555D01*
X150751Y68289D01*
X150683Y68284D01*
X136239D01*
X131349Y73175D01*
X131556Y73674D01*
X145151D01*
X145151Y73674D01*
X145175Y73664D01*
X145208Y73644D01*
X145251Y73615D01*
X145303Y73575D01*
X145362Y73523D01*
X145366Y73520D01*
X145428Y73427D01*
X146149Y72945D01*
X147000Y72776D01*
X147851Y72945D01*
X148573Y73427D01*
X149055Y74149D01*
X149224Y75000D01*
X149055Y75851D01*
X148573Y76573D01*
X147851Y77055D01*
X147000Y77224D01*
X146149Y77055D01*
X145428Y76573D01*
X145366Y76480D01*
X145362Y76477D01*
X145303Y76425D01*
X145251Y76385D01*
X145208Y76356D01*
X145175Y76336D01*
X145151Y76326D01*
X145151Y76326D01*
X131786D01*
X123183Y84929D01*
X123429Y85390D01*
X124000Y85276D01*
X124851Y85445D01*
X125573Y85927D01*
X125634Y86020D01*
X125637Y86023D01*
X125697Y86075D01*
X125749Y86115D01*
X125792Y86144D01*
X125826Y86164D01*
X125849Y86174D01*
X125849Y86174D01*
X141451D01*
X156563Y71063D01*
X156993Y70775D01*
X157500Y70675D01*
X176651D01*
X176651Y70675D01*
X176674Y70664D01*
X176708Y70644D01*
X176751Y70615D01*
X176803Y70575D01*
X176862Y70523D01*
X176866Y70520D01*
X176927Y70428D01*
X177649Y69946D01*
X178500Y69776D01*
X179351Y69946D01*
X180072Y70428D01*
X180554Y71149D01*
X180724Y72000D01*
X180554Y72851D01*
X180072Y73572D01*
X179351Y74054D01*
X178500Y74224D01*
X177649Y74054D01*
X176927Y73572D01*
X176866Y73480D01*
X176863Y73477D01*
X176803Y73425D01*
X176751Y73385D01*
X176708Y73356D01*
X176674Y73336D01*
X176651Y73326D01*
X176651Y73326D01*
X158049D01*
X143200Y88174D01*
X143407Y88674D01*
X155929D01*
X156080Y88174D01*
X155928Y88073D01*
X155446Y87351D01*
X155376Y87000D01*
X157500D01*
Y86500D01*
X158000D01*
Y84376D01*
X158351Y84446D01*
X159072Y84927D01*
X159427D01*
X160149Y84446D01*
X160500Y84376D01*
Y86500D01*
X161000D01*
Y87000D01*
X163124D01*
X163055Y87351D01*
X162573Y88073D01*
X162420Y88174D01*
X162572Y88674D01*
X163102D01*
X163510Y88593D01*
X164340D01*
X164607Y88093D01*
X164445Y87851D01*
X164276Y87000D01*
X164445Y86149D01*
X164927Y85427D01*
X165649Y84945D01*
X166500Y84776D01*
X167351Y84945D01*
X168072Y85427D01*
X168134Y85520D01*
X168138Y85523D01*
X168197Y85575D01*
X168249Y85615D01*
X168292Y85644D01*
X168325Y85664D01*
X168349Y85675D01*
X168349Y85675D01*
X168951D01*
X175669Y78957D01*
X175598Y78851D01*
X175429Y78000D01*
X175598Y77149D01*
X176080Y76428D01*
X176802Y75946D01*
X177653Y75776D01*
X178504Y75946D01*
X179225Y76428D01*
X179707Y77149D01*
X179731Y77271D01*
X180210Y77416D01*
X181564Y76062D01*
X181582Y76035D01*
X212554Y45063D01*
X212984Y44775D01*
X213491Y44675D01*
X289151D01*
X289151Y44675D01*
X289175Y44664D01*
X289208Y44644D01*
X289251Y44615D01*
X289303Y44575D01*
X289362Y44523D01*
X289366Y44520D01*
X289427Y44427D01*
X290149Y43945D01*
X291000Y43776D01*
X291851Y43945D01*
X292572Y44427D01*
X293055Y45149D01*
X293224Y46000D01*
X293055Y46851D01*
X292572Y47572D01*
X291851Y48055D01*
X291000Y48224D01*
X290149Y48055D01*
X289427Y47572D01*
X289366Y47480D01*
X289363Y47477D01*
X289303Y47425D01*
X289251Y47385D01*
X289208Y47356D01*
X289175Y47336D01*
X289151Y47326D01*
X289151Y47326D01*
X261616D01*
X261425Y47787D01*
X272037Y58400D01*
X272325Y58830D01*
X272426Y59337D01*
Y73288D01*
X279312Y80174D01*
X281593D01*
X281800Y79675D01*
X276370Y74244D01*
X276346Y74236D01*
X276309Y74226D01*
X276258Y74216D01*
X276192Y74208D01*
X276114Y74202D01*
X276109Y74202D01*
X276000Y74224D01*
X275149Y74054D01*
X274428Y73572D01*
X273945Y72851D01*
X273776Y72000D01*
X273945Y71149D01*
X274428Y70428D01*
X275149Y69946D01*
X276000Y69776D01*
X276851Y69946D01*
X277572Y70428D01*
X278055Y71149D01*
X278224Y72000D01*
X278202Y72109D01*
X278202Y72114D01*
X278207Y72193D01*
X278216Y72258D01*
X278226Y72309D01*
X278236Y72346D01*
X278244Y72370D01*
X283549Y77675D01*
X288151D01*
X288151Y77675D01*
X288175Y77664D01*
X288208Y77644D01*
X288251Y77615D01*
X288303Y77575D01*
X288362Y77523D01*
X288366Y77520D01*
X288427Y77428D01*
X289149Y76946D01*
X290000Y76776D01*
X290851Y76946D01*
X291572Y77428D01*
X291634Y77520D01*
X291637Y77523D01*
X291697Y77575D01*
X291749Y77615D01*
X291792Y77644D01*
X291826Y77664D01*
X291849Y77675D01*
X291849Y77675D01*
X293451D01*
X305675Y65451D01*
Y56000D01*
Y36349D01*
X305675Y36349D01*
X305664Y36325D01*
X305644Y36292D01*
X305615Y36249D01*
X305575Y36197D01*
X305523Y36138D01*
X305520Y36134D01*
X305428Y36072D01*
X304945Y35351D01*
X304776Y34500D01*
X304945Y33649D01*
X305428Y32928D01*
X306149Y32445D01*
X307000Y32276D01*
X307851Y32445D01*
X308573Y32928D01*
X308750Y33193D01*
X309250D01*
X309427Y32928D01*
X310149Y32445D01*
X311000Y32276D01*
X311851Y32445D01*
X312573Y32928D01*
X312634Y33020D01*
X312637Y33023D01*
X312697Y33075D01*
X312749Y33115D01*
X312792Y33144D01*
X312825Y33164D01*
X312849Y33174D01*
X312849Y33174D01*
X332000D01*
X332507Y33275D01*
X332937Y33563D01*
X343937Y44563D01*
X344225Y44993D01*
X344325Y45500D01*
Y67651D01*
X344325Y67651D01*
X344336Y67674D01*
X344356Y67708D01*
X344385Y67751D01*
X344425Y67803D01*
X344750Y67883D01*
X345075Y67803D01*
X345115Y67751D01*
X345144Y67708D01*
X345164Y67674D01*
X345175Y67651D01*
X345175Y67651D01*
Y44349D01*
X345175Y44349D01*
X345164Y44326D01*
X345144Y44292D01*
X345115Y44249D01*
X345075Y44197D01*
X345023Y44138D01*
X345020Y44134D01*
X344928Y44072D01*
X344445Y43351D01*
X344276Y42500D01*
X344445Y41649D01*
X344928Y40927D01*
X345649Y40445D01*
X346500Y40276D01*
X347351Y40445D01*
X348073Y40927D01*
X348555Y41649D01*
X348724Y42500D01*
X348555Y43351D01*
X348073Y44072D01*
X347980Y44134D01*
X347977Y44137D01*
X347925Y44197D01*
X347885Y44249D01*
X347856Y44292D01*
X347836Y44326D01*
X347826Y44349D01*
X347826Y44349D01*
Y67651D01*
X347826Y67651D01*
X347836Y67674D01*
X347856Y67708D01*
X347885Y67751D01*
X347925Y67803D01*
X347977Y67862D01*
X347980Y67866D01*
X348073Y67927D01*
X348555Y68649D01*
X348724Y69500D01*
X348555Y70351D01*
X348073Y71073D01*
X347351Y71554D01*
X346500Y71724D01*
X345649Y71554D01*
X344928Y71073D01*
X344572D01*
X343851Y71554D01*
X343000Y71724D01*
X342149Y71554D01*
X341427Y71073D01*
X340945Y70351D01*
X340776Y69500D01*
X340945Y68649D01*
X341427Y67927D01*
X341520Y67866D01*
X341523Y67862D01*
X341575Y67803D01*
X341615Y67751D01*
X341644Y67708D01*
X341664Y67674D01*
X341674Y67651D01*
X341674Y67651D01*
Y46049D01*
X331451Y35825D01*
X312849D01*
X312849Y35825D01*
X312825Y35836D01*
X312792Y35856D01*
X312749Y35885D01*
X312697Y35925D01*
X312638Y35977D01*
X312634Y35980D01*
X312573Y36072D01*
X311851Y36555D01*
X311000Y36724D01*
X310149Y36555D01*
X309427Y36072D01*
X309250Y35807D01*
X308750D01*
X308573Y36072D01*
X308480Y36134D01*
X308477Y36138D01*
X308425Y36197D01*
X308385Y36249D01*
X308356Y36292D01*
X308336Y36325D01*
X308326Y36349D01*
X308326Y36349D01*
Y54675D01*
X311651D01*
X311651Y54675D01*
X311674Y54664D01*
X311708Y54644D01*
X311751Y54615D01*
X311803Y54575D01*
X311862Y54523D01*
X311866Y54520D01*
X311928Y54427D01*
X312649Y53945D01*
X313500Y53776D01*
X314351Y53945D01*
X315072Y54427D01*
X315555Y55149D01*
X315724Y56000D01*
X315555Y56851D01*
X315072Y57573D01*
X314351Y58055D01*
X313500Y58224D01*
X312649Y58055D01*
X311928Y57573D01*
X311866Y57480D01*
X311862Y57477D01*
X311803Y57425D01*
X311751Y57385D01*
X311708Y57356D01*
X311674Y57336D01*
X311651Y57326D01*
X311651Y57326D01*
X308326D01*
Y65147D01*
X308787Y65338D01*
X318674Y55451D01*
Y53349D01*
X318674Y53349D01*
X318664Y53325D01*
X318644Y53292D01*
X318615Y53249D01*
X318575Y53197D01*
X318523Y53138D01*
X318520Y53134D01*
X318427Y53073D01*
X317945Y52351D01*
X317776Y51500D01*
X317945Y50649D01*
X318427Y49927D01*
X319149Y49445D01*
X320000Y49276D01*
X320851Y49445D01*
X321572Y49927D01*
X322055Y50649D01*
X322224Y51500D01*
X322055Y52351D01*
X321572Y53073D01*
X321480Y53134D01*
X321477Y53137D01*
X321425Y53197D01*
X321385Y53249D01*
X321356Y53292D01*
X321336Y53325D01*
X321325Y53349D01*
X321325Y53349D01*
Y56000D01*
X321225Y56507D01*
X320937Y56937D01*
X295561Y82313D01*
X295572Y82428D01*
X296055Y83149D01*
X296224Y84000D01*
X296055Y84851D01*
X295572Y85572D01*
X294851Y86054D01*
X294000Y86224D01*
X293149Y86054D01*
X292427Y85572D01*
X292366Y85480D01*
X292362Y85477D01*
X292303Y85425D01*
X292251Y85385D01*
X292208Y85356D01*
X292175Y85336D01*
X292151Y85325D01*
X292151Y85325D01*
X290800D01*
X290751Y85826D01*
X290851Y85846D01*
X291572Y86327D01*
X292055Y87049D01*
X292224Y87900D01*
X292055Y88751D01*
X291763Y89188D01*
X293986Y91412D01*
X293988Y91414D01*
X306551Y103978D01*
X314948D01*
X314948Y103978D01*
X314971Y103967D01*
X315005Y103948D01*
X315048Y103919D01*
X315100Y103878D01*
X315159Y103826D01*
X315163Y103823D01*
X315224Y103731D01*
X315946Y103249D01*
X316797Y103079D01*
X317648Y103249D01*
X318369Y103731D01*
X318851Y104452D01*
X319021Y105303D01*
X318851Y106154D01*
X318369Y106876D01*
X317648Y107358D01*
X316797Y107527D01*
X315946Y107358D01*
X315224Y106876D01*
X315163Y106783D01*
X315159Y106780D01*
X315100Y106728D01*
X315048Y106688D01*
X315005Y106659D01*
X314971Y106640D01*
X314948Y106629D01*
X314948Y106629D01*
X307605D01*
X307414Y107091D01*
X309539Y109216D01*
X314345D01*
X314749Y108946D01*
X315600Y108776D01*
X316451Y108946D01*
X317173Y109427D01*
X317655Y110149D01*
X317824Y111000D01*
X317655Y111851D01*
X317173Y112573D01*
X316451Y113055D01*
X315600Y113224D01*
X314749Y113055D01*
X314351Y112789D01*
X314283Y112784D01*
X308800D01*
X308800Y112784D01*
X308117Y112648D01*
X307538Y112262D01*
X307538Y112262D01*
X291561Y96284D01*
X276956D01*
X276551Y96554D01*
X275700Y96724D01*
X274849Y96554D01*
X274128Y96073D01*
X273645Y95351D01*
X273476Y94500D01*
X273645Y93649D01*
X274128Y92927D01*
X274849Y92445D01*
X275700Y92276D01*
X276551Y92445D01*
X276949Y92711D01*
X277017Y92716D01*
X290888D01*
X291079Y92254D01*
X289063Y90237D01*
X288775Y89807D01*
X288752Y89689D01*
X288427Y89473D01*
X287945Y88751D01*
X287776Y87900D01*
X287945Y87049D01*
X288427Y86327D01*
X289149Y85846D01*
X289249Y85826D01*
X289200Y85325D01*
X279000D01*
X278493Y85225D01*
X278063Y84937D01*
X268563Y75437D01*
X268275Y75007D01*
X268175Y74500D01*
Y60549D01*
X258951Y51326D01*
X217049D01*
X189011Y79364D01*
X189257Y79825D01*
X189500Y79776D01*
X190351Y79945D01*
X191072Y80427D01*
X191554Y81149D01*
X191724Y82000D01*
X191702Y82109D01*
X191702Y82114D01*
X191708Y82192D01*
X191716Y82258D01*
X191726Y82309D01*
X191736Y82346D01*
X191744Y82370D01*
X218549Y109175D01*
X291651D01*
X291651Y109175D01*
X291674Y109164D01*
X291708Y109144D01*
X291751Y109115D01*
X291803Y109075D01*
X291862Y109023D01*
X291866Y109020D01*
X291928Y108928D01*
X292649Y108446D01*
X293500Y108276D01*
X294351Y108446D01*
X295073Y108928D01*
X295555Y109649D01*
X295724Y110500D01*
X295555Y111351D01*
X295073Y112073D01*
X294351Y112555D01*
X293500Y112724D01*
X292649Y112555D01*
X291928Y112073D01*
X291866Y111980D01*
X291863Y111977D01*
X291803Y111925D01*
X291751Y111885D01*
X291708Y111856D01*
X291674Y111836D01*
X291651Y111826D01*
X291651Y111826D01*
X218000D01*
X217493Y111725D01*
X217063Y111437D01*
X189870Y84244D01*
X189846Y84236D01*
X189809Y84226D01*
X189758Y84216D01*
X189692Y84207D01*
X189614Y84202D01*
X189609Y84202D01*
X189500Y84224D01*
X188649Y84054D01*
X187927Y83573D01*
X187445Y82851D01*
X187276Y82000D01*
X187322Y81768D01*
X186862Y81522D01*
X176209Y92175D01*
X176416Y92674D01*
X191391D01*
X191410Y92668D01*
X191445Y92653D01*
X191491Y92630D01*
X191535Y92603D01*
X191615Y92546D01*
X191628Y92528D01*
X191737Y92454D01*
X191781Y92418D01*
X191833Y92390D01*
X192349Y92045D01*
X193200Y91876D01*
X194051Y92045D01*
X194773Y92528D01*
X195255Y93249D01*
X195424Y94100D01*
X195255Y94951D01*
X194831Y95585D01*
X194918Y95644D01*
X211237Y111963D01*
X211525Y112393D01*
X211626Y112900D01*
Y119101D01*
X212125Y119252D01*
X212172Y119183D01*
X212893Y118701D01*
X213744Y118532D01*
X214595Y118701D01*
X215317Y119183D01*
X215799Y119905D01*
X215968Y120756D01*
X215799Y121607D01*
X215317Y122328D01*
X215224Y122390D01*
X215221Y122393D01*
X215169Y122453D01*
X215129Y122505D01*
X215100Y122548D01*
X215080Y122581D01*
X215070Y122605D01*
X215070Y122605D01*
Y128895D01*
X215070Y128895D01*
X215080Y128919D01*
X215100Y128952D01*
X215129Y128995D01*
X215169Y129047D01*
X215221Y129106D01*
X215224Y129110D01*
X215317Y129172D01*
X215799Y129893D01*
X215968Y130744D01*
X215799Y131595D01*
X215317Y132317D01*
X214595Y132799D01*
X214346Y132848D01*
X214201Y133327D01*
X227630Y146756D01*
X227654Y146764D01*
X227691Y146774D01*
X227742Y146784D01*
X227807Y146792D01*
X227886Y146798D01*
X227891Y146798D01*
X228000Y146776D01*
X228851Y146946D01*
X229573Y147427D01*
X230055Y148149D01*
X230224Y149000D01*
X230055Y149851D01*
X229573Y150573D01*
X228851Y151055D01*
X228000Y151224D01*
X227149Y151055D01*
X226428Y150573D01*
X225945Y149851D01*
X225776Y149000D01*
X225798Y148891D01*
X225798Y148886D01*
X225793Y148808D01*
X225784Y148742D01*
X225774Y148691D01*
X225764Y148654D01*
X225756Y148630D01*
X209363Y132237D01*
X209075Y131807D01*
X208975Y131300D01*
Y113449D01*
X193432Y97907D01*
X192172D01*
X191860Y97844D01*
X177407D01*
X177093Y98344D01*
X177224Y99000D01*
X177055Y99851D01*
X176573Y100573D01*
X176480Y100634D01*
X176477Y100637D01*
X176425Y100697D01*
X176385Y100749D01*
X176356Y100792D01*
X176336Y100826D01*
X176326Y100849D01*
X176326Y100849D01*
Y141500D01*
X176225Y142007D01*
X176148Y142121D01*
X176224Y142500D01*
X176055Y143351D01*
X175573Y144072D01*
X174851Y144554D01*
X174000Y144724D01*
X173891Y144702D01*
X173886Y144702D01*
X173808Y144708D01*
X173742Y144716D01*
X173691Y144726D01*
X173654Y144736D01*
X173630Y144745D01*
X172326Y146049D01*
Y149754D01*
X172799Y149915D01*
X172957Y149708D01*
X173865Y149011D01*
X174923Y148574D01*
X176057Y148424D01*
X177192Y148574D01*
X178249Y149011D01*
X179157Y149708D01*
X179201Y149765D01*
X179674Y149604D01*
Y143500D01*
X179775Y142993D01*
X180063Y142563D01*
X181356Y141270D01*
Y110030D01*
X181356Y110030D01*
X181345Y110007D01*
X181325Y109973D01*
X181296Y109930D01*
X181256Y109878D01*
X181204Y109819D01*
X181201Y109815D01*
X181109Y109754D01*
X180626Y109032D01*
X180457Y108181D01*
X180626Y107330D01*
X181109Y106609D01*
X181830Y106126D01*
X182681Y105957D01*
X183532Y106126D01*
X184254Y106609D01*
X184736Y107330D01*
X184905Y108181D01*
X184736Y109032D01*
X184254Y109754D01*
X184161Y109815D01*
X184158Y109819D01*
X184106Y109878D01*
X184066Y109930D01*
X184037Y109973D01*
X184018Y110007D01*
X184007Y110030D01*
X184007Y110030D01*
Y141819D01*
X183906Y142326D01*
X183618Y142756D01*
X182325Y144049D01*
Y148462D01*
X190404D01*
Y157155D01*
X182325D01*
Y184500D01*
Y187865D01*
X182225Y188373D01*
X181937Y188803D01*
X180767Y189973D01*
X180763Y189977D01*
X180725Y190045D01*
X180670Y190181D01*
X180610Y190383D01*
X180553Y190646D01*
X180507Y190946D01*
X180424Y192258D01*
X180423Y192673D01*
X180441Y192808D01*
X180292Y193943D01*
X179854Y195000D01*
X179157Y195908D01*
X178249Y196605D01*
X177192Y197043D01*
X176057Y197192D01*
X174923Y197043D01*
X173865Y196605D01*
X172957Y195908D01*
X172261Y195000D01*
X171823Y193943D01*
X171673Y192808D01*
X171823Y191673D01*
X172261Y190616D01*
X172957Y189708D01*
X173865Y189011D01*
X174923Y188574D01*
X176057Y188424D01*
X176183Y188441D01*
X177097Y188426D01*
X177910Y188359D01*
X178219Y188312D01*
X178482Y188256D01*
X178684Y188196D01*
X178820Y188140D01*
X178888Y188102D01*
X178893Y188098D01*
X179674Y187316D01*
Y185826D01*
X161349D01*
X161349Y185826D01*
X161326Y185836D01*
X161292Y185856D01*
X161249Y185885D01*
X161197Y185925D01*
X161138Y185977D01*
X161134Y185980D01*
X161073Y186073D01*
X160351Y186555D01*
X159500Y186724D01*
X158649Y186555D01*
X157928Y186073D01*
X157883Y186005D01*
X157383Y186157D01*
Y187473D01*
X157383Y187478D01*
X157404Y187554D01*
X157461Y187689D01*
X157562Y187874D01*
X157708Y188100D01*
X157887Y188345D01*
X158756Y189331D01*
X159049Y189625D01*
X159157Y189708D01*
X159854Y190616D01*
X160292Y191673D01*
X160441Y192808D01*
X160292Y193943D01*
X159854Y195000D01*
X159157Y195908D01*
X158249Y196605D01*
X157192Y197043D01*
X156057Y197192D01*
X154923Y197043D01*
X153865Y196605D01*
X152957Y195908D01*
X152261Y195000D01*
X151823Y193943D01*
X151673Y192808D01*
X151823Y191673D01*
X152261Y190616D01*
X152957Y189708D01*
X153058Y189631D01*
X153694Y188974D01*
X154221Y188353D01*
X154407Y188100D01*
X154553Y187874D01*
X154653Y187689D01*
X154710Y187554D01*
X154731Y187478D01*
X154732Y187473D01*
Y180443D01*
X154833Y179936D01*
X155120Y179506D01*
X158756Y175870D01*
X158764Y175846D01*
X158774Y175809D01*
X158784Y175758D01*
X158792Y175692D01*
X158798Y175614D01*
X158798Y175609D01*
X158776Y175500D01*
X158946Y174649D01*
X158971Y174610D01*
X158583Y174292D01*
X145744Y187130D01*
X145736Y187154D01*
X145726Y187191D01*
X145716Y187242D01*
X145707Y187308D01*
X145702Y187386D01*
X145702Y187391D01*
X145724Y187500D01*
X145629Y187976D01*
X146050Y188425D01*
X146057Y188424D01*
X147192Y188574D01*
X148249Y189011D01*
X149157Y189708D01*
X149854Y190616D01*
X150292Y191673D01*
X150441Y192808D01*
X150292Y193943D01*
X149854Y195000D01*
X149157Y195908D01*
X148249Y196605D01*
X147192Y197043D01*
X146057Y197192D01*
X144923Y197043D01*
X143865Y196605D01*
X142957Y195908D01*
X142261Y195000D01*
X141823Y193943D01*
X141673Y192808D01*
X141823Y191673D01*
X142261Y190616D01*
X142679Y190070D01*
X142671Y189936D01*
X142514Y189464D01*
X141928Y189073D01*
X141556Y188517D01*
X140981Y188385D01*
X140036Y189330D01*
X140018Y189352D01*
X139988Y189406D01*
X139955Y189499D01*
X139927Y189640D01*
X139912Y189833D01*
X139919Y190076D01*
X139949Y190352D01*
X140105Y191095D01*
X140229Y191519D01*
X140229Y191521D01*
X140292Y191673D01*
X140441Y192808D01*
X140292Y193943D01*
X139854Y195000D01*
X139157Y195908D01*
X138249Y196605D01*
X137192Y197043D01*
X136057Y197192D01*
X134923Y197043D01*
X133865Y196605D01*
X132957Y195908D01*
X132261Y195000D01*
X131823Y193943D01*
X131673Y192808D01*
X131823Y191673D01*
X132261Y190616D01*
X132957Y189708D01*
X133865Y189011D01*
X134923Y188574D01*
X135027Y188560D01*
X135452Y188434D01*
X137355Y187823D01*
X137910Y187611D01*
X138063Y187542D01*
X138089Y187528D01*
X145394Y180223D01*
X145266Y179644D01*
X144720Y179279D01*
X144238Y178558D01*
X144069Y177707D01*
X144238Y176856D01*
X144720Y176135D01*
X145442Y175653D01*
X146293Y175483D01*
X146402Y175505D01*
X146407Y175505D01*
X146485Y175499D01*
X146551Y175491D01*
X146602Y175481D01*
X146639Y175471D01*
X146663Y175463D01*
X149674Y172451D01*
Y156012D01*
X149201Y155851D01*
X149157Y155908D01*
X148249Y156605D01*
X147192Y157043D01*
X146057Y157192D01*
X144923Y157043D01*
X143865Y156605D01*
X142957Y155908D01*
X142261Y155000D01*
X141823Y153943D01*
X141673Y152808D01*
X141823Y151673D01*
X142261Y150616D01*
X142957Y149708D01*
X143865Y149011D01*
X144923Y148574D01*
X146057Y148424D01*
X147192Y148574D01*
X148249Y149011D01*
X149157Y149708D01*
X149319Y149919D01*
X149883Y149832D01*
X150063Y149563D01*
X152256Y147370D01*
X152264Y147346D01*
X152274Y147309D01*
X152284Y147258D01*
X152293Y147193D01*
X152298Y147114D01*
X152298Y147109D01*
X152276Y147000D01*
X152445Y146149D01*
X152927Y145428D01*
X153080Y145326D01*
X152928Y144825D01*
X146500D01*
X145993Y144725D01*
X145563Y144437D01*
X142370Y141244D01*
X142346Y141236D01*
X142309Y141226D01*
X142258Y141216D01*
X142192Y141208D01*
X142114Y141202D01*
X142109Y141202D01*
X142000Y141224D01*
X141149Y141054D01*
X140427Y140573D01*
X139945Y139851D01*
X139776Y139000D01*
X139945Y138149D01*
X140427Y137427D01*
X141149Y136945D01*
X142000Y136776D01*
X142851Y136945D01*
X143572Y137427D01*
X144054Y138149D01*
X144224Y139000D01*
X144202Y139109D01*
X144202Y139114D01*
X144208Y139192D01*
X144216Y139258D01*
X144226Y139309D01*
X144236Y139346D01*
X144245Y139370D01*
X147049Y142174D01*
X152928D01*
X153080Y141674D01*
X152927Y141572D01*
X152445Y140851D01*
X152276Y140000D01*
X152445Y139149D01*
X152927Y138427D01*
X153020Y138366D01*
X153023Y138363D01*
X153075Y138303D01*
X153115Y138251D01*
X153144Y138208D01*
X153164Y138174D01*
X153174Y138151D01*
X153174Y138151D01*
Y127500D01*
X153275Y126993D01*
X153563Y126563D01*
X156543Y123582D01*
X156398Y123104D01*
X156149Y123055D01*
X155428Y122573D01*
X154946Y121851D01*
X154776Y121000D01*
X154946Y120149D01*
X155428Y119428D01*
X155520Y119366D01*
X155523Y119362D01*
X155575Y119303D01*
X155615Y119251D01*
X155644Y119208D01*
X155664Y119175D01*
X155675Y119151D01*
X155675Y119151D01*
Y106500D01*
X155775Y105993D01*
X156063Y105563D01*
X162256Y99370D01*
X162264Y99346D01*
X162274Y99309D01*
X162284Y99258D01*
X162293Y99193D01*
X162298Y99114D01*
X162298Y99109D01*
X162276Y99000D01*
X162390Y98426D01*
X162039Y97926D01*
X122149D01*
X122149Y97926D01*
X122125Y97936D01*
X122092Y97956D01*
X122049Y97985D01*
X121997Y98025D01*
X121938Y98077D01*
X121934Y98080D01*
X121872Y98172D01*
X121151Y98655D01*
X120300Y98824D01*
X119449Y98655D01*
X118728Y98172D01*
X118245Y97451D01*
X118076Y96600D01*
X118245Y95749D01*
X118728Y95028D01*
X119449Y94546D01*
X120300Y94376D01*
X121151Y94546D01*
X121872Y95028D01*
X121934Y95120D01*
X121938Y95123D01*
X121997Y95175D01*
X122049Y95215D01*
X122092Y95244D01*
X122125Y95264D01*
X122149Y95275D01*
X122149Y95275D01*
X162827D01*
X163054Y94973D01*
X163136Y94804D01*
X162976Y94000D01*
X163091Y93426D01*
X162739Y92926D01*
X119712D01*
X113309Y99328D01*
X113474Y99870D01*
X113851Y99945D01*
X114573Y100427D01*
X114634Y100520D01*
X114637Y100523D01*
X114697Y100575D01*
X114749Y100615D01*
X114792Y100644D01*
X114825Y100664D01*
X114849Y100674D01*
X114849Y100674D01*
X146000D01*
X146507Y100775D01*
X146937Y101063D01*
X152937Y107063D01*
X153225Y107493D01*
X153325Y108000D01*
Y114651D01*
X153325Y114651D01*
X153336Y114674D01*
X153356Y114708D01*
X153385Y114751D01*
X153425Y114803D01*
X153477Y114862D01*
X153480Y114866D01*
X153572Y114927D01*
X154054Y115649D01*
X154224Y116500D01*
X154054Y117351D01*
X153572Y118072D01*
X152851Y118554D01*
X152000Y118724D01*
X151149Y118554D01*
X150427Y118072D01*
X149945Y117351D01*
X149776Y116500D01*
X149945Y115649D01*
X150427Y114927D01*
X150520Y114866D01*
X150523Y114863D01*
X150575Y114803D01*
X150615Y114751D01*
X150644Y114708D01*
X150664Y114674D01*
X150674Y114651D01*
X150674Y114651D01*
Y108549D01*
X145451Y103325D01*
X114849D01*
X114849Y103325D01*
X114825Y103336D01*
X114792Y103356D01*
X114749Y103385D01*
X114697Y103425D01*
X114617Y103750D01*
X114697Y104075D01*
X114749Y104115D01*
X114792Y104144D01*
X114825Y104164D01*
X114849Y104174D01*
X114849Y104174D01*
X142500D01*
X143007Y104275D01*
X143437Y104563D01*
X147937Y109063D01*
X148225Y109493D01*
X148326Y110000D01*
Y114651D01*
X148326Y114651D01*
X148336Y114674D01*
X148356Y114708D01*
X148385Y114751D01*
X148425Y114803D01*
X148477Y114862D01*
X148480Y114866D01*
X148573Y114927D01*
X149055Y115649D01*
X149224Y116500D01*
X149055Y117351D01*
X148573Y118072D01*
X147851Y118554D01*
X147000Y118724D01*
X146149Y118554D01*
X145428Y118072D01*
X144946Y117351D01*
X144776Y116500D01*
X144946Y115649D01*
X145428Y114927D01*
X145520Y114866D01*
X145523Y114863D01*
X145575Y114803D01*
X145615Y114751D01*
X145644Y114708D01*
X145664Y114674D01*
X145675Y114651D01*
X145675Y114651D01*
Y110549D01*
X141951Y106825D01*
X114849D01*
X114849Y106825D01*
X114825Y106836D01*
X114792Y106856D01*
X114749Y106885D01*
X114697Y106925D01*
X114638Y106977D01*
X114634Y106980D01*
X114573Y107072D01*
X113851Y107554D01*
X113172Y107690D01*
X112887Y107887D01*
X112690Y108172D01*
X112555Y108851D01*
X112073Y109573D01*
X111351Y110055D01*
X110500Y110224D01*
X110257Y110176D01*
X110011Y110636D01*
X111437Y112063D01*
X111725Y112493D01*
X111826Y113000D01*
Y124151D01*
X111826Y124151D01*
X111836Y124174D01*
X111856Y124208D01*
X111885Y124251D01*
X111925Y124303D01*
X111977Y124362D01*
X111980Y124366D01*
X112073Y124427D01*
X112555Y125149D01*
X112724Y126000D01*
X112610Y126573D01*
X112604Y126644D01*
X112585Y126711D01*
X119456Y133582D01*
X119744Y134012D01*
X119844Y134519D01*
Y181658D01*
X119846Y181662D01*
X119857Y181687D01*
X119878Y181723D01*
X119908Y181768D01*
X119948Y181823D01*
X119992Y181874D01*
X120072Y181928D01*
X120554Y182649D01*
X120724Y183500D01*
X120554Y184351D01*
X120072Y185073D01*
X119992Y185126D01*
X119949Y185177D01*
X119907Y185232D01*
X119878Y185277D01*
X119858Y185313D01*
X119846Y185338D01*
X119844Y185342D01*
Y213462D01*
X123904D01*
Y222154D01*
X115211D01*
Y213462D01*
X117193D01*
Y185356D01*
X117185Y185338D01*
X117166Y185307D01*
X117139Y185266D01*
X117099Y185217D01*
X117048Y185160D01*
X117028Y185140D01*
X116928Y185073D01*
X116446Y184351D01*
X116276Y183500D01*
X116446Y182649D01*
X116928Y181928D01*
X117028Y181860D01*
X117048Y181841D01*
X117099Y181783D01*
X117139Y181734D01*
X117166Y181693D01*
X117185Y181662D01*
X117193Y181644D01*
Y174300D01*
X117190Y174294D01*
Y174294D01*
X117178Y174277D01*
X116670Y174270D01*
X116660Y174320D01*
X116660Y174320D01*
X116554Y174851D01*
X116072Y175573D01*
X115351Y176055D01*
X114500Y176224D01*
X113649Y176055D01*
X112927Y175573D01*
X112445Y174851D01*
X112276Y174000D01*
X112445Y173149D01*
X112927Y172427D01*
X113020Y172366D01*
X113023Y172362D01*
X113075Y172303D01*
X113115Y172251D01*
X113144Y172208D01*
X113164Y172175D01*
X113174Y172151D01*
X113174Y172151D01*
Y135049D01*
X107063Y128937D01*
X106775Y128507D01*
X106675Y128000D01*
Y125321D01*
X106669Y125310D01*
X106652Y125282D01*
X106625Y125244D01*
X106587Y125198D01*
X106537Y125144D01*
X106494Y125102D01*
X106384Y125029D01*
X105902Y124308D01*
X105733Y123457D01*
X105902Y122606D01*
X106384Y121884D01*
X106477Y121822D01*
X106480Y121819D01*
X106532Y121760D01*
X106572Y121708D01*
X106601Y121665D01*
X106620Y121631D01*
X106631Y121608D01*
X106631Y121608D01*
Y113268D01*
X104963Y111600D01*
X104675Y111170D01*
X104575Y110663D01*
Y100337D01*
X104675Y99830D01*
X104730Y99748D01*
X104574Y99434D01*
X104439Y99284D01*
X101146D01*
X101107Y99310D01*
X100256Y99480D01*
X99405Y99310D01*
X99366Y99284D01*
X57979D01*
X57832Y99299D01*
X57825Y99392D01*
Y102651D01*
X57825Y102651D01*
X57836Y102674D01*
X57856Y102708D01*
X57885Y102751D01*
X57925Y102803D01*
X57977Y102862D01*
X57980Y102866D01*
X58073Y102927D01*
X58555Y103649D01*
X58724Y104500D01*
X58555Y105351D01*
X58073Y106072D01*
X57351Y106554D01*
X56500Y106724D01*
X56391Y106702D01*
X56386Y106702D01*
X56308Y106708D01*
X56242Y106716D01*
X56191Y106726D01*
X56154Y106736D01*
X56130Y106745D01*
X53750Y109125D01*
X53966Y109616D01*
X54659Y109754D01*
X55381Y110236D01*
X55442Y110328D01*
X55446Y110331D01*
X55505Y110383D01*
X55557Y110423D01*
X55600Y110452D01*
X55634Y110472D01*
X55657Y110483D01*
X55657Y110483D01*
X58337D01*
X58573Y110042D01*
X58446Y109851D01*
X58376Y109500D01*
X62624D01*
X62555Y109851D01*
X62427Y110042D01*
X62663Y110483D01*
X83808D01*
X84315Y110583D01*
X84745Y110871D01*
X92528Y118653D01*
X92552Y118662D01*
X92589Y118672D01*
X92640Y118682D01*
X92705Y118690D01*
X92784Y118695D01*
X92789Y118695D01*
X92898Y118674D01*
X93749Y118843D01*
X94470Y119325D01*
X94952Y120047D01*
X95122Y120898D01*
X94952Y121749D01*
X94470Y122470D01*
X93749Y122952D01*
X92898Y123122D01*
X92047Y122952D01*
X91325Y122470D01*
X90843Y121749D01*
X90674Y120898D01*
X90696Y120789D01*
X90696Y120784D01*
X90690Y120705D01*
X90682Y120640D01*
X90672Y120589D01*
X90662Y120552D01*
X90653Y120528D01*
X83259Y113134D01*
X55657D01*
X55657Y113134D01*
X55633Y113145D01*
X55600Y113164D01*
X55557Y113193D01*
X55505Y113233D01*
X55446Y113285D01*
X55442Y113288D01*
X55381Y113381D01*
X54893Y113706D01*
X54869Y114292D01*
X55072Y114427D01*
X55134Y114520D01*
X55137Y114523D01*
X55197Y114575D01*
X55249Y114615D01*
X55292Y114644D01*
X55326Y114664D01*
X55349Y114674D01*
X55349Y114674D01*
X78651D01*
X78651Y114674D01*
X78675Y114664D01*
X78708Y114644D01*
X78751Y114615D01*
X78803Y114575D01*
X78862Y114523D01*
X78866Y114520D01*
X78927Y114427D01*
X79649Y113945D01*
X80500Y113776D01*
X81351Y113945D01*
X82073Y114427D01*
X82555Y115149D01*
X82724Y116000D01*
X82555Y116851D01*
X82073Y117572D01*
X81351Y118054D01*
X80500Y118224D01*
X79649Y118054D01*
X78927Y117572D01*
X78866Y117480D01*
X78863Y117477D01*
X78803Y117425D01*
X78751Y117385D01*
X78708Y117356D01*
X78675Y117336D01*
X78651Y117325D01*
X78651Y117325D01*
X56797D01*
X56748Y117825D01*
X57351Y117946D01*
X58073Y118428D01*
X58555Y119149D01*
X58724Y120000D01*
X58590Y120675D01*
X58894Y121175D01*
X77801D01*
X78276Y121000D01*
X78446Y120149D01*
X78927Y119428D01*
X79649Y118946D01*
X80500Y118776D01*
X81351Y118946D01*
X82073Y119428D01*
X82555Y120149D01*
X82724Y121000D01*
X82555Y121851D01*
X82073Y122573D01*
X81351Y123055D01*
X80500Y123224D01*
X80391Y123202D01*
X80386Y123202D01*
X80308Y123207D01*
X80242Y123216D01*
X80191Y123226D01*
X80154Y123236D01*
X80130Y123245D01*
X79937Y123437D01*
X79507Y123725D01*
X79000Y123826D01*
X58606D01*
X58338Y124326D01*
X58555Y124649D01*
X58724Y125500D01*
X58555Y126351D01*
X58073Y127073D01*
X57351Y127555D01*
X56500Y127724D01*
X55649Y127555D01*
X54927Y127073D01*
X54866Y126980D01*
X54862Y126977D01*
X54803Y126925D01*
X54751Y126885D01*
X54708Y126856D01*
X54675Y126836D01*
X54651Y126825D01*
X54651Y126825D01*
X52325D01*
Y132500D01*
X52225Y133007D01*
X51937Y133437D01*
X27825Y157549D01*
Y188951D01*
X30549Y191674D01*
X35651D01*
X35651Y191674D01*
X35675Y191664D01*
X35708Y191644D01*
X35751Y191615D01*
X35803Y191575D01*
X35862Y191523D01*
X35866Y191520D01*
X35928Y191428D01*
X36649Y190945D01*
X37500Y190776D01*
X38351Y190945D01*
X39072Y191428D01*
X39555Y192149D01*
X39724Y193000D01*
X39555Y193851D01*
X39072Y194572D01*
X38351Y195054D01*
X37500Y195224D01*
X36649Y195054D01*
X35928Y194572D01*
X35866Y194480D01*
X35862Y194477D01*
X35803Y194425D01*
X35751Y194385D01*
X35708Y194356D01*
X35675Y194336D01*
X35651Y194325D01*
X35651Y194325D01*
X30000D01*
X29493Y194225D01*
X29063Y193937D01*
X25748Y190622D01*
X18300Y198071D01*
Y219626D01*
X18300Y219626D01*
X18311Y219649D01*
X18330Y219682D01*
X18359Y219725D01*
X18399Y219777D01*
X18451Y219837D01*
X18454Y219840D01*
X18547Y219902D01*
X19029Y220623D01*
X19198Y221474D01*
X19029Y222325D01*
X18547Y223047D01*
X17825Y223529D01*
X16974Y223698D01*
D02*
G37*
G36*
X90000Y216721D02*
X86182D01*
X86265Y216086D01*
X86703Y215029D01*
X87400Y214121D01*
X88308Y213424D01*
X89365Y212986D01*
X90000Y212902D01*
Y216721D01*
D02*
G37*
G36*
X54000Y41224D02*
X53149Y41055D01*
X52428Y40573D01*
X51946Y39851D01*
X51776Y39000D01*
X51946Y38149D01*
X52428Y37427D01*
X52520Y37366D01*
X52523Y37363D01*
X52575Y37303D01*
X52615Y37251D01*
X52644Y37208D01*
X52664Y37174D01*
X52675Y37151D01*
X52675Y37151D01*
Y11349D01*
X52675Y11349D01*
X52664Y11326D01*
X52644Y11292D01*
X52615Y11249D01*
X52575Y11197D01*
X52523Y11138D01*
X52520Y11134D01*
X52428Y11073D01*
X51946Y10351D01*
X51776Y9500D01*
X51946Y8649D01*
X52428Y7927D01*
X53149Y7445D01*
X54000Y7276D01*
X54851Y7445D01*
X55572Y7927D01*
X56055Y8649D01*
X56224Y9500D01*
X56055Y10351D01*
X55572Y11073D01*
X55480Y11134D01*
X55477Y11137D01*
X55425Y11197D01*
X55385Y11249D01*
X55356Y11292D01*
X55336Y11326D01*
X55326Y11349D01*
X55326Y11349D01*
Y37151D01*
X55326Y37151D01*
X55336Y37174D01*
X55356Y37208D01*
X55385Y37251D01*
X55425Y37303D01*
X55477Y37362D01*
X55480Y37366D01*
X55572Y37427D01*
X56055Y38149D01*
X56224Y39000D01*
X56055Y39851D01*
X55572Y40573D01*
X54851Y41055D01*
X54000Y41224D01*
D02*
G37*
G36*
X199146Y222147D02*
X190454D01*
Y213454D01*
X199146D01*
Y222147D01*
D02*
G37*
G36*
X133875Y217308D02*
X130057D01*
Y213490D01*
X130692Y213574D01*
X131749Y214011D01*
X132657Y214708D01*
X133354Y215616D01*
X133792Y216673D01*
X133875Y217308D01*
D02*
G37*
G36*
X129057D02*
X125239D01*
X125323Y216673D01*
X125761Y215616D01*
X126457Y214708D01*
X127365Y214011D01*
X128423Y213574D01*
X129057Y213490D01*
Y217308D01*
D02*
G37*
G36*
X332949Y218000D02*
X327939D01*
X328064Y217057D01*
X328621Y215712D01*
X329506Y214558D01*
X330661Y213672D01*
X332006Y213115D01*
X332949Y212991D01*
Y218000D01*
D02*
G37*
G36*
X201943Y14231D02*
X200706Y14068D01*
X199553Y13590D01*
X198562Y12831D01*
X197803Y11840D01*
X197325Y10687D01*
X197162Y9450D01*
X197325Y8212D01*
X197803Y7059D01*
X198562Y6069D01*
X199553Y5309D01*
X200706Y4832D01*
X201943Y4669D01*
X203181Y4832D01*
X204334Y5309D01*
X205324Y6069D01*
X206084Y7059D01*
X206561Y8212D01*
X206724Y9450D01*
X206561Y10687D01*
X206084Y11840D01*
X205324Y12831D01*
X204334Y13590D01*
X203181Y14068D01*
X201943Y14231D01*
D02*
G37*
G36*
X169057Y222192D02*
X167923Y222043D01*
X166865Y221605D01*
X165957Y220908D01*
X165261Y220000D01*
X164823Y218943D01*
X164673Y217808D01*
X164823Y216673D01*
X165261Y215616D01*
X165957Y214708D01*
X166865Y214011D01*
X167923Y213574D01*
X169057Y213424D01*
X170192Y213574D01*
X171249Y214011D01*
X172157Y214708D01*
X172854Y215616D01*
X173292Y216673D01*
X173441Y217808D01*
X173292Y218943D01*
X172854Y220000D01*
X172157Y220908D01*
X171249Y221605D01*
X170192Y222043D01*
X169057Y222192D01*
D02*
G37*
G36*
X204800Y222184D02*
X203665Y222035D01*
X202608Y221597D01*
X201700Y220900D01*
X201003Y219992D01*
X200565Y218935D01*
X200416Y217800D01*
X200565Y216665D01*
X201003Y215608D01*
X201700Y214700D01*
X202608Y214003D01*
X203665Y213565D01*
X204800Y213416D01*
X205935Y213565D01*
X206992Y214003D01*
X207900Y214700D01*
X207986Y214812D01*
X208183Y214851D01*
X208762Y215238D01*
X209149Y215817D01*
X209284Y216500D01*
Y218000D01*
X209149Y218683D01*
X209048Y218833D01*
X209035Y218935D01*
X208597Y219992D01*
X207900Y220900D01*
X206992Y221597D01*
X205935Y222035D01*
X204800Y222184D01*
D02*
G37*
G36*
X146119Y172724D02*
X145268Y172555D01*
X144546Y172073D01*
X144485Y171980D01*
X144481Y171977D01*
X144422Y171925D01*
X144370Y171885D01*
X144327Y171856D01*
X144293Y171836D01*
X144270Y171826D01*
X144270Y171826D01*
X140849D01*
X140849Y171826D01*
X140825Y171836D01*
X140792Y171856D01*
X140749Y171885D01*
X140697Y171925D01*
X140638Y171977D01*
X140634Y171980D01*
X140573Y172073D01*
X139851Y172555D01*
X139000Y172724D01*
X138149Y172555D01*
X137427Y172073D01*
X136945Y171351D01*
X136776Y170500D01*
X136945Y169649D01*
X137427Y168928D01*
X138149Y168446D01*
X139000Y168276D01*
X139851Y168446D01*
X140573Y168928D01*
X140634Y169020D01*
X140638Y169023D01*
X140697Y169075D01*
X140749Y169115D01*
X140792Y169144D01*
X140825Y169164D01*
X140849Y169175D01*
X140849Y169175D01*
X144270D01*
X144270Y169175D01*
X144293Y169164D01*
X144327Y169144D01*
X144370Y169115D01*
X144422Y169075D01*
X144481Y169023D01*
X144485Y169020D01*
X144546Y168928D01*
X145268Y168446D01*
X146119Y168276D01*
X146970Y168446D01*
X147691Y168928D01*
X148173Y169649D01*
X148343Y170500D01*
X148173Y171351D01*
X147691Y172073D01*
X146970Y172555D01*
X146119Y172724D01*
D02*
G37*
G36*
X175171Y31947D02*
X173934Y31784D01*
X172781Y31307D01*
X171791Y30547D01*
X171031Y29557D01*
X170553Y28404D01*
X170390Y27166D01*
X170553Y25929D01*
X171031Y24776D01*
X171791Y23786D01*
X172781Y23026D01*
X173934Y22548D01*
X175171Y22385D01*
X176409Y22548D01*
X177562Y23026D01*
X178552Y23786D01*
X179312Y24776D01*
X179790Y25929D01*
X179953Y27166D01*
X179790Y28404D01*
X179312Y29557D01*
X178552Y30547D01*
X177562Y31307D01*
X176409Y31784D01*
X175171Y31947D01*
D02*
G37*
G36*
X39943D02*
X38706Y31784D01*
X37553Y31307D01*
X36562Y30547D01*
X35803Y29557D01*
X35325Y28404D01*
X35162Y27166D01*
X35325Y25929D01*
X35803Y24776D01*
X36562Y23786D01*
X37553Y23026D01*
X38706Y22548D01*
X39943Y22385D01*
X41181Y22548D01*
X42334Y23026D01*
X43324Y23786D01*
X44084Y24776D01*
X44561Y25929D01*
X44724Y27166D01*
X44561Y28404D01*
X44084Y29557D01*
X43324Y30547D01*
X42334Y31307D01*
X41181Y31784D01*
X39943Y31947D01*
D02*
G37*
G36*
X223557Y193842D02*
X221831Y193706D01*
X220148Y193302D01*
X218548Y192639D01*
X217072Y191735D01*
X215755Y190610D01*
X214631Y189294D01*
X213726Y187817D01*
X213063Y186218D01*
X212659Y184534D01*
X212523Y182808D01*
X212659Y181082D01*
X213063Y179398D01*
X213726Y177799D01*
X214631Y176322D01*
X215755Y175006D01*
X217072Y173881D01*
X218548Y172977D01*
X220148Y172314D01*
X221831Y171910D01*
X223557Y171774D01*
X225283Y171910D01*
X226967Y172314D01*
X228567Y172977D01*
X230043Y173881D01*
X231360Y175006D01*
X232484Y176322D01*
X233389Y177799D01*
X234051Y179398D01*
X234455Y181082D01*
X234591Y182808D01*
X234455Y184534D01*
X234051Y186218D01*
X233389Y187817D01*
X232484Y189294D01*
X231360Y190610D01*
X230043Y191735D01*
X228567Y192639D01*
X226967Y193302D01*
X225283Y193706D01*
X223557Y193842D01*
D02*
G37*
G36*
X98557Y184308D02*
X94938D01*
X95015Y183725D01*
X95433Y182715D01*
X96098Y181849D01*
X96965Y181183D01*
X97974Y180765D01*
X98557Y180689D01*
Y184308D01*
D02*
G37*
G36*
X257817Y182090D02*
X253800D01*
Y178073D01*
X254486Y178163D01*
X255591Y178621D01*
X256540Y179350D01*
X257269Y180298D01*
X257726Y181404D01*
X257817Y182090D01*
D02*
G37*
G36*
X252800D02*
X248783D01*
X248874Y181404D01*
X249331Y180298D01*
X250060Y179350D01*
X251009Y178621D01*
X252114Y178163D01*
X252800Y178073D01*
Y182090D01*
D02*
G37*
G36*
X121171Y31947D02*
X119934Y31784D01*
X118781Y31307D01*
X117791Y30547D01*
X117031Y29557D01*
X116553Y28404D01*
X116390Y27166D01*
X116553Y25929D01*
X117031Y24776D01*
X117791Y23786D01*
X118781Y23026D01*
X119934Y22548D01*
X121171Y22385D01*
X122409Y22548D01*
X123562Y23026D01*
X124552Y23786D01*
X125312Y24776D01*
X125790Y25929D01*
X125952Y27166D01*
X125790Y28404D01*
X125312Y29557D01*
X124552Y30547D01*
X123562Y31307D01*
X122409Y31784D01*
X121171Y31947D01*
D02*
G37*
G36*
X147943D02*
X146706Y31784D01*
X145553Y31307D01*
X144562Y30547D01*
X143803Y29557D01*
X143325Y28404D01*
X143162Y27166D01*
X143325Y25929D01*
X143803Y24776D01*
X144562Y23786D01*
X145553Y23026D01*
X146706Y22548D01*
X147943Y22385D01*
X149180Y22548D01*
X150334Y23026D01*
X151324Y23786D01*
X152084Y24776D01*
X152561Y25929D01*
X152724Y27166D01*
X152561Y28404D01*
X152084Y29557D01*
X151324Y30547D01*
X150334Y31307D01*
X149180Y31784D01*
X147943Y31947D01*
D02*
G37*
G36*
X44683Y182406D02*
X35203D01*
Y172926D01*
X44683D01*
Y182406D01*
D02*
G37*
G36*
X13171Y182447D02*
X11934Y182284D01*
X10781Y181807D01*
X9791Y181047D01*
X9031Y180057D01*
X8553Y178904D01*
X8390Y177666D01*
X8553Y176429D01*
X9031Y175276D01*
X9791Y174286D01*
X10781Y173526D01*
X11934Y173048D01*
X13171Y172885D01*
X14409Y173048D01*
X15562Y173526D01*
X16552Y174286D01*
X17312Y175276D01*
X17790Y176429D01*
X17953Y177666D01*
X17790Y178904D01*
X17312Y180057D01*
X16552Y181047D01*
X15562Y181807D01*
X14409Y182284D01*
X13171Y182447D01*
D02*
G37*
G36*
X265367Y230722D02*
X264078Y230552D01*
X262877Y230055D01*
X261845Y229264D01*
X261054Y228232D01*
X260557Y227031D01*
X260387Y225743D01*
X260557Y224454D01*
X261054Y223253D01*
X261845Y222221D01*
X262877Y221430D01*
X264078Y220933D01*
X265367Y220763D01*
X266655Y220933D01*
X267857Y221430D01*
X268888Y222221D01*
X269679Y223253D01*
X270177Y224454D01*
X270346Y225743D01*
X270177Y227031D01*
X269679Y228232D01*
X268888Y229264D01*
X267857Y230055D01*
X266655Y230552D01*
X265367Y230722D01*
D02*
G37*
G36*
X67172Y31947D02*
X65934Y31784D01*
X64781Y31307D01*
X63791Y30547D01*
X63031Y29557D01*
X62553Y28404D01*
X62390Y27166D01*
X62553Y25929D01*
X63031Y24776D01*
X63791Y23786D01*
X64781Y23026D01*
X65934Y22548D01*
X67172Y22385D01*
X68409Y22548D01*
X69562Y23026D01*
X70552Y23786D01*
X71312Y24776D01*
X71790Y25929D01*
X71952Y27166D01*
X71790Y28404D01*
X71312Y29557D01*
X70552Y30547D01*
X69562Y31307D01*
X68409Y31784D01*
X67172Y31947D01*
D02*
G37*
G36*
X93943D02*
X92706Y31784D01*
X91553Y31307D01*
X90562Y30547D01*
X89803Y29557D01*
X89325Y28404D01*
X89162Y27166D01*
X89325Y25929D01*
X89803Y24776D01*
X90562Y23786D01*
X91553Y23026D01*
X92706Y22548D01*
X93943Y22385D01*
X95181Y22548D01*
X96334Y23026D01*
X97324Y23786D01*
X98084Y24776D01*
X98561Y25929D01*
X98724Y27166D01*
X98561Y28404D01*
X98084Y29557D01*
X97324Y30547D01*
X96334Y31307D01*
X95181Y31784D01*
X93943Y31947D01*
D02*
G37*
G36*
X103177Y184308D02*
X99557D01*
Y180689D01*
X100141Y180765D01*
X101150Y181183D01*
X102017Y181849D01*
X102682Y182715D01*
X103100Y183725D01*
X103177Y184308D01*
D02*
G37*
G36*
X99557Y188928D02*
Y185308D01*
X103177D01*
X103100Y185891D01*
X102682Y186901D01*
X102017Y187768D01*
X101150Y188433D01*
X100141Y188851D01*
X99557Y188928D01*
D02*
G37*
G36*
X253800Y187106D02*
Y183090D01*
X257817D01*
X257726Y183776D01*
X257269Y184881D01*
X256540Y185830D01*
X255591Y186558D01*
X254486Y187016D01*
X253800Y187106D01*
D02*
G37*
G36*
X98557Y188928D02*
X97974Y188851D01*
X96965Y188433D01*
X96098Y187768D01*
X95433Y186901D01*
X95015Y185891D01*
X94938Y185308D01*
X98557D01*
Y188928D01*
D02*
G37*
G36*
X247133Y230722D02*
X245845Y230552D01*
X244643Y230055D01*
X243612Y229264D01*
X242821Y228232D01*
X242323Y227031D01*
X242154Y225743D01*
X242323Y224454D01*
X242821Y223253D01*
X243612Y222221D01*
X244643Y221430D01*
X245845Y220933D01*
X247133Y220763D01*
X248422Y220933D01*
X249623Y221430D01*
X250654Y222221D01*
X251446Y223253D01*
X251943Y224454D01*
X252113Y225743D01*
X251943Y227031D01*
X251446Y228232D01*
X250654Y229264D01*
X249623Y230055D01*
X248422Y230552D01*
X247133Y230722D01*
D02*
G37*
G36*
X252800Y187106D02*
X252114Y187016D01*
X251009Y186558D01*
X250060Y185830D01*
X249331Y184881D01*
X248874Y183776D01*
X248783Y183090D01*
X252800D01*
Y187106D01*
D02*
G37*
G36*
X228900Y230722D02*
X227611Y230552D01*
X226410Y230055D01*
X225379Y229264D01*
X224587Y228232D01*
X224090Y227031D01*
X223920Y225743D01*
X224090Y224454D01*
X224587Y223253D01*
X225379Y222221D01*
X226410Y221430D01*
X227611Y220933D01*
X228900Y220763D01*
X230189Y220933D01*
X231390Y221430D01*
X232421Y222221D01*
X233212Y223253D01*
X233710Y224454D01*
X233880Y225743D01*
X233710Y227031D01*
X233212Y228232D01*
X232421Y229264D01*
X231390Y230055D01*
X230189Y230552D01*
X228900Y230722D01*
D02*
G37*
G36*
X257843Y173354D02*
X248757D01*
Y164267D01*
X257843D01*
Y173354D01*
D02*
G37*
G36*
X201943Y31947D02*
X200706Y31784D01*
X199553Y31307D01*
X198562Y30547D01*
X197803Y29557D01*
X197325Y28404D01*
X197162Y27166D01*
X197325Y25929D01*
X197803Y24776D01*
X198562Y23786D01*
X199553Y23026D01*
X200706Y22548D01*
X201943Y22385D01*
X203181Y22548D01*
X204334Y23026D01*
X205324Y23786D01*
X206084Y24776D01*
X206561Y25929D01*
X206724Y27166D01*
X206561Y28404D01*
X206084Y29557D01*
X205324Y30547D01*
X204334Y31307D01*
X203181Y31784D01*
X201943Y31947D01*
D02*
G37*
G36*
X13171D02*
X11934Y31784D01*
X10781Y31307D01*
X9791Y30547D01*
X9031Y29557D01*
X8553Y28404D01*
X8390Y27166D01*
X8553Y25929D01*
X9031Y24776D01*
X9791Y23786D01*
X10781Y23026D01*
X11934Y22548D01*
X13171Y22385D01*
X14409Y22548D01*
X15562Y23026D01*
X16552Y23786D01*
X17312Y24776D01*
X17790Y25929D01*
X17953Y27166D01*
X17790Y28404D01*
X17312Y29557D01*
X16552Y30547D01*
X15562Y31307D01*
X14409Y31784D01*
X13171Y31947D01*
D02*
G37*
%LPD*%
G36*
X71800Y96750D02*
X71515Y96744D01*
X71260Y96726D01*
X71035Y96696D01*
X70840Y96654D01*
X70675Y96600D01*
X70540Y96534D01*
X70435Y96456D01*
X70360Y96366D01*
X70348Y96338D01*
X70321Y96061D01*
X70302Y95586D01*
X70300Y95313D01*
X69700D01*
X69698Y95586D01*
X69648Y96347D01*
X69640Y96366D01*
X69565Y96456D01*
X69460Y96534D01*
X69325Y96600D01*
X69160Y96654D01*
X68965Y96696D01*
X68485Y96744D01*
X68200Y96750D01*
X70000Y98250D01*
X71800Y96750D01*
D02*
G37*
G36*
X340105Y82552D02*
X340121Y82454D01*
X340147Y82354D01*
X340184Y82254D01*
X340232Y82153D01*
X340290Y82052D01*
X340358Y81951D01*
X340437Y81849D01*
X340527Y81747D01*
X340627Y81643D01*
X338973D01*
X339073Y81747D01*
X339163Y81849D01*
X339242Y81951D01*
X339310Y82052D01*
X339368Y82153D01*
X339416Y82254D01*
X339453Y82354D01*
X339479Y82454D01*
X339495Y82552D01*
X339500Y82651D01*
X340100D01*
X340105Y82552D01*
D02*
G37*
G36*
X191021Y83097D02*
X190955Y83023D01*
X190896Y82942D01*
X190845Y82853D01*
X190800Y82756D01*
X190762Y82652D01*
X190732Y82539D01*
X190708Y82419D01*
X190692Y82291D01*
X190683Y82155D01*
X190681Y82012D01*
X189512Y83181D01*
X189655Y83183D01*
X189791Y83192D01*
X189919Y83209D01*
X190039Y83232D01*
X190152Y83262D01*
X190256Y83300D01*
X190353Y83345D01*
X190442Y83396D01*
X190523Y83455D01*
X190597Y83521D01*
X191021Y83097D01*
D02*
G37*
G36*
X347488Y94819D02*
X347345Y94817D01*
X347209Y94808D01*
X347081Y94792D01*
X346961Y94768D01*
X346848Y94738D01*
X346744Y94700D01*
X346647Y94656D01*
X346558Y94604D01*
X346477Y94545D01*
X346403Y94479D01*
X345979Y94903D01*
X346045Y94977D01*
X346104Y95058D01*
X346156Y95147D01*
X346200Y95244D01*
X346238Y95348D01*
X346268Y95461D01*
X346291Y95581D01*
X346308Y95709D01*
X346317Y95845D01*
X346319Y95988D01*
X347488Y94819D01*
D02*
G37*
G36*
X326977Y81855D02*
X327058Y81796D01*
X327147Y81744D01*
X327244Y81700D01*
X327348Y81662D01*
X327461Y81632D01*
X327581Y81608D01*
X327709Y81592D01*
X327845Y81583D01*
X327988Y81581D01*
X326819Y80412D01*
X326817Y80555D01*
X326808Y80691D01*
X326792Y80819D01*
X326768Y80939D01*
X326738Y81052D01*
X326700Y81156D01*
X326656Y81253D01*
X326604Y81342D01*
X326545Y81423D01*
X326479Y81497D01*
X326903Y81921D01*
X326977Y81855D01*
D02*
G37*
G36*
X293157Y83173D02*
X293054Y83273D01*
X292951Y83363D01*
X292849Y83442D01*
X292747Y83510D01*
X292647Y83568D01*
X292546Y83616D01*
X292446Y83653D01*
X292347Y83679D01*
X292248Y83695D01*
X292149Y83700D01*
Y84300D01*
X292248Y84305D01*
X292347Y84321D01*
X292446Y84347D01*
X292546Y84384D01*
X292647Y84432D01*
X292747Y84490D01*
X292849Y84558D01*
X292951Y84637D01*
X293054Y84727D01*
X293157Y84827D01*
Y83173D01*
D02*
G37*
G36*
X339090Y93432D02*
X338978Y93391D01*
X338877Y93344D01*
X338789Y93289D01*
X338712Y93226D01*
X338647Y93156D01*
X338594Y93079D01*
X338553Y92994D01*
X338524Y92902D01*
X338506Y92802D01*
X338500Y92695D01*
X337900Y93021D01*
X337897Y93103D01*
X337889Y93191D01*
X337857Y93390D01*
X337832Y93500D01*
X337727Y93873D01*
X337630Y94158D01*
X339090Y93432D01*
D02*
G37*
G36*
X166147Y94727D02*
X166249Y94637D01*
X166351Y94558D01*
X166453Y94490D01*
X166553Y94432D01*
X166654Y94384D01*
X166754Y94347D01*
X166853Y94321D01*
X166953Y94305D01*
X167051Y94300D01*
Y93700D01*
X166953Y93695D01*
X166853Y93679D01*
X166754Y93653D01*
X166654Y93616D01*
X166553Y93568D01*
X166453Y93510D01*
X166351Y93442D01*
X166249Y93363D01*
X166147Y93273D01*
X166043Y93173D01*
Y94827D01*
X166147Y94727D01*
D02*
G37*
G36*
X124946Y88227D02*
X125049Y88137D01*
X125151Y88058D01*
X125252Y87990D01*
X125354Y87932D01*
X125454Y87884D01*
X125554Y87847D01*
X125654Y87821D01*
X125752Y87805D01*
X125851Y87800D01*
Y87200D01*
X125752Y87195D01*
X125654Y87179D01*
X125554Y87153D01*
X125454Y87116D01*
X125354Y87068D01*
X125252Y87010D01*
X125151Y86942D01*
X125049Y86863D01*
X124946Y86773D01*
X124844Y86673D01*
Y88327D01*
X124946Y88227D01*
D02*
G37*
G36*
X316692Y89217D02*
X318337Y89167D01*
X318235Y89069D01*
X318143Y88969D01*
X318063Y88870D01*
X317993Y88771D01*
X317934Y88672D01*
X317886Y88573D01*
X317848Y88473D01*
X317822Y88374D01*
X317805Y88275D01*
X317800Y88176D01*
X317200Y88194D01*
X317195Y88292D01*
X317179Y88391D01*
X317154Y88490D01*
X317117Y88591D01*
X317071Y88693D01*
X317014Y88796D01*
X316947Y88899D01*
X316870Y89004D01*
X316782Y89110D01*
X316688Y89213D01*
X316589Y89309D01*
X316486Y89398D01*
X316384Y89477D01*
X316283Y89546D01*
X316182Y89604D01*
X316081Y89651D01*
X315981Y89688D01*
X315882Y89714D01*
X315783Y89730D01*
X315684Y89735D01*
Y90335D01*
X315783Y90341D01*
X315882Y90356D01*
X315981Y90383D01*
X316081Y90420D01*
X316182Y90467D01*
X316283Y90525D01*
X316384Y90594D01*
X316486Y90673D01*
X316589Y90762D01*
X316692Y90862D01*
Y89217D01*
D02*
G37*
G36*
X103456Y86873D02*
X103354Y86973D01*
X103251Y87063D01*
X103149Y87142D01*
X103048Y87210D01*
X102946Y87268D01*
X102846Y87316D01*
X102746Y87353D01*
X102647Y87379D01*
X102548Y87395D01*
X102449Y87400D01*
Y88000D01*
X102548Y88005D01*
X102647Y88021D01*
X102746Y88047D01*
X102846Y88084D01*
X102946Y88132D01*
X103048Y88190D01*
X103149Y88258D01*
X103251Y88337D01*
X103354Y88427D01*
X103456Y88527D01*
Y86873D01*
D02*
G37*
G36*
X76021Y90597D02*
X75955Y90523D01*
X75896Y90442D01*
X75845Y90353D01*
X75800Y90256D01*
X75762Y90152D01*
X75732Y90039D01*
X75709Y89919D01*
X75692Y89791D01*
X75683Y89655D01*
X75681Y89512D01*
X74512Y90681D01*
X74655Y90683D01*
X74791Y90692D01*
X74919Y90709D01*
X75039Y90732D01*
X75152Y90762D01*
X75256Y90800D01*
X75353Y90845D01*
X75442Y90896D01*
X75523Y90955D01*
X75597Y91021D01*
X76021Y90597D01*
D02*
G37*
G36*
X276565Y95312D02*
X276599Y95299D01*
X276645Y95288D01*
X276704Y95278D01*
X276859Y95262D01*
X277065Y95253D01*
X277321Y95250D01*
Y93750D01*
X277187Y93749D01*
X276645Y93712D01*
X276599Y93701D01*
X276565Y93688D01*
X276543Y93673D01*
Y95327D01*
X276565Y95312D01*
D02*
G37*
G36*
X304683Y95345D02*
X304692Y95209D01*
X304709Y95081D01*
X304732Y94961D01*
X304762Y94848D01*
X304800Y94744D01*
X304844Y94647D01*
X304896Y94558D01*
X304955Y94477D01*
X305021Y94403D01*
X304597Y93979D01*
X304523Y94045D01*
X304442Y94104D01*
X304353Y94156D01*
X304256Y94200D01*
X304152Y94238D01*
X304039Y94268D01*
X303919Y94292D01*
X303791Y94308D01*
X303655Y94317D01*
X303512Y94319D01*
X304681Y95488D01*
X304683Y95345D01*
D02*
G37*
G36*
X70305Y84753D02*
X70321Y84654D01*
X70347Y84554D01*
X70384Y84454D01*
X70432Y84354D01*
X70490Y84253D01*
X70558Y84151D01*
X70637Y84049D01*
X70727Y83947D01*
X70827Y83843D01*
X69173D01*
X69273Y83947D01*
X69363Y84049D01*
X69442Y84151D01*
X69510Y84253D01*
X69568Y84354D01*
X69616Y84454D01*
X69653Y84554D01*
X69679Y84654D01*
X69695Y84753D01*
X69700Y84851D01*
X70300D01*
X70305Y84753D01*
D02*
G37*
G36*
X167446Y87727D02*
X167549Y87637D01*
X167651Y87558D01*
X167753Y87490D01*
X167853Y87432D01*
X167954Y87384D01*
X168054Y87347D01*
X168154Y87321D01*
X168253Y87305D01*
X168351Y87300D01*
Y86700D01*
X168253Y86695D01*
X168154Y86679D01*
X168054Y86653D01*
X167954Y86616D01*
X167853Y86568D01*
X167753Y86510D01*
X167651Y86442D01*
X167549Y86363D01*
X167446Y86273D01*
X167343Y86173D01*
Y87827D01*
X167446Y87727D01*
D02*
G37*
G36*
X192429Y93205D02*
X192315Y93299D01*
X192093Y93457D01*
X191985Y93522D01*
X191879Y93576D01*
X191776Y93621D01*
X191674Y93655D01*
X191574Y93680D01*
X191476Y93695D01*
X191380Y93700D01*
X191327Y94300D01*
X191428Y94305D01*
X191528Y94322D01*
X191626Y94350D01*
X191724Y94388D01*
X191821Y94438D01*
X191917Y94499D01*
X192011Y94571D01*
X192105Y94653D01*
X192198Y94747D01*
X192290Y94852D01*
X192429Y93205D01*
D02*
G37*
G36*
X75446Y95227D02*
X75549Y95137D01*
X75651Y95058D01*
X75753Y94990D01*
X75854Y94932D01*
X75954Y94884D01*
X76054Y94847D01*
X76153Y94821D01*
X76253Y94805D01*
X76351Y94800D01*
Y94200D01*
X76253Y94195D01*
X76153Y94179D01*
X76054Y94153D01*
X75954Y94116D01*
X75854Y94068D01*
X75753Y94010D01*
X75651Y93942D01*
X75549Y93863D01*
X75446Y93773D01*
X75344Y93673D01*
Y95327D01*
X75446Y95227D01*
D02*
G37*
G36*
X177308Y79619D02*
X177454Y79499D01*
X177538Y79438D01*
X177832Y79248D01*
X178065Y79118D01*
X178192Y79051D01*
X176641Y78609D01*
X176696Y78711D01*
X176737Y78811D01*
X176763Y78908D01*
X176776Y79002D01*
X176775Y79095D01*
X176759Y79185D01*
X176729Y79272D01*
X176685Y79357D01*
X176627Y79440D01*
X176555Y79521D01*
X177246Y79678D01*
X177308Y79619D01*
D02*
G37*
G36*
X296977Y12955D02*
X297058Y12896D01*
X297147Y12844D01*
X297244Y12800D01*
X297348Y12762D01*
X297461Y12732D01*
X297581Y12709D01*
X297709Y12692D01*
X297845Y12683D01*
X297988Y12681D01*
X296819Y11512D01*
X296817Y11655D01*
X296808Y11791D01*
X296792Y11919D01*
X296768Y12039D01*
X296738Y12152D01*
X296700Y12256D01*
X296656Y12353D01*
X296604Y12442D01*
X296545Y12523D01*
X296479Y12597D01*
X296903Y13021D01*
X296977Y12955D01*
D02*
G37*
G36*
X290157Y45173D02*
X290054Y45273D01*
X289951Y45363D01*
X289849Y45442D01*
X289748Y45510D01*
X289647Y45568D01*
X289546Y45616D01*
X289446Y45653D01*
X289347Y45679D01*
X289247Y45695D01*
X289149Y45700D01*
Y46300D01*
X289247Y46305D01*
X289347Y46321D01*
X289446Y46347D01*
X289546Y46384D01*
X289647Y46432D01*
X289748Y46490D01*
X289849Y46558D01*
X289951Y46637D01*
X290054Y46727D01*
X290157Y46827D01*
Y45173D01*
D02*
G37*
G36*
X346805Y44252D02*
X346821Y44153D01*
X346847Y44054D01*
X346884Y43954D01*
X346932Y43854D01*
X346990Y43753D01*
X347058Y43651D01*
X347137Y43549D01*
X347227Y43446D01*
X347327Y43343D01*
X345673D01*
X345773Y43446D01*
X345863Y43549D01*
X345942Y43651D01*
X346010Y43753D01*
X346068Y43854D01*
X346116Y43954D01*
X346153Y44054D01*
X346179Y44153D01*
X346195Y44252D01*
X346200Y44351D01*
X346800D01*
X346805Y44252D01*
D02*
G37*
G36*
X321157Y15173D02*
X321054Y15273D01*
X320951Y15363D01*
X320849Y15442D01*
X320747Y15510D01*
X320647Y15568D01*
X320546Y15616D01*
X320446Y15653D01*
X320346Y15679D01*
X320248Y15695D01*
X320149Y15700D01*
Y16300D01*
X320248Y16305D01*
X320346Y16321D01*
X320446Y16347D01*
X320546Y16384D01*
X320647Y16432D01*
X320747Y16490D01*
X320849Y16558D01*
X320951Y16637D01*
X321054Y16727D01*
X321157Y16827D01*
Y15173D01*
D02*
G37*
G36*
X54727Y38054D02*
X54637Y37951D01*
X54558Y37849D01*
X54490Y37747D01*
X54432Y37646D01*
X54384Y37546D01*
X54347Y37446D01*
X54321Y37347D01*
X54305Y37247D01*
X54300Y37149D01*
X53700D01*
X53695Y37247D01*
X53679Y37347D01*
X53653Y37446D01*
X53616Y37546D01*
X53568Y37646D01*
X53510Y37747D01*
X53442Y37849D01*
X53363Y37951D01*
X53273Y38054D01*
X53173Y38157D01*
X54827D01*
X54727Y38054D01*
D02*
G37*
G36*
X158805Y11253D02*
X158821Y11153D01*
X158847Y11054D01*
X158884Y10954D01*
X158932Y10853D01*
X158990Y10752D01*
X159058Y10651D01*
X159137Y10549D01*
X159227Y10447D01*
X159327Y10344D01*
X157673D01*
X157773Y10447D01*
X157863Y10549D01*
X157942Y10651D01*
X158010Y10752D01*
X158068Y10853D01*
X158116Y10954D01*
X158153Y11054D01*
X158179Y11153D01*
X158195Y11253D01*
X158200Y11351D01*
X158800D01*
X158805Y11253D01*
D02*
G37*
G36*
X54305D02*
X54321Y11153D01*
X54347Y11054D01*
X54384Y10954D01*
X54432Y10853D01*
X54490Y10752D01*
X54558Y10651D01*
X54637Y10549D01*
X54727Y10447D01*
X54827Y10344D01*
X53173D01*
X53273Y10447D01*
X53363Y10549D01*
X53442Y10651D01*
X53510Y10752D01*
X53568Y10853D01*
X53616Y10954D01*
X53653Y11054D01*
X53679Y11153D01*
X53695Y11253D01*
X53700Y11351D01*
X54300D01*
X54305Y11253D01*
D02*
G37*
G36*
X292521Y52097D02*
X292455Y52023D01*
X292396Y51942D01*
X292344Y51853D01*
X292300Y51756D01*
X292262Y51652D01*
X292232Y51539D01*
X292209Y51419D01*
X292192Y51291D01*
X292183Y51155D01*
X292181Y51012D01*
X291012Y52181D01*
X291155Y52183D01*
X291291Y52192D01*
X291419Y52209D01*
X291539Y52232D01*
X291652Y52262D01*
X291756Y52300D01*
X291853Y52345D01*
X291942Y52396D01*
X292023Y52455D01*
X292097Y52521D01*
X292521Y52097D01*
D02*
G37*
G36*
X203488Y48819D02*
X203345Y48817D01*
X203209Y48808D01*
X203081Y48792D01*
X202961Y48768D01*
X202848Y48738D01*
X202744Y48700D01*
X202647Y48656D01*
X202558Y48604D01*
X202477Y48545D01*
X202403Y48479D01*
X201979Y48903D01*
X202045Y48977D01*
X202104Y49058D01*
X202155Y49147D01*
X202200Y49244D01*
X202238Y49348D01*
X202268Y49461D01*
X202291Y49581D01*
X202308Y49709D01*
X202317Y49845D01*
X202319Y49988D01*
X203488Y48819D01*
D02*
G37*
G36*
X299227Y50054D02*
X299137Y49951D01*
X299058Y49849D01*
X298990Y49747D01*
X298932Y49646D01*
X298884Y49546D01*
X298847Y49446D01*
X298821Y49347D01*
X298805Y49248D01*
X298800Y49149D01*
X298200D01*
X298195Y49248D01*
X298179Y49347D01*
X298153Y49446D01*
X298116Y49546D01*
X298068Y49646D01*
X298010Y49747D01*
X297942Y49849D01*
X297863Y49951D01*
X297773Y50054D01*
X297673Y50156D01*
X299327D01*
X299227Y50054D01*
D02*
G37*
G36*
X253683Y31845D02*
X253692Y31709D01*
X253709Y31581D01*
X253732Y31461D01*
X253762Y31348D01*
X253800Y31244D01*
X253844Y31147D01*
X253896Y31058D01*
X253955Y30977D01*
X254021Y30903D01*
X253597Y30479D01*
X253523Y30545D01*
X253442Y30604D01*
X253353Y30656D01*
X253256Y30700D01*
X253152Y30738D01*
X253039Y30768D01*
X252919Y30792D01*
X252791Y30808D01*
X252655Y30817D01*
X252512Y30819D01*
X253681Y31988D01*
X253683Y31845D01*
D02*
G37*
G36*
X311947Y35227D02*
X312049Y35137D01*
X312151Y35058D01*
X312252Y34990D01*
X312353Y34932D01*
X312454Y34884D01*
X312554Y34847D01*
X312653Y34821D01*
X312753Y34805D01*
X312851Y34800D01*
Y34200D01*
X312753Y34195D01*
X312653Y34179D01*
X312554Y34153D01*
X312454Y34116D01*
X312353Y34068D01*
X312252Y34010D01*
X312151Y33942D01*
X312049Y33863D01*
X311947Y33773D01*
X311843Y33673D01*
Y35327D01*
X311947Y35227D01*
D02*
G37*
G36*
X329357Y29473D02*
X329254Y29573D01*
X329151Y29663D01*
X329049Y29742D01*
X328947Y29810D01*
X328847Y29868D01*
X328746Y29916D01*
X328646Y29953D01*
X328547Y29979D01*
X328448Y29995D01*
X328349Y30000D01*
Y30600D01*
X328448Y30605D01*
X328547Y30621D01*
X328646Y30647D01*
X328746Y30684D01*
X328847Y30732D01*
X328947Y30790D01*
X329049Y30858D01*
X329151Y30937D01*
X329254Y31027D01*
X329357Y31127D01*
Y29473D01*
D02*
G37*
G36*
X276447Y27227D02*
X276549Y27137D01*
X276651Y27058D01*
X276752Y26990D01*
X276853Y26932D01*
X276954Y26884D01*
X277054Y26847D01*
X277153Y26821D01*
X277253Y26805D01*
X277351Y26800D01*
Y26200D01*
X277253Y26195D01*
X277153Y26179D01*
X277054Y26153D01*
X276954Y26116D01*
X276853Y26068D01*
X276752Y26010D01*
X276651Y25942D01*
X276549Y25863D01*
X276447Y25773D01*
X276343Y25673D01*
Y27327D01*
X276447Y27227D01*
D02*
G37*
G36*
X291683Y26845D02*
X291692Y26709D01*
X291708Y26581D01*
X291732Y26461D01*
X291762Y26348D01*
X291800Y26244D01*
X291845Y26147D01*
X291896Y26058D01*
X291955Y25977D01*
X292021Y25903D01*
X291597Y25479D01*
X291523Y25545D01*
X291442Y25604D01*
X291353Y25655D01*
X291256Y25700D01*
X291152Y25738D01*
X291039Y25768D01*
X290919Y25791D01*
X290791Y25808D01*
X290655Y25817D01*
X290512Y25819D01*
X291681Y26988D01*
X291683Y26845D01*
D02*
G37*
G36*
X153183Y38345D02*
X153192Y38209D01*
X153208Y38081D01*
X153232Y37961D01*
X153262Y37848D01*
X153300Y37744D01*
X153345Y37647D01*
X153396Y37558D01*
X153455Y37477D01*
X153521Y37403D01*
X153097Y36979D01*
X153023Y37045D01*
X152942Y37104D01*
X152853Y37156D01*
X152756Y37200D01*
X152652Y37238D01*
X152539Y37268D01*
X152419Y37291D01*
X152291Y37308D01*
X152155Y37317D01*
X152012Y37319D01*
X153181Y38488D01*
X153183Y38345D01*
D02*
G37*
G36*
X295183Y20345D02*
X295192Y20209D01*
X295209Y20081D01*
X295232Y19961D01*
X295262Y19848D01*
X295300Y19744D01*
X295344Y19647D01*
X295396Y19558D01*
X295455Y19477D01*
X295521Y19403D01*
X295097Y18979D01*
X295023Y19045D01*
X294942Y19104D01*
X294853Y19155D01*
X294756Y19200D01*
X294652Y19238D01*
X294539Y19268D01*
X294419Y19291D01*
X294291Y19308D01*
X294155Y19317D01*
X294012Y19319D01*
X295181Y20488D01*
X295183Y20345D01*
D02*
G37*
G36*
X294305Y22253D02*
X294321Y22153D01*
X294347Y22054D01*
X294384Y21954D01*
X294432Y21854D01*
X294490Y21753D01*
X294558Y21651D01*
X294637Y21549D01*
X294727Y21447D01*
X294827Y21343D01*
X293173D01*
X293273Y21447D01*
X293363Y21549D01*
X293442Y21651D01*
X293510Y21753D01*
X293568Y21854D01*
X293616Y21954D01*
X293653Y22054D01*
X293679Y22153D01*
X293695Y22253D01*
X293700Y22351D01*
X294300D01*
X294305Y22253D01*
D02*
G37*
G36*
X262446Y35727D02*
X262549Y35637D01*
X262651Y35558D01*
X262753Y35490D01*
X262854Y35432D01*
X262954Y35384D01*
X263054Y35347D01*
X263154Y35321D01*
X263252Y35305D01*
X263351Y35300D01*
Y34700D01*
X263252Y34695D01*
X263154Y34679D01*
X263054Y34653D01*
X262954Y34616D01*
X262854Y34568D01*
X262753Y34510D01*
X262651Y34442D01*
X262549Y34363D01*
X262446Y34273D01*
X262344Y34173D01*
Y35827D01*
X262446Y35727D01*
D02*
G37*
G36*
X307305Y36252D02*
X307321Y36154D01*
X307347Y36054D01*
X307384Y35954D01*
X307432Y35853D01*
X307490Y35752D01*
X307558Y35651D01*
X307637Y35549D01*
X307727Y35447D01*
X307827Y35344D01*
X306173D01*
X306273Y35447D01*
X306363Y35549D01*
X306442Y35651D01*
X306510Y35752D01*
X306568Y35853D01*
X306616Y35954D01*
X306653Y36054D01*
X306679Y36154D01*
X306695Y36252D01*
X306700Y36351D01*
X307300D01*
X307305Y36252D01*
D02*
G37*
G36*
X320305Y53253D02*
X320321Y53154D01*
X320347Y53054D01*
X320384Y52954D01*
X320432Y52854D01*
X320490Y52753D01*
X320558Y52651D01*
X320637Y52549D01*
X320727Y52447D01*
X320827Y52343D01*
X319173D01*
X319273Y52447D01*
X319363Y52549D01*
X319442Y52651D01*
X319510Y52753D01*
X319568Y52854D01*
X319616Y52954D01*
X319653Y53054D01*
X319679Y53154D01*
X319695Y53253D01*
X319700Y53351D01*
X320300D01*
X320305Y53253D01*
D02*
G37*
G36*
X277521Y73097D02*
X277455Y73023D01*
X277396Y72942D01*
X277344Y72853D01*
X277300Y72756D01*
X277262Y72652D01*
X277232Y72539D01*
X277208Y72419D01*
X277192Y72291D01*
X277183Y72155D01*
X277181Y72012D01*
X276012Y73181D01*
X276155Y73183D01*
X276291Y73192D01*
X276419Y73208D01*
X276539Y73232D01*
X276652Y73262D01*
X276756Y73300D01*
X276853Y73344D01*
X276942Y73396D01*
X277023Y73455D01*
X277097Y73521D01*
X277521Y73097D01*
D02*
G37*
G36*
X146157Y74173D02*
X146054Y74273D01*
X145951Y74363D01*
X145849Y74442D01*
X145747Y74510D01*
X145647Y74568D01*
X145546Y74616D01*
X145446Y74653D01*
X145346Y74679D01*
X145247Y74695D01*
X145149Y74700D01*
Y75300D01*
X145247Y75305D01*
X145346Y75321D01*
X145446Y75347D01*
X145546Y75384D01*
X145647Y75432D01*
X145747Y75490D01*
X145849Y75558D01*
X145951Y75637D01*
X146054Y75727D01*
X146157Y75827D01*
Y74173D01*
D02*
G37*
G36*
X177656Y71173D02*
X177553Y71273D01*
X177451Y71363D01*
X177349Y71442D01*
X177248Y71510D01*
X177146Y71568D01*
X177046Y71616D01*
X176946Y71653D01*
X176847Y71679D01*
X176748Y71695D01*
X176649Y71700D01*
Y72300D01*
X176748Y72305D01*
X176847Y72321D01*
X176946Y72347D01*
X177046Y72384D01*
X177146Y72432D01*
X177248Y72490D01*
X177349Y72558D01*
X177451Y72637D01*
X177553Y72727D01*
X177656Y72827D01*
Y71173D01*
D02*
G37*
G36*
X343727Y68554D02*
X343637Y68451D01*
X343558Y68349D01*
X343490Y68247D01*
X343432Y68147D01*
X343384Y68046D01*
X343347Y67946D01*
X343321Y67847D01*
X343305Y67747D01*
X343300Y67649D01*
X342700D01*
X342695Y67747D01*
X342679Y67847D01*
X342653Y67946D01*
X342616Y68046D01*
X342568Y68147D01*
X342510Y68247D01*
X342442Y68349D01*
X342363Y68451D01*
X342273Y68554D01*
X342173Y68656D01*
X343827D01*
X343727Y68554D01*
D02*
G37*
G36*
X347227D02*
X347137Y68451D01*
X347058Y68349D01*
X346990Y68247D01*
X346932Y68147D01*
X346884Y68046D01*
X346847Y67946D01*
X346821Y67847D01*
X346805Y67747D01*
X346800Y67649D01*
X346200D01*
X346195Y67747D01*
X346179Y67847D01*
X346153Y67946D01*
X346116Y68046D01*
X346068Y68147D01*
X346010Y68247D01*
X345942Y68349D01*
X345863Y68451D01*
X345773Y68554D01*
X345673Y68656D01*
X347327D01*
X347227Y68554D01*
D02*
G37*
G36*
X289157Y78173D02*
X289054Y78273D01*
X288951Y78363D01*
X288849Y78442D01*
X288748Y78510D01*
X288647Y78568D01*
X288546Y78616D01*
X288446Y78653D01*
X288347Y78679D01*
X288247Y78695D01*
X288149Y78700D01*
Y79300D01*
X288247Y79305D01*
X288347Y79321D01*
X288446Y79347D01*
X288546Y79384D01*
X288647Y79432D01*
X288748Y79490D01*
X288849Y79558D01*
X288951Y79637D01*
X289054Y79727D01*
X289157Y79827D01*
Y78173D01*
D02*
G37*
G36*
X290947Y79727D02*
X291049Y79637D01*
X291151Y79558D01*
X291252Y79490D01*
X291354Y79432D01*
X291454Y79384D01*
X291554Y79347D01*
X291653Y79321D01*
X291753Y79305D01*
X291851Y79300D01*
Y78700D01*
X291753Y78695D01*
X291653Y78679D01*
X291554Y78653D01*
X291454Y78616D01*
X291354Y78568D01*
X291252Y78510D01*
X291151Y78442D01*
X291049Y78363D01*
X290947Y78273D01*
X290844Y78173D01*
Y79827D01*
X290947Y79727D01*
D02*
G37*
G36*
X79421Y77597D02*
X79355Y77523D01*
X79296Y77442D01*
X79245Y77353D01*
X79200Y77256D01*
X79162Y77152D01*
X79132Y77039D01*
X79109Y76919D01*
X79092Y76791D01*
X79083Y76655D01*
X79081Y76512D01*
X77912Y77681D01*
X78055Y77683D01*
X78191Y77692D01*
X78319Y77709D01*
X78439Y77732D01*
X78552Y77762D01*
X78656Y77800D01*
X78753Y77845D01*
X78842Y77896D01*
X78923Y77955D01*
X78997Y78021D01*
X79421Y77597D01*
D02*
G37*
G36*
X330021Y77097D02*
X329955Y77023D01*
X329896Y76942D01*
X329844Y76853D01*
X329800Y76756D01*
X329762Y76652D01*
X329732Y76539D01*
X329709Y76419D01*
X329692Y76291D01*
X329683Y76155D01*
X329681Y76012D01*
X328512Y77181D01*
X328655Y77183D01*
X328791Y77192D01*
X328919Y77209D01*
X329039Y77232D01*
X329152Y77262D01*
X329256Y77300D01*
X329353Y77345D01*
X329442Y77396D01*
X329523Y77455D01*
X329597Y77521D01*
X330021Y77097D01*
D02*
G37*
G36*
X186151Y77685D02*
X186144Y77556D01*
X186146Y77434D01*
X186157Y77318D01*
X186178Y77209D01*
X186209Y77106D01*
X186249Y77011D01*
X186298Y76921D01*
X186356Y76839D01*
X186425Y76762D01*
X185937Y76401D01*
X185868Y76464D01*
X185789Y76523D01*
X185702Y76577D01*
X185606Y76626D01*
X185501Y76671D01*
X185387Y76712D01*
X185265Y76748D01*
X184993Y76807D01*
X184844Y76829D01*
X186167Y77821D01*
X186151Y77685D01*
D02*
G37*
G36*
X294727Y57054D02*
X294637Y56951D01*
X294558Y56849D01*
X294490Y56748D01*
X294432Y56647D01*
X294384Y56546D01*
X294347Y56446D01*
X294321Y56346D01*
X294305Y56248D01*
X294300Y56149D01*
X293700D01*
X293695Y56248D01*
X293679Y56346D01*
X293653Y56446D01*
X293616Y56546D01*
X293568Y56647D01*
X293510Y56748D01*
X293442Y56849D01*
X293363Y56951D01*
X293273Y57054D01*
X293173Y57156D01*
X294827D01*
X294727Y57054D01*
D02*
G37*
G36*
X249455Y59926D02*
X249357Y59917D01*
X249256Y59896D01*
X249153Y59863D01*
X249047Y59818D01*
X248939Y59761D01*
X248829Y59693D01*
X248716Y59613D01*
X248600Y59521D01*
X248362Y59301D01*
X247247Y60308D01*
X247362Y60428D01*
X247554Y60663D01*
X247632Y60776D01*
X247696Y60888D01*
X247748Y60998D01*
X247787Y61105D01*
X247813Y61210D01*
X247827Y61313D01*
X247828Y61414D01*
X249455Y59926D01*
D02*
G37*
G36*
X312656Y55173D02*
X312554Y55273D01*
X312451Y55363D01*
X312349Y55442D01*
X312247Y55510D01*
X312146Y55568D01*
X312046Y55616D01*
X311946Y55653D01*
X311846Y55679D01*
X311748Y55695D01*
X311649Y55700D01*
Y56300D01*
X311748Y56305D01*
X311846Y56321D01*
X311946Y56347D01*
X312046Y56384D01*
X312146Y56432D01*
X312247Y56490D01*
X312349Y56558D01*
X312451Y56637D01*
X312554Y56727D01*
X312656Y56827D01*
Y55173D01*
D02*
G37*
G36*
X244678Y55617D02*
X244562Y55497D01*
X244368Y55263D01*
X244289Y55149D01*
X244223Y55038D01*
X244169Y54929D01*
X244127Y54822D01*
X244097Y54718D01*
X244080Y54616D01*
X244075Y54516D01*
X242516Y56075D01*
X242616Y56080D01*
X242718Y56097D01*
X242822Y56127D01*
X242929Y56169D01*
X243038Y56223D01*
X243149Y56289D01*
X243263Y56368D01*
X243378Y56459D01*
X243496Y56562D01*
X243617Y56678D01*
X244678Y55617D01*
D02*
G37*
G36*
X307306Y56786D02*
X307324Y56684D01*
X307354Y56594D01*
X307396Y56516D01*
X307450Y56450D01*
X307516Y56396D01*
X307594Y56354D01*
X307684Y56324D01*
X307786Y56306D01*
X307900Y56300D01*
Y55700D01*
X307786Y55694D01*
X307684Y55676D01*
X307594Y55646D01*
X307516Y55604D01*
X307450Y55550D01*
X307396Y55484D01*
X307354Y55406D01*
X307324Y55316D01*
X307306Y55214D01*
X307300Y55100D01*
X306700Y56000D01*
X307300Y56900D01*
X307306Y56786D01*
D02*
G37*
G36*
X180657Y65673D02*
X180635Y65688D01*
X180601Y65701D01*
X180555Y65712D01*
X180496Y65722D01*
X180341Y65738D01*
X180135Y65747D01*
X179879Y65750D01*
Y67250D01*
X180013Y67251D01*
X180555Y67288D01*
X180601Y67299D01*
X180635Y67312D01*
X180657Y67327D01*
Y65673D01*
D02*
G37*
G36*
X319977Y67455D02*
X320058Y67396D01*
X320147Y67344D01*
X320244Y67300D01*
X320348Y67262D01*
X320461Y67232D01*
X320581Y67208D01*
X320709Y67192D01*
X320845Y67183D01*
X320988Y67181D01*
X319819Y66012D01*
X319817Y66155D01*
X319808Y66291D01*
X319792Y66419D01*
X319768Y66539D01*
X319738Y66652D01*
X319700Y66756D01*
X319655Y66853D01*
X319604Y66942D01*
X319545Y67023D01*
X319479Y67097D01*
X319903Y67521D01*
X319977Y67455D01*
D02*
G37*
G36*
X152865Y67312D02*
X152899Y67299D01*
X152945Y67288D01*
X153004Y67278D01*
X153159Y67262D01*
X153365Y67253D01*
X153621Y67250D01*
Y65750D01*
X153487Y65749D01*
X152945Y65712D01*
X152899Y65701D01*
X152865Y65688D01*
X152843Y65673D01*
Y67327D01*
X152865Y67312D01*
D02*
G37*
G36*
X178156Y61673D02*
X178053Y61773D01*
X177951Y61863D01*
X177849Y61942D01*
X177747Y62010D01*
X177647Y62068D01*
X177546Y62116D01*
X177446Y62153D01*
X177347Y62179D01*
X177248Y62195D01*
X177149Y62200D01*
Y62800D01*
X177248Y62805D01*
X177347Y62821D01*
X177446Y62847D01*
X177546Y62884D01*
X177647Y62932D01*
X177747Y62990D01*
X177849Y63058D01*
X177951Y63137D01*
X178053Y63227D01*
X178156Y63327D01*
Y61673D01*
D02*
G37*
G36*
X151156Y65673D02*
X151135Y65688D01*
X151101Y65701D01*
X151055Y65712D01*
X150996Y65722D01*
X150840Y65738D01*
X150635Y65747D01*
X150379Y65750D01*
Y67250D01*
X150513Y67251D01*
X151055Y67288D01*
X151101Y67299D01*
X151135Y67312D01*
X151156Y67327D01*
Y65673D01*
D02*
G37*
G36*
X121247Y97327D02*
X121349Y97237D01*
X121451Y97158D01*
X121553Y97090D01*
X121653Y97032D01*
X121754Y96984D01*
X121854Y96947D01*
X121953Y96921D01*
X122053Y96905D01*
X122151Y96900D01*
Y96300D01*
X122053Y96295D01*
X121953Y96279D01*
X121854Y96253D01*
X121754Y96216D01*
X121653Y96168D01*
X121553Y96110D01*
X121451Y96042D01*
X121349Y95963D01*
X121247Y95873D01*
X121143Y95773D01*
Y97427D01*
X121247Y97327D01*
D02*
G37*
G36*
X99360Y158929D02*
X99369Y158825D01*
X99384Y158733D01*
X99405Y158654D01*
X99432Y158587D01*
X99465Y158532D01*
X99504Y158489D01*
X99549Y158458D01*
X99600Y158440D01*
X99657Y158434D01*
X98457D01*
X98514Y158440D01*
X98565Y158458D01*
X98610Y158489D01*
X98649Y158532D01*
X98682Y158587D01*
X98709Y158654D01*
X98730Y158733D01*
X98745Y158825D01*
X98754Y158929D01*
X98757Y159046D01*
X99357D01*
X99360Y158929D01*
D02*
G37*
G36*
X268354Y159663D02*
X268382Y159360D01*
X268406Y159224D01*
X268438Y159099D01*
X268477Y158983D01*
X268523Y158878D01*
X268576Y158783D01*
X268635Y158699D01*
X268702Y158625D01*
X266498D01*
X266565Y158699D01*
X266624Y158783D01*
X266677Y158878D01*
X266723Y158983D01*
X266762Y159099D01*
X266794Y159224D01*
X266818Y159360D01*
X266836Y159506D01*
X266846Y159663D01*
X266850Y159830D01*
X268350D01*
X268354Y159663D01*
D02*
G37*
G36*
X161727Y160054D02*
X161637Y159951D01*
X161558Y159849D01*
X161490Y159748D01*
X161432Y159646D01*
X161384Y159546D01*
X161347Y159446D01*
X161321Y159346D01*
X161305Y159248D01*
X161300Y159149D01*
X160700D01*
X160695Y159248D01*
X160679Y159346D01*
X160653Y159446D01*
X160616Y159546D01*
X160568Y159646D01*
X160510Y159748D01*
X160442Y159849D01*
X160363Y159951D01*
X160273Y160054D01*
X160173Y160157D01*
X161827D01*
X161727Y160054D01*
D02*
G37*
G36*
X227988Y147819D02*
X227845Y147817D01*
X227709Y147808D01*
X227581Y147792D01*
X227461Y147768D01*
X227348Y147738D01*
X227244Y147700D01*
X227147Y147655D01*
X227058Y147604D01*
X226977Y147545D01*
X226903Y147479D01*
X226479Y147903D01*
X226545Y147977D01*
X226604Y148058D01*
X226656Y148147D01*
X226700Y148244D01*
X226738Y148348D01*
X226768Y148461D01*
X226792Y148581D01*
X226808Y148709D01*
X226817Y148845D01*
X226819Y148988D01*
X227988Y147819D01*
D02*
G37*
G36*
X159253Y151666D02*
X159153Y150780D01*
X159142Y150391D01*
X159156Y150038D01*
X159196Y149721D01*
X159262Y149440D01*
X159353Y149194D01*
X159470Y148985D01*
X159613Y148812D01*
X159109Y148467D01*
X158984Y148566D01*
X158806Y148667D01*
X158575Y148768D01*
X158291Y148871D01*
X157565Y149080D01*
X156627Y149294D01*
X155478Y149512D01*
X159341Y152163D01*
X159253Y151666D01*
D02*
G37*
G36*
X268351Y156116D02*
X267124Y154763D01*
X265890Y155651D01*
X266007Y155774D01*
X266107Y155891D01*
X266189Y156003D01*
X266254Y156110D01*
X266302Y156211D01*
X266332Y156307D01*
X266346Y156398D01*
X266342Y156483D01*
X266320Y156563D01*
X266282Y156638D01*
X268351Y156116D01*
D02*
G37*
G36*
X163656Y170173D02*
X163554Y170273D01*
X163451Y170363D01*
X163349Y170442D01*
X163248Y170510D01*
X163146Y170568D01*
X163046Y170616D01*
X162946Y170653D01*
X162847Y170679D01*
X162748Y170695D01*
X162649Y170700D01*
Y171300D01*
X162748Y171305D01*
X162847Y171321D01*
X162946Y171347D01*
X163046Y171384D01*
X163146Y171432D01*
X163248Y171490D01*
X163349Y171558D01*
X163451Y171637D01*
X163554Y171727D01*
X163656Y171827D01*
Y170173D01*
D02*
G37*
G36*
X115227Y173054D02*
X115137Y172951D01*
X115058Y172849D01*
X114990Y172748D01*
X114932Y172646D01*
X114884Y172546D01*
X114847Y172446D01*
X114821Y172346D01*
X114805Y172248D01*
X114800Y172149D01*
X114200D01*
X114195Y172248D01*
X114179Y172346D01*
X114153Y172446D01*
X114116Y172546D01*
X114068Y172646D01*
X114010Y172748D01*
X113942Y172849D01*
X113863Y172951D01*
X113773Y173054D01*
X113673Y173156D01*
X115327D01*
X115227Y173054D01*
D02*
G37*
G36*
X125812Y175135D02*
X125799Y175101D01*
X125788Y175055D01*
X125778Y174996D01*
X125762Y174840D01*
X125753Y174635D01*
X125750Y174379D01*
X124250D01*
X124249Y174513D01*
X124212Y175055D01*
X124201Y175101D01*
X124188Y175135D01*
X124173Y175156D01*
X125827D01*
X125812Y175135D01*
D02*
G37*
G36*
X125751Y166987D02*
X125788Y166445D01*
X125799Y166399D01*
X125812Y166365D01*
X125827Y166343D01*
X124173D01*
X124188Y166365D01*
X124201Y166399D01*
X124212Y166445D01*
X124222Y166504D01*
X124238Y166659D01*
X124247Y166865D01*
X124250Y167121D01*
X125750D01*
X125751Y166987D01*
D02*
G37*
G36*
X139946Y171227D02*
X140049Y171137D01*
X140151Y171058D01*
X140252Y170990D01*
X140354Y170932D01*
X140454Y170884D01*
X140554Y170847D01*
X140654Y170821D01*
X140752Y170805D01*
X140851Y170800D01*
Y170200D01*
X140752Y170195D01*
X140654Y170179D01*
X140554Y170153D01*
X140454Y170116D01*
X140354Y170068D01*
X140252Y170010D01*
X140151Y169942D01*
X140049Y169863D01*
X139946Y169773D01*
X139843Y169673D01*
Y171327D01*
X139946Y171227D01*
D02*
G37*
G36*
X145275Y169673D02*
X145172Y169773D01*
X145070Y169863D01*
X144968Y169942D01*
X144866Y170010D01*
X144765Y170068D01*
X144665Y170116D01*
X144565Y170153D01*
X144465Y170179D01*
X144366Y170195D01*
X144268Y170200D01*
Y170800D01*
X144366Y170805D01*
X144465Y170821D01*
X144565Y170847D01*
X144665Y170884D01*
X144765Y170932D01*
X144866Y170990D01*
X144968Y171058D01*
X145070Y171137D01*
X145172Y171227D01*
X145275Y171327D01*
Y169673D01*
D02*
G37*
G36*
X259851Y138561D02*
X259887Y138077D01*
X259900Y138017D01*
X259915Y137969D01*
X259933Y137934D01*
X259952Y137910D01*
X258305Y137770D01*
X258313Y137787D01*
X258321Y137818D01*
X258328Y137861D01*
X258339Y137986D01*
X258348Y138273D01*
X258350Y138529D01*
X259850Y138695D01*
X259851Y138561D01*
D02*
G37*
G36*
X155227Y139053D02*
X155137Y138951D01*
X155058Y138849D01*
X154990Y138748D01*
X154932Y138646D01*
X154884Y138546D01*
X154847Y138446D01*
X154821Y138347D01*
X154805Y138248D01*
X154800Y138149D01*
X154200D01*
X154195Y138248D01*
X154179Y138347D01*
X154153Y138446D01*
X154116Y138546D01*
X154068Y138646D01*
X154010Y138748D01*
X153942Y138849D01*
X153863Y138951D01*
X153773Y139053D01*
X153673Y139156D01*
X155327D01*
X155227Y139053D01*
D02*
G37*
G36*
X167305Y139252D02*
X167321Y139154D01*
X167347Y139054D01*
X167384Y138954D01*
X167432Y138854D01*
X167490Y138752D01*
X167558Y138651D01*
X167637Y138549D01*
X167727Y138446D01*
X167827Y138344D01*
X166173D01*
X166273Y138446D01*
X166363Y138549D01*
X166442Y138651D01*
X166510Y138752D01*
X166568Y138854D01*
X166616Y138954D01*
X166653Y139054D01*
X166679Y139154D01*
X166695Y139252D01*
X166700Y139351D01*
X167300D01*
X167305Y139252D01*
D02*
G37*
G36*
X329156Y131173D02*
X329053Y131273D01*
X328951Y131363D01*
X328849Y131442D01*
X328748Y131510D01*
X328646Y131568D01*
X328546Y131616D01*
X328446Y131653D01*
X328346Y131679D01*
X328247Y131695D01*
X328149Y131700D01*
Y132300D01*
X328247Y132305D01*
X328346Y132321D01*
X328446Y132347D01*
X328546Y132384D01*
X328646Y132432D01*
X328748Y132490D01*
X328849Y132558D01*
X328951Y132637D01*
X329053Y132727D01*
X329156Y132827D01*
Y131173D01*
D02*
G37*
G36*
X167727Y136554D02*
X167637Y136451D01*
X167558Y136349D01*
X167490Y136248D01*
X167432Y136146D01*
X167384Y136046D01*
X167347Y135946D01*
X167321Y135846D01*
X167305Y135748D01*
X167300Y135649D01*
X166700D01*
X166695Y135748D01*
X166679Y135846D01*
X166653Y135946D01*
X166616Y136046D01*
X166568Y136146D01*
X166510Y136248D01*
X166442Y136349D01*
X166363Y136451D01*
X166273Y136554D01*
X166173Y136656D01*
X167827D01*
X167727Y136554D01*
D02*
G37*
G36*
X162727Y138554D02*
X162637Y138451D01*
X162558Y138349D01*
X162490Y138248D01*
X162432Y138146D01*
X162384Y138046D01*
X162347Y137946D01*
X162321Y137847D01*
X162305Y137748D01*
X162300Y137649D01*
X161700D01*
X161695Y137748D01*
X161679Y137847D01*
X161653Y137946D01*
X161616Y138046D01*
X161568Y138146D01*
X161510Y138248D01*
X161442Y138349D01*
X161363Y138451D01*
X161273Y138554D01*
X161173Y138656D01*
X162827D01*
X162727Y138554D01*
D02*
G37*
G36*
X159157Y142673D02*
X159054Y142773D01*
X158951Y142863D01*
X158849Y142942D01*
X158747Y143010D01*
X158647Y143068D01*
X158546Y143116D01*
X158446Y143153D01*
X158346Y143179D01*
X158247Y143195D01*
X158149Y143200D01*
Y143800D01*
X158247Y143805D01*
X158346Y143821D01*
X158446Y143847D01*
X158546Y143884D01*
X158647Y143932D01*
X158747Y143990D01*
X158849Y144058D01*
X158951Y144137D01*
X159054Y144227D01*
X159157Y144327D01*
Y142673D01*
D02*
G37*
G36*
X285005Y148959D02*
X285050Y148447D01*
X285125Y147995D01*
X285230Y147604D01*
X285365Y147272D01*
X285530Y147001D01*
X285725Y146790D01*
X285950Y146640D01*
X286205Y146549D01*
X286490Y146519D01*
X280490D01*
X280775Y146549D01*
X281030Y146640D01*
X281255Y146790D01*
X281450Y147001D01*
X281615Y147272D01*
X281750Y147604D01*
X281855Y147995D01*
X281930Y148447D01*
X281975Y148959D01*
X281990Y149531D01*
X284990D01*
X285005Y148959D01*
D02*
G37*
G36*
X153477Y148455D02*
X153558Y148396D01*
X153647Y148345D01*
X153744Y148300D01*
X153848Y148262D01*
X153961Y148232D01*
X154081Y148208D01*
X154209Y148192D01*
X154345Y148183D01*
X154488Y148181D01*
X153319Y147012D01*
X153317Y147155D01*
X153308Y147291D01*
X153291Y147419D01*
X153268Y147539D01*
X153238Y147652D01*
X153200Y147756D01*
X153156Y147853D01*
X153104Y147942D01*
X153045Y148023D01*
X152979Y148097D01*
X153403Y148521D01*
X153477Y148455D01*
D02*
G37*
G36*
X107157Y138673D02*
X107053Y138773D01*
X106951Y138863D01*
X106849Y138942D01*
X106747Y139010D01*
X106647Y139068D01*
X106546Y139116D01*
X106446Y139153D01*
X106346Y139179D01*
X106247Y139195D01*
X106149Y139200D01*
Y139800D01*
X106247Y139805D01*
X106346Y139821D01*
X106446Y139847D01*
X106546Y139884D01*
X106647Y139932D01*
X106747Y139990D01*
X106849Y140058D01*
X106951Y140137D01*
X107053Y140227D01*
X107157Y140327D01*
Y138673D01*
D02*
G37*
G36*
X143521Y140097D02*
X143455Y140023D01*
X143396Y139942D01*
X143344Y139853D01*
X143300Y139756D01*
X143262Y139652D01*
X143232Y139539D01*
X143209Y139419D01*
X143192Y139291D01*
X143183Y139155D01*
X143181Y139012D01*
X142012Y140181D01*
X142155Y140183D01*
X142291Y140192D01*
X142419Y140208D01*
X142539Y140232D01*
X142652Y140262D01*
X142756Y140300D01*
X142853Y140345D01*
X142942Y140396D01*
X143023Y140455D01*
X143097Y140521D01*
X143521Y140097D01*
D02*
G37*
G36*
X172977Y143955D02*
X173058Y143896D01*
X173147Y143844D01*
X173244Y143800D01*
X173348Y143762D01*
X173461Y143732D01*
X173581Y143709D01*
X173709Y143692D01*
X173845Y143683D01*
X173988Y143681D01*
X172819Y142512D01*
X172817Y142655D01*
X172808Y142791D01*
X172792Y142919D01*
X172768Y143039D01*
X172738Y143152D01*
X172700Y143256D01*
X172655Y143353D01*
X172604Y143442D01*
X172545Y143523D01*
X172479Y143597D01*
X172903Y144021D01*
X172977Y143955D01*
D02*
G37*
G36*
X268412Y175535D02*
X268399Y175501D01*
X268388Y175455D01*
X268378Y175396D01*
X268362Y175241D01*
X268353Y175035D01*
X268350Y174779D01*
X266850D01*
X266849Y174913D01*
X266812Y175455D01*
X266801Y175501D01*
X266788Y175535D01*
X266773Y175557D01*
X268427D01*
X268412Y175535D01*
D02*
G37*
G36*
X297480Y203220D02*
X297279Y203406D01*
X297060Y203573D01*
X296824Y203720D01*
X296570Y203847D01*
X296298Y203955D01*
X296008Y204043D01*
X295701Y204112D01*
X295377Y204161D01*
X295034Y204190D01*
X294674Y204200D01*
Y207200D01*
X295034Y207210D01*
X295377Y207239D01*
X295701Y207288D01*
X296008Y207357D01*
X296298Y207445D01*
X296570Y207553D01*
X296824Y207680D01*
X297060Y207827D01*
X297279Y207994D01*
X297480Y208180D01*
Y203220D01*
D02*
G37*
G36*
X250412Y208291D02*
X250658Y208062D01*
X250922Y207860D01*
X251204Y207685D01*
X251503Y207537D01*
X251820Y207416D01*
X252154Y207321D01*
X252506Y207254D01*
X252876Y207213D01*
X253263Y207200D01*
X252967Y204200D01*
X252585Y204189D01*
X252215Y204154D01*
X251857Y204097D01*
X251510Y204017D01*
X251176Y203914D01*
X250854Y203789D01*
X250543Y203640D01*
X250244Y203469D01*
X249958Y203275D01*
X249683Y203058D01*
X247133Y205557D01*
X244584Y203058D01*
X244309Y203275D01*
X244022Y203469D01*
X243724Y203640D01*
X243413Y203789D01*
X243091Y203914D01*
X242756Y204017D01*
X242410Y204097D01*
X242052Y204154D01*
X241682Y204189D01*
X241300Y204200D01*
X241003Y207200D01*
X241391Y207213D01*
X241760Y207254D01*
X242112Y207321D01*
X242447Y207416D01*
X242764Y207537D01*
X243063Y207685D01*
X243344Y207860D01*
X243608Y208062D01*
X243854Y208291D01*
X244083Y208547D01*
X247133Y205557D01*
X250184Y208547D01*
X250412Y208291D01*
D02*
G37*
G36*
X268646D02*
X268892Y208062D01*
X269156Y207860D01*
X269437Y207685D01*
X269736Y207537D01*
X270053Y207416D01*
X270388Y207321D01*
X270740Y207254D01*
X271109Y207213D01*
X271497Y207200D01*
X271200Y204200D01*
X270818Y204189D01*
X270448Y204154D01*
X270090Y204097D01*
X269744Y204017D01*
X269409Y203914D01*
X269087Y203789D01*
X268776Y203640D01*
X268478Y203469D01*
X268191Y203275D01*
X267916Y203058D01*
X265367Y205557D01*
X262817Y203058D01*
X262542Y203275D01*
X262256Y203469D01*
X261957Y203640D01*
X261646Y203789D01*
X261324Y203914D01*
X260990Y204017D01*
X260643Y204097D01*
X260285Y204154D01*
X259915Y204189D01*
X259533Y204200D01*
X259237Y207200D01*
X259624Y207213D01*
X259994Y207254D01*
X260346Y207321D01*
X260680Y207416D01*
X260997Y207537D01*
X261296Y207685D01*
X261578Y207860D01*
X261842Y208062D01*
X262088Y208291D01*
X262316Y208547D01*
X265367Y205557D01*
X268417Y208547D01*
X268646Y208291D01*
D02*
G37*
G36*
X36656Y192173D02*
X36553Y192273D01*
X36451Y192363D01*
X36349Y192442D01*
X36248Y192510D01*
X36147Y192568D01*
X36046Y192616D01*
X35946Y192653D01*
X35846Y192679D01*
X35748Y192695D01*
X35649Y192700D01*
Y193300D01*
X35748Y193305D01*
X35846Y193321D01*
X35946Y193347D01*
X36046Y193384D01*
X36147Y193432D01*
X36248Y193490D01*
X36349Y193558D01*
X36451Y193637D01*
X36553Y193727D01*
X36656Y193827D01*
Y192173D01*
D02*
G37*
G36*
X232179Y208291D02*
X232425Y208062D01*
X232689Y207860D01*
X232970Y207685D01*
X233270Y207537D01*
X233586Y207416D01*
X233921Y207321D01*
X234273Y207254D01*
X234643Y207213D01*
X235030Y207200D01*
X234734Y204200D01*
X234351Y204189D01*
X233981Y204154D01*
X233623Y204097D01*
X233277Y204017D01*
X232943Y203914D01*
X232620Y203789D01*
X232310Y203640D01*
X232011Y203469D01*
X231725Y203275D01*
X231450Y203058D01*
X231950Y208547D01*
X232179Y208291D01*
D02*
G37*
G36*
X226232Y203162D02*
X225817Y203532D01*
X225029Y204154D01*
X224656Y204407D01*
X224298Y204621D01*
X223954Y204796D01*
X223623Y204932D01*
X223307Y205030D01*
X223005Y205088D01*
X222717Y205107D01*
X222639Y206608D01*
X222941Y206628D01*
X223249Y206690D01*
X223563Y206793D01*
X223884Y206937D01*
X224212Y207122D01*
X224547Y207349D01*
X224888Y207617D01*
X225236Y207926D01*
X225591Y208276D01*
X225952Y208667D01*
X226232Y203162D01*
D02*
G37*
G36*
X119062Y214468D02*
X119011Y214450D01*
X118966Y214420D01*
X118927Y214378D01*
X118894Y214324D01*
X118867Y214258D01*
X118846Y214180D01*
X118831Y214090D01*
X118822Y213988D01*
X118819Y213874D01*
X118219D01*
X118216Y213988D01*
X118207Y214090D01*
X118192Y214180D01*
X118171Y214258D01*
X118144Y214324D01*
X118111Y214378D01*
X118072Y214420D01*
X118027Y214450D01*
X117976Y214468D01*
X117919Y214474D01*
X119119D01*
X119062Y214468D01*
D02*
G37*
G36*
X11201Y220528D02*
X11112Y220425D01*
X11033Y220323D01*
X10964Y220222D01*
X10906Y220121D01*
X10859Y220020D01*
X10822Y219920D01*
X10796Y219821D01*
X10780Y219722D01*
X10774Y219623D01*
X10174D01*
X10169Y219722D01*
X10153Y219821D01*
X10127Y219920D01*
X10090Y220020D01*
X10043Y220121D01*
X9985Y220222D01*
X9916Y220323D01*
X9837Y220425D01*
X9748Y220528D01*
X9648Y220631D01*
X11301D01*
X11201Y220528D01*
D02*
G37*
G36*
X17701D02*
X17612Y220425D01*
X17533Y220323D01*
X17464Y220222D01*
X17406Y220121D01*
X17359Y220020D01*
X17322Y219920D01*
X17296Y219821D01*
X17280Y219722D01*
X17274Y219623D01*
X16674D01*
X16669Y219722D01*
X16653Y219821D01*
X16627Y219920D01*
X16590Y220020D01*
X16543Y220121D01*
X16485Y220222D01*
X16416Y220323D01*
X16337Y220425D01*
X16248Y220528D01*
X16148Y220631D01*
X17801D01*
X17701Y220528D01*
D02*
G37*
G36*
X286701Y208230D02*
X286966Y208014D01*
X287246Y207823D01*
X287541Y207658D01*
X287850Y207518D01*
X288175Y207403D01*
X288515Y207314D01*
X288870Y207251D01*
X289240Y207213D01*
X289625Y207200D01*
X289578Y204200D01*
X289194Y204188D01*
X288824Y204150D01*
X288468Y204088D01*
X288126Y204002D01*
X287798Y203890D01*
X287485Y203754D01*
X287185Y203593D01*
X286899Y203407D01*
X286628Y203196D01*
X286371Y202961D01*
X283600Y205677D01*
X280890Y203021D01*
X286276Y202870D01*
X286032Y202624D01*
X285813Y202362D01*
X285620Y202085D01*
X285453Y201792D01*
X285311Y201484D01*
X285196Y201161D01*
X285105Y200822D01*
X285041Y200467D01*
X285003Y200097D01*
X284990Y199712D01*
X281990Y199803D01*
X281978Y200186D01*
X281941Y200556D01*
X281880Y200913D01*
X281794Y201256D01*
X281684Y201585D01*
X281549Y201900D01*
X281390Y202202D01*
X281207Y202489D01*
X280999Y202764D01*
X280796Y202991D01*
X280572Y203196D01*
X280300Y203407D01*
X280015Y203593D01*
X279715Y203754D01*
X279402Y203890D01*
X279074Y204002D01*
X278732Y204088D01*
X278376Y204150D01*
X278006Y204188D01*
X277622Y204200D01*
X277575Y207200D01*
X277960Y207213D01*
X278330Y207251D01*
X278685Y207314D01*
X279025Y207403D01*
X279349Y207518D01*
X279659Y207658D01*
X279954Y207823D01*
X280234Y208014D01*
X280499Y208230D01*
X280749Y208472D01*
X283600Y205677D01*
X286452Y208472D01*
X286701Y208230D01*
D02*
G37*
G36*
X82454Y214441D02*
X81535Y213398D01*
X81311Y213092D01*
X81127Y212807D01*
X80984Y212544D01*
X80882Y212301D01*
X80820Y212080D01*
X80800Y211880D01*
X80200D01*
X80180Y212080D01*
X80118Y212301D01*
X80016Y212544D01*
X79873Y212807D01*
X79689Y213092D01*
X79465Y213398D01*
X78893Y214072D01*
X78158Y214831D01*
X82842D01*
X82454Y214441D01*
D02*
G37*
G36*
X160557Y214459D02*
X160430Y214414D01*
X160318Y214339D01*
X160220Y214234D01*
X160137Y214099D01*
X160070Y213934D01*
X160018Y213739D01*
X159980Y213514D01*
X159958Y213259D01*
X159950Y212974D01*
X158450D01*
X158442Y213259D01*
X158420Y213514D01*
X158382Y213739D01*
X158330Y213934D01*
X158263Y214099D01*
X158180Y214234D01*
X158082Y214339D01*
X157970Y214414D01*
X157843Y214459D01*
X157700Y214474D01*
X160700D01*
X160557Y214459D01*
D02*
G37*
G36*
X118819Y185346D02*
X118824Y185248D01*
X118840Y185149D01*
X118866Y185049D01*
X118902Y184949D01*
X118949Y184848D01*
X119007Y184746D01*
X119074Y184643D01*
X119152Y184540D01*
X119241Y184435D01*
X119340Y184330D01*
X118526Y183500D01*
X119340Y182670D01*
X119241Y182565D01*
X119152Y182460D01*
X119074Y182357D01*
X119007Y182254D01*
X118949Y182152D01*
X118902Y182051D01*
X118866Y181951D01*
X118840Y181851D01*
X118824Y181752D01*
X118819Y181654D01*
X118219Y181644D01*
X118214Y181743D01*
X118198Y181842D01*
X118171Y181942D01*
X118134Y182041D01*
X118086Y182141D01*
X118027Y182241D01*
X117958Y182341D01*
X117878Y182442D01*
X117788Y182543D01*
X117687Y182643D01*
X118526Y183500D01*
X117687Y184357D01*
X117788Y184458D01*
X117878Y184558D01*
X117958Y184659D01*
X118027Y184759D01*
X118086Y184859D01*
X118134Y184959D01*
X118171Y185058D01*
X118198Y185158D01*
X118214Y185257D01*
X118219Y185356D01*
X118819Y185346D01*
D02*
G37*
G36*
X87227Y182554D02*
X87137Y182451D01*
X87058Y182349D01*
X86990Y182247D01*
X86932Y182147D01*
X86884Y182046D01*
X86847Y181946D01*
X86821Y181846D01*
X86805Y181747D01*
X86800Y181649D01*
X86200D01*
X86195Y181747D01*
X86179Y181846D01*
X86153Y181946D01*
X86116Y182046D01*
X86068Y182147D01*
X86010Y182247D01*
X85942Y182349D01*
X85863Y182451D01*
X85773Y182554D01*
X85673Y182657D01*
X87327D01*
X87227Y182554D01*
D02*
G37*
G36*
X181300Y184500D02*
X180700Y183600D01*
X180694Y183714D01*
X180676Y183816D01*
X180646Y183906D01*
X180604Y183984D01*
X180550Y184050D01*
X180484Y184104D01*
X180406Y184146D01*
X180316Y184176D01*
X180214Y184194D01*
X180100Y184200D01*
Y184800D01*
X180214Y184806D01*
X180316Y184824D01*
X180406Y184854D01*
X180484Y184896D01*
X180550Y184950D01*
X180604Y185016D01*
X180646Y185094D01*
X180676Y185184D01*
X180694Y185286D01*
X180700Y185400D01*
X181300Y184500D01*
D02*
G37*
G36*
X159977Y176955D02*
X160058Y176896D01*
X160147Y176845D01*
X160244Y176800D01*
X160348Y176762D01*
X160461Y176732D01*
X160581Y176708D01*
X160709Y176692D01*
X160845Y176683D01*
X160988Y176681D01*
X159819Y175512D01*
X159817Y175655D01*
X159808Y175791D01*
X159792Y175919D01*
X159768Y176039D01*
X159738Y176152D01*
X159700Y176256D01*
X159655Y176353D01*
X159604Y176442D01*
X159545Y176523D01*
X159479Y176597D01*
X159903Y177021D01*
X159977Y176955D01*
D02*
G37*
G36*
X147476Y177552D02*
X147485Y177416D01*
X147502Y177288D01*
X147525Y177168D01*
X147555Y177055D01*
X147593Y176951D01*
X147637Y176854D01*
X147689Y176765D01*
X147748Y176684D01*
X147814Y176610D01*
X147390Y176186D01*
X147316Y176252D01*
X147235Y176311D01*
X147146Y176363D01*
X147049Y176407D01*
X146945Y176445D01*
X146832Y176475D01*
X146712Y176498D01*
X146584Y176515D01*
X146448Y176524D01*
X146305Y176526D01*
X147474Y177695D01*
X147476Y177552D01*
D02*
G37*
G36*
X268351Y177887D02*
X268388Y177345D01*
X268399Y177299D01*
X268412Y177265D01*
X268427Y177243D01*
X266773D01*
X266788Y177265D01*
X266801Y177299D01*
X266812Y177345D01*
X266822Y177404D01*
X266838Y177559D01*
X266847Y177765D01*
X266850Y178021D01*
X268350D01*
X268351Y177887D01*
D02*
G37*
G36*
X139115Y191342D02*
X138941Y190513D01*
X138901Y190145D01*
X138892Y189808D01*
X138915Y189503D01*
X138969Y189229D01*
X139055Y188986D01*
X139172Y188775D01*
X139320Y188595D01*
X138767Y188300D01*
X138672Y188371D01*
X138517Y188455D01*
X138303Y188552D01*
X137693Y188786D01*
X135753Y189408D01*
X135118Y189596D01*
X139250Y191804D01*
X139115Y191342D01*
D02*
G37*
G36*
X179405Y192225D02*
X179493Y190837D01*
X179550Y190462D01*
X179621Y190131D01*
X179706Y189843D01*
X179806Y189600D01*
X179919Y189400D01*
X180046Y189244D01*
X179622Y188819D01*
X179466Y188947D01*
X179266Y189060D01*
X179022Y189159D01*
X178735Y189244D01*
X178403Y189315D01*
X178029Y189373D01*
X177147Y189445D01*
X176091Y189462D01*
X179404Y192775D01*
X179405Y192225D01*
D02*
G37*
G36*
X199451Y190787D02*
X199488Y190245D01*
X199499Y190199D01*
X199512Y190165D01*
X199527Y190144D01*
X197873D01*
X197888Y190165D01*
X197901Y190199D01*
X197912Y190245D01*
X197922Y190304D01*
X197938Y190460D01*
X197947Y190665D01*
X197950Y190921D01*
X199450D01*
X199451Y190787D01*
D02*
G37*
G36*
X160447Y185227D02*
X160549Y185137D01*
X160651Y185058D01*
X160752Y184990D01*
X160854Y184932D01*
X160954Y184884D01*
X161054Y184847D01*
X161153Y184821D01*
X161252Y184805D01*
X161351Y184800D01*
Y184200D01*
X161252Y184195D01*
X161153Y184179D01*
X161054Y184153D01*
X160954Y184116D01*
X160854Y184068D01*
X160752Y184010D01*
X160651Y183942D01*
X160549Y183863D01*
X160447Y183773D01*
X160344Y183673D01*
Y185327D01*
X160447Y185227D01*
D02*
G37*
G36*
X144683Y187345D02*
X144692Y187209D01*
X144709Y187081D01*
X144732Y186961D01*
X144762Y186848D01*
X144800Y186744D01*
X144844Y186647D01*
X144896Y186558D01*
X144955Y186477D01*
X145021Y186403D01*
X144597Y185979D01*
X144523Y186045D01*
X144442Y186104D01*
X144353Y186155D01*
X144256Y186200D01*
X144152Y186238D01*
X144039Y186268D01*
X143919Y186292D01*
X143791Y186308D01*
X143655Y186317D01*
X143512Y186319D01*
X144681Y187488D01*
X144683Y187345D01*
D02*
G37*
G36*
X158012Y190028D02*
X157093Y188985D01*
X156868Y188679D01*
X156684Y188395D01*
X156541Y188131D01*
X156439Y187889D01*
X156378Y187668D01*
X156357Y187467D01*
X155757D01*
X155737Y187668D01*
X155676Y187889D01*
X155573Y188131D01*
X155430Y188395D01*
X155247Y188679D01*
X155022Y188985D01*
X154450Y189660D01*
X153715Y190418D01*
X158400D01*
X158012Y190028D01*
D02*
G37*
G36*
X310946Y132727D02*
X311049Y132637D01*
X311151Y132558D01*
X311252Y132490D01*
X311353Y132432D01*
X311454Y132384D01*
X311554Y132347D01*
X311653Y132321D01*
X311753Y132305D01*
X311851Y132300D01*
Y131700D01*
X311753Y131695D01*
X311653Y131679D01*
X311554Y131653D01*
X311454Y131616D01*
X311353Y131568D01*
X311252Y131510D01*
X311151Y131442D01*
X311049Y131363D01*
X310946Y131273D01*
X310843Y131173D01*
Y132827D01*
X310946Y132727D01*
D02*
G37*
G36*
X113946Y106227D02*
X114049Y106137D01*
X114151Y106058D01*
X114252Y105990D01*
X114354Y105932D01*
X114454Y105884D01*
X114554Y105847D01*
X114654Y105821D01*
X114752Y105805D01*
X114851Y105800D01*
Y105200D01*
X114752Y105195D01*
X114654Y105179D01*
X114554Y105153D01*
X114454Y105116D01*
X114354Y105068D01*
X114252Y105010D01*
X114151Y104942D01*
X114049Y104863D01*
X113946Y104773D01*
X113844Y104673D01*
Y106327D01*
X113946Y106227D01*
D02*
G37*
G36*
X110892Y106886D02*
X110780Y106841D01*
X110679Y106789D01*
X110590Y106730D01*
X110513Y106665D01*
X110448Y106592D01*
X110395Y106513D01*
X110353Y106427D01*
X110324Y106334D01*
X110306Y106234D01*
X110300Y106127D01*
X109700Y106422D01*
X109697Y106502D01*
X109688Y106589D01*
X109673Y106684D01*
X109625Y106898D01*
X109553Y107144D01*
X109399Y107572D01*
X110892Y106886D01*
D02*
G37*
G36*
X182986Y109934D02*
X183002Y109835D01*
X183028Y109735D01*
X183065Y109635D01*
X183113Y109535D01*
X183171Y109434D01*
X183239Y109332D01*
X183318Y109230D01*
X183408Y109128D01*
X183508Y109025D01*
X181854D01*
X181954Y109128D01*
X182044Y109230D01*
X182123Y109332D01*
X182192Y109434D01*
X182249Y109535D01*
X182297Y109635D01*
X182334Y109735D01*
X182360Y109835D01*
X182376Y109934D01*
X182381Y110032D01*
X182981D01*
X182986Y109934D01*
D02*
G37*
G36*
X51988Y103319D02*
X51845Y103317D01*
X51709Y103308D01*
X51581Y103291D01*
X51461Y103268D01*
X51348Y103238D01*
X51244Y103200D01*
X51147Y103156D01*
X51058Y103104D01*
X50977Y103045D01*
X50903Y102979D01*
X50479Y103403D01*
X50545Y103477D01*
X50604Y103558D01*
X50656Y103647D01*
X50700Y103744D01*
X50738Y103848D01*
X50768Y103961D01*
X50792Y104081D01*
X50808Y104209D01*
X50817Y104345D01*
X50819Y104488D01*
X51988Y103319D01*
D02*
G37*
G36*
X315953Y104476D02*
X315850Y104577D01*
X315748Y104666D01*
X315646Y104745D01*
X315544Y104814D01*
X315443Y104871D01*
X315343Y104919D01*
X315243Y104956D01*
X315143Y104982D01*
X315044Y104998D01*
X314946Y105003D01*
Y105603D01*
X315044Y105608D01*
X315143Y105624D01*
X315243Y105651D01*
X315343Y105687D01*
X315443Y105735D01*
X315544Y105793D01*
X315646Y105861D01*
X315748Y105940D01*
X315850Y106030D01*
X315953Y106130D01*
Y104476D01*
D02*
G37*
G36*
X55477Y105955D02*
X55558Y105896D01*
X55647Y105844D01*
X55744Y105800D01*
X55848Y105762D01*
X55961Y105732D01*
X56081Y105709D01*
X56209Y105692D01*
X56345Y105683D01*
X56488Y105681D01*
X55319Y104512D01*
X55317Y104655D01*
X55308Y104791D01*
X55291Y104919D01*
X55268Y105039D01*
X55238Y105152D01*
X55200Y105256D01*
X55155Y105353D01*
X55104Y105442D01*
X55045Y105523D01*
X54979Y105597D01*
X55403Y106021D01*
X55477Y105955D01*
D02*
G37*
G36*
X314756Y110173D02*
X314735Y110188D01*
X314701Y110201D01*
X314655Y110212D01*
X314596Y110222D01*
X314440Y110238D01*
X314235Y110247D01*
X313979Y110250D01*
Y111750D01*
X314113Y111751D01*
X314655Y111788D01*
X314701Y111799D01*
X314735Y111812D01*
X314756Y111827D01*
Y110173D01*
D02*
G37*
G36*
X29465Y110981D02*
X29362Y111081D01*
X29259Y111171D01*
X29157Y111250D01*
X29056Y111318D01*
X28954Y111376D01*
X28854Y111424D01*
X28754Y111461D01*
X28655Y111487D01*
X28556Y111503D01*
X28457Y111508D01*
Y112108D01*
X28556Y112113D01*
X28655Y112129D01*
X28754Y112155D01*
X28854Y112192D01*
X28954Y112240D01*
X29056Y112298D01*
X29157Y112366D01*
X29259Y112445D01*
X29362Y112535D01*
X29465Y112635D01*
Y110981D01*
D02*
G37*
G36*
X54755Y112535D02*
X54857Y112445D01*
X54959Y112366D01*
X55061Y112298D01*
X55162Y112240D01*
X55262Y112192D01*
X55362Y112155D01*
X55462Y112129D01*
X55561Y112113D01*
X55659Y112108D01*
Y111508D01*
X55561Y111503D01*
X55462Y111487D01*
X55362Y111461D01*
X55262Y111424D01*
X55162Y111376D01*
X55061Y111318D01*
X54959Y111250D01*
X54857Y111171D01*
X54755Y111081D01*
X54651Y110981D01*
Y112635D01*
X54755Y112535D01*
D02*
G37*
G36*
X116446Y111227D02*
X116549Y111137D01*
X116651Y111058D01*
X116753Y110990D01*
X116853Y110932D01*
X116954Y110884D01*
X117054Y110847D01*
X117154Y110821D01*
X117253Y110805D01*
X117351Y110800D01*
Y110200D01*
X117253Y110195D01*
X117154Y110179D01*
X117054Y110153D01*
X116954Y110116D01*
X116853Y110068D01*
X116753Y110010D01*
X116651Y109942D01*
X116549Y109863D01*
X116446Y109773D01*
X116343Y109673D01*
Y111327D01*
X116446Y111227D01*
D02*
G37*
G36*
X123156Y109673D02*
X123054Y109773D01*
X122951Y109863D01*
X122849Y109942D01*
X122748Y110010D01*
X122646Y110068D01*
X122546Y110116D01*
X122446Y110153D01*
X122346Y110179D01*
X122248Y110195D01*
X122149Y110200D01*
Y110800D01*
X122248Y110805D01*
X122346Y110821D01*
X122446Y110847D01*
X122546Y110884D01*
X122646Y110932D01*
X122748Y110990D01*
X122849Y111058D01*
X122951Y111137D01*
X123054Y111227D01*
X123156Y111327D01*
Y109673D01*
D02*
G37*
G36*
X292656D02*
X292553Y109773D01*
X292451Y109863D01*
X292349Y109942D01*
X292248Y110010D01*
X292146Y110068D01*
X292046Y110116D01*
X291946Y110153D01*
X291846Y110179D01*
X291747Y110195D01*
X291649Y110200D01*
Y110800D01*
X291747Y110805D01*
X291846Y110821D01*
X291946Y110847D01*
X292046Y110884D01*
X292146Y110932D01*
X292248Y110990D01*
X292349Y111058D01*
X292451Y111137D01*
X292553Y111227D01*
X292656Y111327D01*
Y109673D01*
D02*
G37*
G36*
X322718Y98039D02*
X322553Y97829D01*
X322486Y97725D01*
X322429Y97622D01*
X322383Y97520D01*
X322346Y97419D01*
X322321Y97320D01*
X322305Y97221D01*
X322300Y97123D01*
X321700Y97105D01*
X321695Y97204D01*
X321678Y97303D01*
X321652Y97403D01*
X321614Y97502D01*
X321566Y97601D01*
X321507Y97700D01*
X321437Y97799D01*
X321357Y97899D01*
X321265Y97998D01*
X321164Y98097D01*
X322816Y98146D01*
X322718Y98039D01*
D02*
G37*
G36*
X163477Y100455D02*
X163558Y100396D01*
X163647Y100345D01*
X163744Y100300D01*
X163848Y100262D01*
X163961Y100232D01*
X164081Y100208D01*
X164209Y100192D01*
X164345Y100183D01*
X164488Y100181D01*
X163319Y99012D01*
X163317Y99155D01*
X163308Y99291D01*
X163292Y99419D01*
X163268Y99539D01*
X163238Y99652D01*
X163200Y99756D01*
X163155Y99853D01*
X163104Y99942D01*
X163045Y100023D01*
X162979Y100097D01*
X163403Y100521D01*
X163477Y100455D01*
D02*
G37*
G36*
X168305Y100752D02*
X168321Y100654D01*
X168347Y100554D01*
X168384Y100454D01*
X168432Y100354D01*
X168490Y100252D01*
X168558Y100151D01*
X168637Y100049D01*
X168727Y99946D01*
X168827Y99844D01*
X167173D01*
X167273Y99946D01*
X167363Y100049D01*
X167442Y100151D01*
X167510Y100252D01*
X167568Y100354D01*
X167616Y100454D01*
X167653Y100554D01*
X167679Y100654D01*
X167695Y100752D01*
X167700Y100851D01*
X168300D01*
X168305Y100752D01*
D02*
G37*
G36*
X99602Y98239D02*
X100256Y97598D01*
X99260Y96621D01*
X99237Y96646D01*
X99202Y96668D01*
X99155Y96687D01*
X99096Y96704D01*
X99024Y96718D01*
X98613Y96749D01*
X98480Y96750D01*
X98909Y98250D01*
X99602Y98239D01*
D02*
G37*
G36*
X102032Y96750D02*
X101898Y96749D01*
X101488Y96718D01*
X101416Y96704D01*
X101357Y96687D01*
X101310Y96668D01*
X101275Y96646D01*
X101252Y96621D01*
X100256Y97598D01*
X100910Y98239D01*
X101602Y98250D01*
X102032Y96750D01*
D02*
G37*
G36*
X56802Y99414D02*
X56852Y98653D01*
X56860Y98634D01*
X56935Y98544D01*
X57040Y98466D01*
X57175Y98400D01*
X57340Y98346D01*
X57535Y98304D01*
X58015Y98256D01*
X58300Y98250D01*
X56500Y96750D01*
X54700Y98250D01*
X54985Y98256D01*
X55240Y98274D01*
X55465Y98304D01*
X55660Y98346D01*
X55825Y98400D01*
X55960Y98466D01*
X56065Y98544D01*
X56140Y98634D01*
X56152Y98662D01*
X56179Y98939D01*
X56198Y99414D01*
X56200Y99687D01*
X56800D01*
X56802Y99414D01*
D02*
G37*
G36*
X113946Y102727D02*
X114049Y102637D01*
X114151Y102558D01*
X114252Y102490D01*
X114354Y102432D01*
X114454Y102384D01*
X114554Y102347D01*
X114654Y102321D01*
X114752Y102305D01*
X114851Y102300D01*
Y101700D01*
X114752Y101695D01*
X114654Y101679D01*
X114554Y101653D01*
X114454Y101616D01*
X114354Y101568D01*
X114252Y101510D01*
X114151Y101442D01*
X114049Y101363D01*
X113946Y101273D01*
X113844Y101173D01*
Y102827D01*
X113946Y102727D01*
D02*
G37*
G36*
X24343Y102227D02*
X24327Y102171D01*
X24322Y102112D01*
X24329Y102050D01*
X24348Y101985D01*
X24378Y101917D01*
X24420Y101845D01*
X24473Y101770D01*
X24539Y101692D01*
X24615Y101611D01*
X24191Y101187D01*
X24110Y101264D01*
X24032Y101329D01*
X23957Y101383D01*
X23886Y101424D01*
X23817Y101455D01*
X23752Y101473D01*
X23690Y101480D01*
X23631Y101476D01*
X23575Y101459D01*
X23523Y101431D01*
X24371Y102280D01*
X24343Y102227D01*
D02*
G37*
G36*
X57227Y103553D02*
X57137Y103451D01*
X57058Y103349D01*
X56990Y103247D01*
X56932Y103147D01*
X56884Y103046D01*
X56847Y102946D01*
X56821Y102847D01*
X56805Y102747D01*
X56800Y102649D01*
X56200D01*
X56195Y102747D01*
X56179Y102847D01*
X56153Y102946D01*
X56116Y103046D01*
X56068Y103147D01*
X56010Y103247D01*
X55942Y103349D01*
X55863Y103451D01*
X55773Y103553D01*
X55673Y103656D01*
X57327D01*
X57227Y103553D01*
D02*
G37*
G36*
X171805Y100752D02*
X171821Y100654D01*
X171847Y100554D01*
X171884Y100454D01*
X171932Y100354D01*
X171990Y100252D01*
X172058Y100151D01*
X172137Y100049D01*
X172227Y99946D01*
X172327Y99844D01*
X170673D01*
X170773Y99946D01*
X170863Y100049D01*
X170942Y100151D01*
X171010Y100252D01*
X171068Y100354D01*
X171116Y100454D01*
X171153Y100554D01*
X171179Y100654D01*
X171195Y100752D01*
X171200Y100851D01*
X171800D01*
X171805Y100752D01*
D02*
G37*
G36*
X175305D02*
X175321Y100654D01*
X175347Y100554D01*
X175384Y100454D01*
X175432Y100354D01*
X175490Y100252D01*
X175558Y100151D01*
X175637Y100049D01*
X175727Y99946D01*
X175827Y99844D01*
X174173D01*
X174273Y99946D01*
X174363Y100049D01*
X174442Y100151D01*
X174510Y100252D01*
X174568Y100354D01*
X174616Y100454D01*
X174653Y100554D01*
X174679Y100654D01*
X174695Y100752D01*
X174700Y100851D01*
X175300D01*
X175305Y100752D01*
D02*
G37*
G36*
X16859Y102989D02*
X16850Y102818D01*
X16865Y102644D01*
X16904Y102467D01*
X16967Y102287D01*
X17053Y102105D01*
X17164Y101920D01*
X17299Y101733D01*
X17457Y101543D01*
X17639Y101350D01*
X16579Y100289D01*
X16386Y100471D01*
X16195Y100630D01*
X16008Y100764D01*
X15823Y100875D01*
X15641Y100961D01*
X15461Y101024D01*
X15285Y101063D01*
X15111Y101078D01*
X14939Y101069D01*
X14771Y101036D01*
X16892Y103158D01*
X16859Y102989D01*
D02*
G37*
G36*
X24825Y112351D02*
X24853Y112300D01*
X24892Y112255D01*
X24940Y112216D01*
X25000Y112183D01*
X25069Y112156D01*
X25150Y112135D01*
X25240Y112120D01*
X25342Y112111D01*
X25453Y112108D01*
Y111508D01*
X25342Y111505D01*
X25240Y111496D01*
X25150Y111481D01*
X25069Y111460D01*
X25000Y111433D01*
X24940Y111400D01*
X24892Y111361D01*
X24853Y111316D01*
X24825Y111265D01*
X24808Y111208D01*
Y112408D01*
X24825Y112351D01*
D02*
G37*
G36*
X169805Y123752D02*
X169821Y123653D01*
X169847Y123554D01*
X169884Y123454D01*
X169932Y123354D01*
X169990Y123252D01*
X170058Y123151D01*
X170137Y123049D01*
X170227Y122947D01*
X170327Y122844D01*
X168673D01*
X168773Y122947D01*
X168863Y123049D01*
X168942Y123151D01*
X169010Y123252D01*
X169068Y123354D01*
X169116Y123454D01*
X169153Y123554D01*
X169179Y123653D01*
X169195Y123752D01*
X169200Y123851D01*
X169800D01*
X169805Y123752D01*
D02*
G37*
G36*
X111227Y125054D02*
X111137Y124951D01*
X111058Y124849D01*
X110990Y124748D01*
X110932Y124646D01*
X110884Y124546D01*
X110847Y124446D01*
X110821Y124346D01*
X110805Y124248D01*
X110800Y124149D01*
X110200D01*
X110195Y124248D01*
X110179Y124346D01*
X110153Y124446D01*
X110116Y124546D01*
X110068Y124646D01*
X110010Y124748D01*
X109942Y124849D01*
X109863Y124951D01*
X109773Y125054D01*
X109673Y125156D01*
X111327D01*
X111227Y125054D01*
D02*
G37*
G36*
X227447Y125727D02*
X227549Y125637D01*
X227651Y125558D01*
X227752Y125490D01*
X227853Y125432D01*
X227954Y125384D01*
X228054Y125347D01*
X228153Y125321D01*
X228253Y125305D01*
X228351Y125300D01*
Y124700D01*
X228253Y124695D01*
X228153Y124679D01*
X228054Y124653D01*
X227954Y124616D01*
X227853Y124568D01*
X227752Y124510D01*
X227651Y124442D01*
X227549Y124363D01*
X227447Y124273D01*
X227344Y124173D01*
Y125827D01*
X227447Y125727D01*
D02*
G37*
G36*
X214049Y122508D02*
X214065Y122409D01*
X214091Y122310D01*
X214128Y122210D01*
X214176Y122109D01*
X214234Y122008D01*
X214302Y121907D01*
X214381Y121805D01*
X214471Y121702D01*
X214571Y121599D01*
X212917D01*
X213017Y121702D01*
X213107Y121805D01*
X213186Y121907D01*
X213254Y122008D01*
X213312Y122109D01*
X213360Y122210D01*
X213397Y122310D01*
X213423Y122409D01*
X213439Y122508D01*
X213444Y122607D01*
X214044D01*
X214049Y122508D01*
D02*
G37*
G36*
X108683Y122510D02*
X108594Y122408D01*
X108515Y122306D01*
X108446Y122204D01*
X108388Y122103D01*
X108341Y122003D01*
X108304Y121903D01*
X108278Y121803D01*
X108262Y121704D01*
X108257Y121606D01*
X107657D01*
X107651Y121704D01*
X107636Y121803D01*
X107609Y121903D01*
X107572Y122003D01*
X107525Y122103D01*
X107467Y122204D01*
X107399Y122306D01*
X107320Y122408D01*
X107230Y122510D01*
X107130Y122613D01*
X108783D01*
X108683Y122510D01*
D02*
G37*
G36*
X47805Y122752D02*
X47821Y122653D01*
X47847Y122554D01*
X47884Y122454D01*
X47932Y122353D01*
X47990Y122253D01*
X48058Y122151D01*
X48137Y122049D01*
X48227Y121947D01*
X48327Y121844D01*
X46673D01*
X46773Y121947D01*
X46863Y122049D01*
X46942Y122151D01*
X47010Y122253D01*
X47068Y122353D01*
X47116Y122454D01*
X47153Y122554D01*
X47179Y122653D01*
X47195Y122752D01*
X47200Y122851D01*
X47800D01*
X47805Y122752D01*
D02*
G37*
G36*
X55656Y124673D02*
X55554Y124773D01*
X55451Y124863D01*
X55349Y124942D01*
X55247Y125010D01*
X55146Y125068D01*
X55046Y125116D01*
X54946Y125153D01*
X54847Y125179D01*
X54747Y125195D01*
X54649Y125200D01*
Y125800D01*
X54747Y125805D01*
X54847Y125821D01*
X54946Y125847D01*
X55046Y125884D01*
X55146Y125932D01*
X55247Y125990D01*
X55349Y126058D01*
X55451Y126137D01*
X55554Y126227D01*
X55656Y126327D01*
Y124673D01*
D02*
G37*
G36*
X111797Y127373D02*
X111728Y127295D01*
X111669Y127212D01*
X111623Y127123D01*
X111588Y127030D01*
X111565Y126932D01*
X111553Y126828D01*
X111553Y126720D01*
X111565Y126607D01*
X111588Y126488D01*
X111623Y126365D01*
X110158Y127130D01*
X110310Y127179D01*
X110708Y127329D01*
X110820Y127382D01*
X111016Y127489D01*
X111099Y127545D01*
X111172Y127601D01*
X111235Y127659D01*
X111797Y127373D01*
D02*
G37*
G36*
X214471Y129798D02*
X214381Y129695D01*
X214302Y129593D01*
X214234Y129492D01*
X214176Y129391D01*
X214128Y129290D01*
X214091Y129190D01*
X214065Y129091D01*
X214049Y128992D01*
X214044Y128893D01*
X213444D01*
X213439Y128992D01*
X213423Y129091D01*
X213397Y129190D01*
X213360Y129290D01*
X213312Y129391D01*
X213254Y129492D01*
X213186Y129593D01*
X213107Y129695D01*
X213017Y129798D01*
X212917Y129901D01*
X214571D01*
X214471Y129798D01*
D02*
G37*
G36*
X295157Y124173D02*
X295054Y124273D01*
X294951Y124363D01*
X294849Y124442D01*
X294747Y124510D01*
X294647Y124568D01*
X294546Y124616D01*
X294446Y124653D01*
X294346Y124679D01*
X294248Y124695D01*
X294149Y124700D01*
Y125300D01*
X294248Y125305D01*
X294346Y125321D01*
X294446Y125347D01*
X294546Y125384D01*
X294647Y125432D01*
X294747Y125490D01*
X294849Y125558D01*
X294951Y125637D01*
X295054Y125727D01*
X295157Y125827D01*
Y124173D01*
D02*
G37*
G36*
X108300Y125295D02*
X108305Y125198D01*
X108321Y125100D01*
X108346Y125000D01*
X108382Y124899D01*
X108429Y124797D01*
X108485Y124694D01*
X108552Y124589D01*
X108629Y124484D01*
X108716Y124377D01*
X108814Y124269D01*
X107161Y124330D01*
X107264Y124428D01*
X107355Y124526D01*
X107436Y124625D01*
X107506Y124723D01*
X107565Y124822D01*
X107614Y124921D01*
X107651Y125020D01*
X107678Y125119D01*
X107695Y125219D01*
X107700Y125318D01*
X108300Y125295D01*
D02*
G37*
G36*
X51306Y126286D02*
X51324Y126184D01*
X51354Y126094D01*
X51396Y126016D01*
X51450Y125950D01*
X51516Y125896D01*
X51594Y125854D01*
X51684Y125824D01*
X51786Y125806D01*
X51900Y125800D01*
Y125200D01*
X51786Y125194D01*
X51684Y125176D01*
X51594Y125146D01*
X51516Y125104D01*
X51450Y125050D01*
X51396Y124984D01*
X51354Y124906D01*
X51324Y124816D01*
X51306Y124714D01*
X51300Y124600D01*
X50700Y125500D01*
X51300Y126400D01*
X51306Y126286D01*
D02*
G37*
G36*
X165977Y116455D02*
X166058Y116396D01*
X166147Y116344D01*
X166244Y116300D01*
X166348Y116262D01*
X166461Y116232D01*
X166581Y116209D01*
X166709Y116192D01*
X166845Y116183D01*
X166988Y116181D01*
X165819Y115012D01*
X165817Y115155D01*
X165808Y115291D01*
X165791Y115419D01*
X165768Y115539D01*
X165738Y115652D01*
X165700Y115756D01*
X165656Y115853D01*
X165604Y115942D01*
X165545Y116023D01*
X165479Y116097D01*
X165903Y116521D01*
X165977Y116455D01*
D02*
G37*
G36*
X54447Y116727D02*
X54549Y116637D01*
X54651Y116558D01*
X54752Y116490D01*
X54853Y116432D01*
X54954Y116384D01*
X55054Y116347D01*
X55154Y116321D01*
X55252Y116305D01*
X55351Y116300D01*
Y115700D01*
X55252Y115695D01*
X55154Y115679D01*
X55054Y115653D01*
X54954Y115616D01*
X54853Y115568D01*
X54752Y115510D01*
X54651Y115442D01*
X54549Y115363D01*
X54447Y115273D01*
X54343Y115173D01*
Y116827D01*
X54447Y116727D01*
D02*
G37*
G36*
X79656Y115173D02*
X79554Y115273D01*
X79451Y115363D01*
X79349Y115442D01*
X79247Y115510D01*
X79146Y115568D01*
X79046Y115616D01*
X78946Y115653D01*
X78847Y115679D01*
X78747Y115695D01*
X78649Y115700D01*
Y116300D01*
X78747Y116305D01*
X78847Y116321D01*
X78946Y116347D01*
X79046Y116384D01*
X79146Y116432D01*
X79247Y116490D01*
X79349Y116558D01*
X79451Y116637D01*
X79554Y116727D01*
X79656Y116827D01*
Y115173D01*
D02*
G37*
G36*
X305521Y114597D02*
X305455Y114523D01*
X305396Y114442D01*
X305345Y114353D01*
X305300Y114256D01*
X305262Y114152D01*
X305232Y114039D01*
X305208Y113919D01*
X305192Y113791D01*
X305183Y113655D01*
X305181Y113512D01*
X304012Y114681D01*
X304155Y114683D01*
X304291Y114692D01*
X304419Y114708D01*
X304539Y114732D01*
X304652Y114762D01*
X304756Y114800D01*
X304853Y114845D01*
X304942Y114896D01*
X305023Y114955D01*
X305097Y115021D01*
X305521Y114597D01*
D02*
G37*
G36*
X147727Y115553D02*
X147637Y115451D01*
X147558Y115349D01*
X147490Y115247D01*
X147432Y115147D01*
X147384Y115046D01*
X147347Y114946D01*
X147321Y114847D01*
X147305Y114748D01*
X147300Y114649D01*
X146700D01*
X146695Y114748D01*
X146679Y114847D01*
X146653Y114946D01*
X146616Y115046D01*
X146568Y115147D01*
X146510Y115247D01*
X146442Y115349D01*
X146363Y115451D01*
X146273Y115553D01*
X146173Y115656D01*
X147827D01*
X147727Y115553D01*
D02*
G37*
G36*
X152727D02*
X152637Y115451D01*
X152558Y115349D01*
X152490Y115247D01*
X152432Y115147D01*
X152384Y115046D01*
X152347Y114946D01*
X152321Y114847D01*
X152305Y114748D01*
X152300Y114649D01*
X151700D01*
X151695Y114748D01*
X151679Y114847D01*
X151653Y114946D01*
X151616Y115046D01*
X151568Y115147D01*
X151510Y115247D01*
X151442Y115349D01*
X151363Y115451D01*
X151273Y115553D01*
X151173Y115656D01*
X152827D01*
X152727Y115553D01*
D02*
G37*
G36*
X55021Y122097D02*
X54955Y122023D01*
X54896Y121942D01*
X54844Y121853D01*
X54800Y121756D01*
X54762Y121652D01*
X54732Y121539D01*
X54708Y121419D01*
X54692Y121291D01*
X54683Y121155D01*
X54681Y121012D01*
X53512Y122181D01*
X53655Y122183D01*
X53791Y122192D01*
X53919Y122208D01*
X54039Y122232D01*
X54152Y122262D01*
X54256Y122300D01*
X54353Y122345D01*
X54442Y122396D01*
X54523Y122455D01*
X54597Y122521D01*
X55021Y122097D01*
D02*
G37*
G36*
X79477Y122455D02*
X79558Y122396D01*
X79647Y122345D01*
X79744Y122300D01*
X79848Y122262D01*
X79961Y122232D01*
X80081Y122208D01*
X80209Y122192D01*
X80345Y122183D01*
X80488Y122181D01*
X79319Y121012D01*
X79317Y121155D01*
X79308Y121291D01*
X79291Y121419D01*
X79268Y121539D01*
X79238Y121652D01*
X79200Y121756D01*
X79155Y121853D01*
X79104Y121942D01*
X79045Y122023D01*
X78979Y122097D01*
X79403Y122521D01*
X79477Y122455D01*
D02*
G37*
G36*
X326121Y121138D02*
X326018Y121238D01*
X325916Y121327D01*
X325814Y121406D01*
X325712Y121475D01*
X325611Y121533D01*
X325511Y121580D01*
X325411Y121617D01*
X325311Y121643D01*
X325212Y121659D01*
X325114Y121665D01*
Y122265D01*
X325212Y122270D01*
X325311Y122286D01*
X325411Y122312D01*
X325511Y122349D01*
X325611Y122396D01*
X325712Y122454D01*
X325814Y122523D01*
X325916Y122602D01*
X326018Y122691D01*
X326121Y122791D01*
Y121138D01*
D02*
G37*
G36*
X44805Y117753D02*
X44821Y117654D01*
X44847Y117554D01*
X44884Y117454D01*
X44932Y117353D01*
X44990Y117253D01*
X45058Y117151D01*
X45137Y117049D01*
X45227Y116946D01*
X45327Y116843D01*
X43673D01*
X43773Y116946D01*
X43863Y117049D01*
X43942Y117151D01*
X44010Y117253D01*
X44068Y117353D01*
X44116Y117454D01*
X44153Y117554D01*
X44179Y117654D01*
X44195Y117753D01*
X44200Y117851D01*
X44800D01*
X44805Y117753D01*
D02*
G37*
G36*
X157727Y120054D02*
X157637Y119951D01*
X157558Y119849D01*
X157490Y119747D01*
X157432Y119647D01*
X157384Y119546D01*
X157347Y119446D01*
X157321Y119346D01*
X157305Y119247D01*
X157300Y119149D01*
X156700D01*
X156695Y119247D01*
X156679Y119346D01*
X156653Y119446D01*
X156616Y119546D01*
X156568Y119647D01*
X156510Y119747D01*
X156442Y119849D01*
X156363Y119951D01*
X156273Y120054D01*
X156173Y120157D01*
X157827D01*
X157727Y120054D01*
D02*
G37*
G36*
X92886Y119717D02*
X92742Y119714D01*
X92606Y119705D01*
X92478Y119689D01*
X92358Y119666D01*
X92246Y119635D01*
X92141Y119598D01*
X92044Y119553D01*
X91956Y119501D01*
X91874Y119443D01*
X91801Y119377D01*
X91377Y119801D01*
X91443Y119874D01*
X91501Y119956D01*
X91553Y120044D01*
X91598Y120141D01*
X91635Y120246D01*
X91666Y120358D01*
X91689Y120478D01*
X91705Y120606D01*
X91715Y120742D01*
X91717Y120886D01*
X92886Y119717D01*
D02*
G37*
D37*
X390500Y155500D02*
X400600Y165600D01*
X457400D01*
X374000Y155500D02*
X390500D01*
X374000Y135500D02*
X384000Y125500D01*
X374000Y135500D02*
Y155500D01*
X405700Y218400D02*
Y227542D01*
X283490Y143000D02*
Y205210D01*
X228500Y205700D02*
X300010D01*
D38*
X171000Y145500D02*
Y156509D01*
X136057Y191434D02*
Y192808D01*
X147321Y180188D02*
X171000Y156509D01*
X147303Y180188D02*
X147321D01*
X136057Y191434D02*
X147303Y180188D01*
X310000Y132000D02*
X330000D01*
X227500Y125000D02*
X296000D01*
X312465Y121965D02*
X326965D01*
X218000Y110500D02*
X293500D01*
X189500Y82000D02*
X218000Y110500D01*
X115500D02*
X124000D01*
Y87500D02*
X142000D01*
X157500Y72000D01*
X178500D01*
X213744Y120756D02*
Y130744D01*
X108000Y124000D02*
Y128000D01*
X114500Y134500D01*
Y174000D01*
X118519Y134519D02*
Y216770D01*
X110500Y113000D02*
Y126000D01*
X110000D02*
X118519Y134519D01*
Y216770D02*
X119557Y217808D01*
X30000Y193000D02*
X37500D01*
X86500Y176500D02*
Y183500D01*
Y176500D02*
X99057Y163943D01*
Y155308D02*
Y163943D01*
X110000Y107500D02*
X110500Y108000D01*
X110000Y100763D02*
Y107500D01*
X177653Y78000D02*
Y78847D01*
X169500Y87000D02*
X177653Y78847D01*
X166500Y87000D02*
X169500D01*
X182519Y76972D02*
Y76981D01*
X259500Y50000D02*
X269500Y60000D01*
X216500Y50000D02*
X259500D01*
X187481Y79019D02*
X216500Y50000D01*
X214763Y48000D02*
X259763D01*
X185000Y77763D02*
X214763Y48000D01*
X259763D02*
X271100Y59337D01*
X213491Y46000D02*
X291000D01*
X182519Y76972D02*
X213491Y46000D01*
X174909Y91600D02*
X187481Y79028D01*
Y79019D02*
Y79028D01*
X185000Y77763D02*
Y78000D01*
X320000Y51500D02*
Y56000D01*
X271100Y59337D02*
Y73837D01*
X294000Y79000D02*
X307000Y66000D01*
X290000Y79000D02*
X294000D01*
X269500Y74500D02*
X279000Y84000D01*
X269500Y60000D02*
Y74500D01*
X288500Y35000D02*
X298500Y45000D01*
X261500Y35000D02*
X288500D01*
X298500Y45000D02*
Y51000D01*
X113000Y102000D02*
X146000D01*
X142500Y105500D02*
X147000Y110000D01*
X113000Y105500D02*
X142500D01*
X146000Y102000D02*
X152000Y108000D01*
X107500Y101000D02*
Y110000D01*
X105900Y100337D02*
Y110663D01*
X107500Y110000D02*
X110500Y113000D01*
X105900Y110663D02*
X107957Y112719D01*
Y123457D01*
X147000Y110000D02*
Y116500D01*
X95500Y139500D02*
X108000D01*
X80500Y154500D02*
X95500Y139500D01*
X80500Y154500D02*
Y217220D01*
X131237Y75000D02*
X147000D01*
X303500Y95500D02*
X308965Y90035D01*
X307000Y56000D02*
Y66000D01*
Y34500D02*
Y56000D01*
X313500D01*
X294000Y20500D02*
X298500Y16000D01*
X322000D01*
X54000Y9500D02*
Y39000D01*
X161000Y150000D02*
X169500Y141500D01*
X158500Y9500D02*
Y32000D01*
X152000Y38500D02*
X158500Y32000D01*
X51000Y125500D02*
Y132500D01*
Y110000D02*
Y125500D01*
X56500D01*
X51000Y110000D02*
X56500Y104500D01*
X53808Y111808D02*
X83808D01*
X21868D02*
X30308D01*
X83808D02*
X92898Y120898D01*
X25802Y100000D02*
X47500D01*
X21868Y103934D02*
X25802Y100000D01*
X154500Y127500D02*
X167000Y115000D01*
X154500Y127500D02*
Y140000D01*
X162000Y123500D02*
X169869Y115631D01*
X167000Y121000D02*
Y137500D01*
X169869Y109469D02*
Y115631D01*
X168000Y107600D02*
X169869Y109469D01*
X156057Y151943D02*
X167000Y141000D01*
X169500Y122000D02*
Y141500D01*
X167000Y137500D02*
Y141000D01*
X142000Y139000D02*
X146500Y143500D01*
X171000Y145500D02*
X174000Y142500D01*
X156057Y180443D02*
Y192808D01*
Y151943D02*
Y152808D01*
X151000Y150500D02*
Y173000D01*
X176057Y192808D02*
X181000Y187865D01*
X182681Y108181D02*
Y141819D01*
X294000Y54000D02*
Y58000D01*
X291000Y51000D02*
X294000Y54000D01*
X362535Y22465D02*
Y52965D01*
X360000Y55500D02*
X362535Y52965D01*
X360000Y55500D02*
Y87000D01*
X363000Y90000D01*
X346500Y42500D02*
Y69500D01*
X275500Y26500D02*
X283000D01*
X332000Y34500D02*
X343000Y45500D01*
Y69500D01*
X311000Y34500D02*
X332000D01*
X290500Y27000D02*
X294000Y23500D01*
X283000Y26500D02*
X298000Y11500D01*
X294000Y20500D02*
Y23500D01*
X157000Y106500D02*
Y121000D01*
X152000Y108000D02*
Y116500D01*
X162000Y123500D02*
Y139500D01*
X146500Y143500D02*
X160000D01*
X151000Y150500D02*
X154500Y147000D01*
X160000Y171000D02*
X164500D01*
X161000Y150000D02*
Y161000D01*
X143500Y187500D02*
X160000Y171000D01*
X156057Y180443D02*
X161000Y175500D01*
X146293Y177707D02*
X151000Y173000D01*
X139000Y170500D02*
X146119D01*
X159500Y184500D02*
X181000D01*
Y187865D01*
X16974Y197522D02*
Y221474D01*
Y197522D02*
X24900Y189596D01*
X47500Y100000D02*
X52000Y104500D01*
X56500Y97500D02*
Y104500D01*
X24900Y156337D02*
Y189596D01*
Y156337D02*
X47500Y133737D01*
Y121000D02*
Y133737D01*
X53500Y121000D02*
X55000Y122500D01*
X79000D01*
X80500Y121000D01*
X10474Y212526D02*
Y221474D01*
Y212526D02*
X15374Y207626D01*
Y196859D02*
Y207626D01*
Y196859D02*
X23300Y188933D01*
X26500Y157000D02*
X51000Y132500D01*
X26500Y157000D02*
Y189500D01*
X30000Y193000D01*
X23300Y155675D02*
Y188933D01*
Y155675D02*
X44500Y134475D01*
Y116000D02*
Y134475D01*
X53500Y116000D02*
X80500D01*
X193000Y39500D02*
X203500Y50000D01*
X173500Y39500D02*
X193000D01*
X152100Y60900D02*
X173500Y39500D01*
X74500Y89500D02*
X77669Y92669D01*
X317500Y69500D02*
X321000Y66000D01*
X317500Y69500D02*
Y90000D01*
X308965Y90035D02*
X317535D01*
X339800Y88300D02*
X347500Y96000D01*
X339800Y80800D02*
Y88300D01*
X322000Y86400D02*
X328000Y80400D01*
X322000Y86400D02*
Y99100D01*
X254200Y30300D02*
X330200D01*
X252500Y32000D02*
X254200Y30300D01*
X328500Y76000D02*
X338200Y85700D01*
Y94020D01*
X338740Y94560D01*
X426500Y161600D02*
X437100D01*
X443300Y155400D01*
Y141800D02*
Y155400D01*
X70000Y83000D02*
Y97500D01*
Y97600D01*
X169500Y90000D02*
X182519Y76981D01*
X181000Y143500D02*
Y184500D01*
Y143500D02*
X182681Y141819D01*
X174000Y142500D02*
X175000Y141500D01*
X167000Y121000D02*
X171500Y116500D01*
X175000Y99000D02*
Y141500D01*
X171500Y99000D02*
Y116500D01*
X168000Y99000D02*
Y107600D01*
X157000Y106500D02*
X164500Y99000D01*
X193100Y94000D02*
X193200Y94100D01*
X165200Y94000D02*
X193100D01*
X164091Y91600D02*
X164172Y91519D01*
X166228D01*
X166309Y91600D01*
X174909D01*
X163428Y90000D02*
X163510Y89919D01*
X166890D01*
X166972Y90000D01*
X169500D01*
X163391Y96600D02*
X163472Y96519D01*
X120300Y96600D02*
X163391D01*
X210300Y131300D02*
X228000Y149000D01*
X210300Y112900D02*
Y131300D01*
X163472Y96519D02*
X192110D01*
X192172Y96581D01*
X193981D01*
X210300Y112900D01*
X136601Y62500D02*
X179000D01*
X135938Y60900D02*
X152100D01*
X110000Y100763D02*
X119163Y91600D01*
X164091D01*
X107500Y101000D02*
X118500Y90000D01*
X163428D01*
X105900Y100337D02*
X131237Y75000D01*
X74500Y94500D02*
X104601D01*
X77669Y92669D02*
X104169D01*
X104601Y94500D02*
X136601Y62500D01*
X104169Y92669D02*
X135938Y60900D01*
X89100Y87700D02*
X104300D01*
X77900Y76500D02*
X89100Y87700D01*
X306002Y105303D02*
X316797D01*
X294500Y81500D02*
X320000Y56000D01*
X276000Y72000D02*
X283000Y79000D01*
X290000D01*
X271100Y73837D02*
X278763Y81500D01*
X294500D01*
X279000Y84000D02*
X294000D01*
X304000Y113500D02*
X312465Y121965D01*
X293049Y92350D02*
X306002Y105303D01*
X290000Y87900D02*
Y89300D01*
X293049Y92349D01*
Y92350D01*
D39*
X400200Y145000D02*
X413700Y158500D01*
X400100Y145100D02*
X400900Y145700D01*
X135500Y66500D02*
X152000D01*
X181500D01*
X125000Y165500D02*
Y176000D01*
X20428Y97500D02*
X56500D01*
X13994Y103934D02*
X20428Y97500D01*
X433500Y17500D02*
X468000D01*
X424221Y8220D02*
X433500Y17500D01*
X410000Y8220D02*
X424221D01*
X410000Y28220D02*
X424094D01*
X242400Y54400D02*
X242500Y54500D01*
X249400Y61400D01*
X413700Y158500D02*
X432700D01*
X411800Y136300D02*
X433200D01*
X207500Y216500D02*
Y218000D01*
X159200Y210600D02*
Y217600D01*
Y210600D02*
X163943Y205857D01*
X226800D01*
X259100Y147800D02*
X267600Y156300D01*
X259100Y136900D02*
Y147800D01*
X267600Y176400D02*
Y184900D01*
X255700Y196800D02*
X267600Y184900D01*
X198700Y189300D02*
Y192100D01*
X203400Y196800D01*
X255700D01*
X56500Y97500D02*
X70000D01*
X104500D01*
X135500Y66500D01*
X267600Y156300D02*
Y157500D01*
Y176400D01*
X308800Y111000D02*
X315600D01*
X292200Y94400D02*
X308800Y111000D01*
X292100Y94500D02*
X292200Y94400D01*
X275700Y94500D02*
X292100D01*
D68*
X418800Y223474D02*
D03*
Y207726D02*
D03*
D69*
X253300Y182590D02*
D03*
X269710Y143000D02*
D03*
X392700Y229813D02*
D03*
X299810Y165200D02*
D03*
X300010Y205700D02*
D03*
X299810Y149900D02*
D03*
D70*
X253300Y168810D02*
D03*
X392700Y193987D02*
D03*
D71*
X492270Y142200D02*
D03*
Y112200D02*
D03*
Y82200D02*
D03*
D72*
Y52200D02*
D03*
D73*
X283490Y143000D02*
D03*
D74*
X223557Y182808D02*
D03*
X66557Y168308D02*
D03*
X26057Y58308D02*
D03*
X187557Y52308D02*
D03*
D75*
X90557Y155308D02*
D03*
X99057Y184808D02*
D03*
X424094Y28220D02*
D03*
X435906D02*
D03*
X431000Y219406D02*
D03*
Y207594D02*
D03*
X405800Y227343D02*
D03*
Y207658D02*
D03*
D76*
X99057Y155308D02*
D03*
D77*
X107557D02*
D03*
D78*
X99057Y194808D02*
D03*
D79*
X489057Y224962D02*
D03*
Y181655D02*
D03*
X478000Y17500D02*
D03*
X468000D02*
D03*
X247133Y225743D02*
D03*
Y206058D02*
D03*
X228900Y225743D02*
D03*
Y206058D02*
D03*
X265367Y225743D02*
D03*
Y206058D02*
D03*
X283600Y225443D02*
D03*
Y205757D02*
D03*
D80*
X380000Y28220D02*
D03*
X186057Y152808D02*
D03*
D81*
X380000Y18221D02*
D03*
Y8220D02*
D03*
X410000D02*
D03*
Y18221D02*
D03*
Y28220D02*
D03*
X129557Y217808D02*
D03*
X90500Y217220D02*
D03*
X80500D02*
D03*
X204800Y217800D02*
D03*
X169057Y217808D02*
D03*
X186057Y192808D02*
D03*
X176057D02*
D03*
X166057D02*
D03*
X156057D02*
D03*
X146057D02*
D03*
X136057D02*
D03*
X146057Y152808D02*
D03*
X156057D02*
D03*
X166057D02*
D03*
X176057D02*
D03*
X136057D02*
D03*
X222500Y15500D02*
D03*
D82*
X431089Y44064D02*
D03*
Y91308D02*
D03*
X383057Y44064D02*
D03*
Y91308D02*
D03*
X375183Y67686D02*
D03*
D83*
X119557Y217808D02*
D03*
X70500Y217220D02*
D03*
X194800Y217800D02*
D03*
X159057Y217808D02*
D03*
X232500Y15500D02*
D03*
D84*
X488000Y17500D02*
D03*
D85*
X457500Y198700D02*
D03*
X39943Y9450D02*
D03*
Y27166D02*
D03*
X13171D02*
D03*
X93943Y9450D02*
D03*
Y27166D02*
D03*
X67172D02*
D03*
X147943Y9450D02*
D03*
Y27166D02*
D03*
X121171D02*
D03*
X201943Y9450D02*
D03*
Y27166D02*
D03*
X175171D02*
D03*
X13171Y177666D02*
D03*
Y159950D02*
D03*
X39943D02*
D03*
D86*
X457500Y218700D02*
D03*
X13171Y9450D02*
D03*
X67172D02*
D03*
X121171D02*
D03*
X175171D02*
D03*
X39943Y177666D02*
D03*
D87*
X397300Y125763D02*
D03*
X237679Y142700D02*
D03*
D88*
X397300Y133637D02*
D03*
D89*
X333449Y171250D02*
D03*
Y187000D02*
D03*
Y202750D02*
D03*
X374000Y186996D02*
D03*
X333449Y155500D02*
D03*
Y218500D02*
D03*
X374000D02*
D03*
Y202744D02*
D03*
Y171248D02*
D03*
Y155500D02*
D03*
D90*
X247521Y142700D02*
D03*
D91*
X313590Y165200D02*
D03*
X313790Y205700D02*
D03*
X313590Y149900D02*
D03*
D92*
X457400Y165600D02*
D03*
X384000Y125500D02*
D03*
X242500Y54500D02*
D03*
X249400Y61500D02*
D03*
X267600Y157500D02*
D03*
D93*
X322340Y105160D02*
D03*
X336340D02*
D03*
X315600Y111000D02*
D03*
X411800Y136300D02*
D03*
X310000Y132000D02*
D03*
X400900Y145700D02*
D03*
X296000Y125000D02*
D03*
X330000Y132000D02*
D03*
X326965Y121965D02*
D03*
X433200Y136400D02*
D03*
X115500Y110500D02*
D03*
X124000D02*
D03*
Y87500D02*
D03*
X178500Y72000D02*
D03*
X189500Y82000D02*
D03*
X293500Y110500D02*
D03*
X74500Y94500D02*
D03*
X179000Y62500D02*
D03*
X213744Y120756D02*
D03*
Y130744D02*
D03*
X161000Y86500D02*
D03*
X157500D02*
D03*
X60500Y109000D02*
D03*
X114500Y174000D02*
D03*
X118500Y183500D02*
D03*
X37500Y193000D02*
D03*
X86500Y183500D02*
D03*
X100256Y97256D02*
D03*
X152000Y66500D02*
D03*
X181500D02*
D03*
X125000Y176000D02*
D03*
Y165500D02*
D03*
X166500Y87000D02*
D03*
X177653Y78000D02*
D03*
X185000D02*
D03*
X290000Y79000D02*
D03*
X320000Y51500D02*
D03*
X294000Y84000D02*
D03*
X110500Y108000D02*
D03*
X113000Y102000D02*
D03*
Y105500D02*
D03*
X108000Y139500D02*
D03*
X147000Y75000D02*
D03*
X107957Y123457D02*
D03*
X110500Y126000D02*
D03*
X291000Y46000D02*
D03*
X226500Y125000D02*
D03*
X303500Y95500D02*
D03*
X307000Y34500D02*
D03*
X322000Y16000D02*
D03*
X54000Y9500D02*
D03*
Y39000D02*
D03*
X143500Y187500D02*
D03*
X158500Y9500D02*
D03*
X152000Y38500D02*
D03*
X56500Y125500D02*
D03*
X53808Y111808D02*
D03*
X30308D02*
D03*
X92898Y120898D02*
D03*
X56500Y120000D02*
D03*
X347500Y96000D02*
D03*
X313500Y56000D02*
D03*
X317535Y90035D02*
D03*
X157000Y121000D02*
D03*
X154500Y140000D02*
D03*
X167000Y115000D02*
D03*
X160000Y143500D02*
D03*
X169500Y122000D02*
D03*
X174000Y142500D02*
D03*
X167000Y137500D02*
D03*
X182681Y108181D02*
D03*
X142000Y139000D02*
D03*
X294000Y58000D02*
D03*
X291000Y51000D02*
D03*
X362535Y22465D02*
D03*
X363000Y90000D02*
D03*
X346500Y42500D02*
D03*
Y69500D02*
D03*
X252500Y32000D02*
D03*
X261500Y35000D02*
D03*
X298000Y11500D02*
D03*
X275500Y26500D02*
D03*
X311000Y34500D02*
D03*
X343000Y69500D02*
D03*
X321965Y98965D02*
D03*
X298500Y51000D02*
D03*
X290500Y27000D02*
D03*
X294000Y20500D02*
D03*
X147000Y116500D02*
D03*
X152000D02*
D03*
X162000Y139500D02*
D03*
X154500Y147000D02*
D03*
X164500Y171000D02*
D03*
X161000Y161000D02*
D03*
Y175500D02*
D03*
X139000Y170500D02*
D03*
X146293Y177707D02*
D03*
X146119Y170500D02*
D03*
X159500Y184500D02*
D03*
X16974Y221474D02*
D03*
X52000Y104500D02*
D03*
X56500D02*
D03*
X47500Y121000D02*
D03*
X53500D02*
D03*
X80500D02*
D03*
X10474Y221474D02*
D03*
X44500Y116000D02*
D03*
X53500D02*
D03*
X80500D02*
D03*
X276000Y72000D02*
D03*
X203500Y50000D02*
D03*
X74500Y89500D02*
D03*
X80500Y104500D02*
D03*
X321000Y66000D02*
D03*
X328500Y76000D02*
D03*
X338740Y94560D02*
D03*
X339800Y80800D02*
D03*
X328000Y80400D02*
D03*
X330200Y30300D02*
D03*
X259200Y137000D02*
D03*
X432700Y158400D02*
D03*
X406100Y183767D02*
D03*
Y180700D02*
D03*
Y186833D02*
D03*
Y189900D02*
D03*
X409533Y183767D02*
D03*
Y180700D02*
D03*
Y186833D02*
D03*
Y189900D02*
D03*
X412967Y183767D02*
D03*
Y180700D02*
D03*
Y186833D02*
D03*
Y189900D02*
D03*
X416400Y183767D02*
D03*
Y180700D02*
D03*
Y186833D02*
D03*
Y189900D02*
D03*
X267600Y176400D02*
D03*
X198700Y189300D02*
D03*
X70000Y83000D02*
D03*
X193200Y94100D02*
D03*
X228000Y149000D02*
D03*
X175000Y99000D02*
D03*
X171500D02*
D03*
X168000D02*
D03*
X164500D02*
D03*
X165200Y94000D02*
D03*
X120300Y96600D02*
D03*
X106000Y82000D02*
D03*
X104300Y87700D02*
D03*
X77900Y76500D02*
D03*
X316797Y105303D02*
D03*
X304000Y113500D02*
D03*
X290000Y87900D02*
D03*
X275700Y94500D02*
D03*
D94*
X443300Y141800D02*
D03*
X426500Y161600D02*
D03*
D95*
X21868Y119682D02*
D03*
Y111808D02*
D03*
Y103934D02*
D03*
X13994D02*
D03*
Y119682D02*
D03*
D96*
X467900Y194089D02*
D03*
X477900D02*
D03*
Y218711D02*
D03*
X467900D02*
D03*
D97*
X418850Y222800D02*
D03*
D98*
X398400Y138750D02*
D03*
D99*
X478300Y160100D02*
D03*
D100*
X492300Y134500D02*
D03*
D101*
X487850Y17550D02*
D03*
D102*
X492350Y35300D02*
D03*
D103*
X331500Y218750D02*
D03*
D104*
X467900Y178050D02*
D03*
D105*
X484450Y197000D02*
D03*
D106*
X477900Y194900D02*
D03*
D107*
X489000Y213000D02*
D03*
D108*
X477800Y213450D02*
D03*
D109*
X466650Y207250D02*
D03*
D110*
X457500Y201500D02*
D03*
D111*
X419750Y218500D02*
D03*
D112*
X414250Y184400D02*
D03*
D113*
X450750Y180900D02*
D03*
M02*
