M48
;Layer_Color=9474304
;FILE_FORMAT=2:5
INCH,LZ
;TYPE=PLATED
T1F00S00C0.01181
T2F00S00C0.01968
T3F00S00C0.02756
T4F00S00C0.03150
T5F00S00C0.03543
T6F00S00C0.03937
T7F00S00C0.04331
T8F00S00C0.04724
T9F00S00C0.05118
T10F00S00C0.06299
T11F00S00C0.12500
%
T01
X0054Y00095
X01585
X0298Y00115
X0362535Y0022465
X0363Y009
X04009Y01457
X04118Y01363
X04332Y01364
X04433Y01418
X04327Y01584
X04265Y01616
X033Y0132
X0326965Y0121965
X032234Y010516
X0316797Y0105303
X03156Y0111
X0304Y01135
X02935Y01105
X0296Y0125
X031Y0132
X03035Y00955
X0317535Y0090035
X0321965Y0098965
X033634Y010516
X033874Y009456
X03475Y0096
X03398Y00808
X0328Y00804
X03285Y0076
X0321Y0066
X032Y00515
X03135Y0056
X02985Y0051
X0291
Y0046
X0294Y0058
X029Y0079
Y00879
X0294Y0084
X02757Y00945
X0276Y0072
X02755Y00265
X02905Y0027
X0294Y00205
X0307Y00345
X0311
X03302Y00303
X0322Y0016
X03465Y00425
Y00695
X0343
X02615Y0035
X02525Y0032
X02035Y005
X0213744Y0120756
Y0130744
X02265Y0125
X0228Y0149
X02592Y0137
X0174Y01425
X0167Y01375
X0162Y01395
X016Y01435
X01545Y014
Y0147
X0142Y0139
X0147Y01165
X0152
X0157Y0121
X01695Y0122
X0167Y0115
X0168Y0099
X01715
X0175
X01645
X01652Y0094
X01665Y0087
X0161Y00865
X01575
X0147Y0075
X0152Y00665
Y00385
X0179Y00625
X01815Y00665
X01785Y0072
X0177653Y0078
X0185
X01895Y0082
X01932Y00941
X0182681Y0108181
X0124Y01105
X01155
X01105Y0108
X0113Y01055
Y0102
X01203Y00966
X0124Y00875
X01043Y00877
X0106Y0082
X0100256Y0097256
X00805Y01045
Y0116
Y0121
X0092898Y0120898
X0107957Y0123457
X01105Y0126
X0108Y01395
X0125Y01655
X0161Y0161
X00565Y01255
Y012
X00535Y0121
Y0116
X0053808Y0111808
X0052Y01045
X00565
X00605Y0109
X00445Y0116
X00475Y0121
X00745Y00945
Y00895
X007Y0083
X00779Y00765
X0054Y0039
X0030308Y0111808
X00375Y0193
X0016974Y0221474
X0010474
X00865Y01835
X01185
X01145Y0174
X0125Y0176
X0139Y01705
X0146119
X0146293Y0177707
X01435Y01875
X01595Y01845
X0161Y01755
X01645Y0171
X01987Y01893
X02676Y01764
X04061Y01807
Y0183767
Y0186833
Y01899
X0409533
Y0186833
Y0183767
Y01807
X0412967
Y0183767
Y0186833
Y01899
X04164
Y0186833
Y0183767
Y01807
T02
X0384Y01255
X04574Y01656
X02676Y01575
X02494Y00615
X02425Y00545
T03
X0424094Y002822
X0435906
X03973Y0125763
Y0133637
X0247521Y01427
X0237679
X0107557Y0155308
X0099057
X0090557
X0099057Y0184808
Y0194808
X04058Y0207658
Y0227343
X0431Y0219406
Y0207594
T04
X0136057Y0152808
X0146057
X0156057
X0166057
X0176057
X0186057
Y0192808
X0176057
X0166057
X0156057
X0146057
X0136057
T05
X038Y000822
X041
Y0018221
Y002822
X038
Y0018221
X02325Y00155
X02225
X026971Y0143
X028349
X029981Y01499
X031359
Y01652
X029981
X01948Y02178
X0169057Y0217808
X0159057
X0129557
X0119557
X00905Y021722
X00805
X00705
X02048Y02178
X02289Y0225743
X0247133
X0265367
X02836Y0225443
Y0205757
X030001Y02057
X031379
X0265367Y0206058
X0247133
X02289
X02533Y018259
Y016881
X03927Y0193987
Y0229813
X04188Y0223474
Y0207726
X04575Y01987
Y02187
X0489057Y0224962
Y0181655
T06
X0013171Y000945
X0039943
X0067172
X0093943
X0121171
X0147943
X0175171
X0201943
Y0027166
X0175171
X0147943
X0121171
X0093943
X0067172
X0039943
X0013171
Y015995
X0039943
Y0177666
X0013171
T07
X0468Y00175
X0478
X0488
T08
X049227Y00522
Y00822
Y01122
Y01422
T09
X0374Y01555
X0333449
Y017125
Y0187
Y020275
Y02185
X0374
Y0202744
Y0186996
Y0171248
T10
X0383057Y0044064
X0375183Y0067686
X0383057Y0091308
X0431089
Y0044064
T11
X0187557Y0052308
X0026057Y0058308
X0066557Y0168308
X0223557Y0182808
M30
