%FSLAX25Y25*%
%MOIN*%
G70*
G01*
G75*
G04 Layer_Color=8388736*
%ADD10R,0.01772X0.03937*%
%ADD11R,0.05500X0.06200*%
%ADD12R,0.02606X0.03000*%
%ADD13R,0.03000X0.02606*%
G04:AMPARAMS|DCode=14|XSize=55mil|YSize=50mil|CornerRadius=0mil|HoleSize=0mil|Usage=FLASHONLY|Rotation=180.000|XOffset=0mil|YOffset=0mil|HoleType=Round|Shape=Octagon|*
%AMOCTAGOND14*
4,1,8,-0.02750,0.01250,-0.02750,-0.01250,-0.01500,-0.02500,0.01500,-0.02500,0.02750,-0.01250,0.02750,0.01250,0.01500,0.02500,-0.01500,0.02500,-0.02750,0.01250,0.0*
%
%ADD14OCTAGOND14*%

%ADD15R,0.05500X0.05000*%
G04:AMPARAMS|DCode=16|XSize=63.78mil|YSize=53.94mil|CornerRadius=0mil|HoleSize=0mil|Usage=FLASHONLY|Rotation=0.000|XOffset=0mil|YOffset=0mil|HoleType=Round|Shape=Octagon|*
%AMOCTAGOND16*
4,1,8,0.03189,-0.01348,0.03189,0.01348,0.01841,0.02697,-0.01841,0.02697,-0.03189,0.01348,-0.03189,-0.01348,-0.01841,-0.02697,0.01841,-0.02697,0.03189,-0.01348,0.0*
%
%ADD16OCTAGOND16*%

%ADD17R,0.06378X0.05394*%
%ADD18R,0.05000X0.05500*%
G04:AMPARAMS|DCode=19|XSize=55mil|YSize=50mil|CornerRadius=0mil|HoleSize=0mil|Usage=FLASHONLY|Rotation=270.000|XOffset=0mil|YOffset=0mil|HoleType=Round|Shape=Octagon|*
%AMOCTAGOND19*
4,1,8,-0.01250,-0.02750,0.01250,-0.02750,0.02500,-0.01500,0.02500,0.01500,0.01250,0.02750,-0.01250,0.02750,-0.02500,0.01500,-0.02500,-0.01500,-0.01250,-0.02750,0.0*
%
%ADD19OCTAGOND19*%

%ADD20R,0.05000X0.03500*%
%ADD21O,0.05906X0.01181*%
G04:AMPARAMS|DCode=22|XSize=50mil|YSize=35mil|CornerRadius=0mil|HoleSize=0mil|Usage=FLASHONLY|Rotation=90.000|XOffset=0mil|YOffset=0mil|HoleType=Round|Shape=Octagon|*
%AMOCTAGOND22*
4,1,8,0.00875,0.02500,-0.00875,0.02500,-0.01750,0.01625,-0.01750,-0.01625,-0.00875,-0.02500,0.00875,-0.02500,0.01750,-0.01625,0.01750,0.01625,0.00875,0.02500,0.0*
%
%ADD22OCTAGOND22*%

%ADD23R,0.03500X0.05000*%
%ADD24O,0.08268X0.02362*%
%ADD25R,0.08268X0.02362*%
%ADD26R,0.03937X0.01772*%
%ADD27R,0.08661X0.05512*%
%ADD28O,0.02362X0.08268*%
%ADD29R,0.05394X0.06378*%
G04:AMPARAMS|DCode=30|XSize=63.78mil|YSize=53.94mil|CornerRadius=0mil|HoleSize=0mil|Usage=FLASHONLY|Rotation=270.000|XOffset=0mil|YOffset=0mil|HoleType=Round|Shape=Octagon|*
%AMOCTAGOND30*
4,1,8,-0.01348,-0.03189,0.01348,-0.03189,0.02697,-0.01841,0.02697,0.01841,0.01348,0.03189,-0.01348,0.03189,-0.02697,0.01841,-0.02697,-0.01841,-0.01348,-0.03189,0.0*
%
%ADD30OCTAGOND30*%

%ADD31R,0.06000X0.11000*%
%ADD32R,0.23000X0.24500*%
%ADD33R,0.10000X0.07480*%
G04:AMPARAMS|DCode=34|XSize=100mil|YSize=74.8mil|CornerRadius=0mil|HoleSize=0mil|Usage=FLASHONLY|Rotation=180.000|XOffset=0mil|YOffset=0mil|HoleType=Round|Shape=Octagon|*
%AMOCTAGOND34*
4,1,8,-0.05000,0.01870,-0.05000,-0.01870,-0.03130,-0.03740,0.03130,-0.03740,0.05000,-0.01870,0.05000,0.01870,0.03130,0.03740,-0.03130,0.03740,-0.05000,0.01870,0.0*
%
%ADD34OCTAGOND34*%

%ADD35R,0.24500X0.23000*%
%ADD36R,0.11000X0.06000*%
%ADD37C,0.03000*%
%ADD38C,0.00600*%
%ADD39C,0.01500*%
%ADD40R,0.28400X0.26800*%
%ADD41R,0.07900X0.22700*%
%ADD42R,0.06900X0.11300*%
%ADD43R,0.24800X0.08400*%
%ADD44R,0.09200X0.98600*%
%ADD45R,0.23200X0.12400*%
%ADD46R,0.07000X0.06000*%
%ADD47R,0.15300X0.08500*%
%ADD48R,0.06500X0.36000*%
%ADD49R,0.56000X0.11500*%
%ADD50R,0.06000X0.16000*%
%ADD51R,0.09500X0.26900*%
%ADD52R,1.04500X0.12000*%
%ADD53R,0.06000X0.44500*%
%ADD54R,0.27000X0.07000*%
%ADD55R,0.13100X0.15500*%
%ADD56R,0.08000X0.38000*%
%ADD57R,0.19600X0.03800*%
%ADD58R,0.05500X0.15000*%
%ADD59R,0.10000X0.14000*%
%ADD60R,0.07000X0.16800*%
%ADD61R,0.22800X0.08500*%
%ADD62R,0.38200X0.07200*%
%ADD63R,0.07300X0.15800*%
%ADD64R,0.05900X0.05000*%
%ADD65R,0.11200X0.03900*%
%ADD66R,0.04200X0.42200*%
%ADD67R,0.14500X0.07500*%
%ADD68C,0.06200*%
%ADD69C,0.07087*%
%ADD70R,0.07087X0.07087*%
%ADD71C,0.09843*%
%ADD72R,0.09843X0.09843*%
%ADD73R,0.07087X0.07087*%
%ADD74C,0.20000*%
%ADD75C,0.06299*%
%ADD76R,0.06299X0.06299*%
G04:AMPARAMS|DCode=77|XSize=62.99mil|YSize=62.99mil|CornerRadius=0mil|HoleSize=0mil|Usage=FLASHONLY|Rotation=180.000|XOffset=0mil|YOffset=0mil|HoleType=Round|Shape=Octagon|*
%AMOCTAGOND77*
4,1,8,-0.03150,0.01575,-0.03150,-0.01575,-0.01575,-0.03150,0.01575,-0.03150,0.03150,-0.01575,0.03150,0.01575,0.01575,0.03150,-0.01575,0.03150,-0.03150,0.01575,0.0*
%
%ADD77OCTAGOND77*%

%ADD78R,0.06299X0.06299*%
%ADD79C,0.07874*%
%ADD80R,0.06693X0.06693*%
%ADD81C,0.06693*%
%ADD82C,0.11811*%
%ADD83R,0.06693X0.06693*%
%ADD84R,0.07874X0.07874*%
%ADD85C,0.07480*%
%ADD86R,0.07480X0.07480*%
%ADD87C,0.05118*%
%ADD88R,0.05118X0.05118*%
%ADD89C,0.09055*%
%ADD90R,0.05118X0.05118*%
G04:AMPARAMS|DCode=91|XSize=70.87mil|YSize=70.87mil|CornerRadius=0mil|HoleSize=0mil|Usage=FLASHONLY|Rotation=0.000|XOffset=0mil|YOffset=0mil|HoleType=Round|Shape=Octagon|*
%AMOCTAGOND91*
4,1,8,0.03543,-0.01772,0.03543,0.01772,0.01772,0.03543,-0.01772,0.03543,-0.03543,0.01772,-0.03543,-0.01772,-0.01772,-0.03543,0.01772,-0.03543,0.03543,-0.01772,0.0*
%
%ADD91OCTAGOND91*%

%ADD92C,0.03150*%
%ADD93C,0.02362*%
%ADD94C,0.01969*%
%ADD95C,0.06000*%
%ADD96R,0.03347X0.06299*%
%ADD97R,0.06900X0.08000*%
%ADD98R,0.07200X0.15300*%
%ADD99R,0.24800X0.03000*%
%ADD100R,0.10400X0.54200*%
%ADD101R,0.08700X0.08300*%
%ADD102R,0.09700X0.43800*%
%ADD103R,0.10000X0.12500*%
%ADD104R,0.04000X0.38900*%
%ADD105R,0.17100X0.04000*%
%ADD106R,0.04000X0.08200*%
%ADD107R,0.08000X0.32000*%
%ADD108R,0.04000X0.16900*%
%ADD109R,0.26300X0.04500*%
%ADD110R,0.08000X0.15000*%
%ADD111R,1.00500X0.08000*%
%ADD112R,0.59100X0.27000*%
%ADD113R,0.14100X0.20000*%
%ADD114C,0.00984*%
%ADD115C,0.01000*%
%ADD116C,0.00787*%
%ADD117C,0.01984*%
%ADD118C,0.00800*%
%ADD119C,0.01969*%
%ADD120C,0.02900*%
%ADD121C,0.00591*%
%ADD122C,0.00472*%
%ADD123R,0.06299X0.02165*%
%ADD124R,0.02165X0.06299*%
%ADD125R,0.11000X0.03000*%
%ADD126R,0.09449X0.02165*%
%ADD127R,0.09449X0.00847*%
%ADD128R,0.02572X0.04737*%
%ADD129R,0.06300X0.07000*%
%ADD130R,0.03406X0.03800*%
%ADD131R,0.03800X0.03406*%
G04:AMPARAMS|DCode=132|XSize=63mil|YSize=58mil|CornerRadius=0mil|HoleSize=0mil|Usage=FLASHONLY|Rotation=180.000|XOffset=0mil|YOffset=0mil|HoleType=Round|Shape=Octagon|*
%AMOCTAGOND132*
4,1,8,-0.03150,0.01450,-0.03150,-0.01450,-0.01700,-0.02900,0.01700,-0.02900,0.03150,-0.01450,0.03150,0.01450,0.01700,0.02900,-0.01700,0.02900,-0.03150,0.01450,0.0*
%
%ADD132OCTAGOND132*%

%ADD133R,0.06300X0.05800*%
G04:AMPARAMS|DCode=134|XSize=71.78mil|YSize=61.94mil|CornerRadius=0mil|HoleSize=0mil|Usage=FLASHONLY|Rotation=0.000|XOffset=0mil|YOffset=0mil|HoleType=Round|Shape=Octagon|*
%AMOCTAGOND134*
4,1,8,0.03589,-0.01548,0.03589,0.01548,0.02041,0.03097,-0.02041,0.03097,-0.03589,0.01548,-0.03589,-0.01548,-0.02041,-0.03097,0.02041,-0.03097,0.03589,-0.01548,0.0*
%
%ADD134OCTAGOND134*%

%ADD135R,0.07178X0.06194*%
%ADD136R,0.05800X0.06300*%
G04:AMPARAMS|DCode=137|XSize=63mil|YSize=58mil|CornerRadius=0mil|HoleSize=0mil|Usage=FLASHONLY|Rotation=270.000|XOffset=0mil|YOffset=0mil|HoleType=Round|Shape=Octagon|*
%AMOCTAGOND137*
4,1,8,-0.01450,-0.03150,0.01450,-0.03150,0.02900,-0.01700,0.02900,0.01700,0.01450,0.03150,-0.01450,0.03150,-0.02900,0.01700,-0.02900,-0.01700,-0.01450,-0.03150,0.0*
%
%ADD137OCTAGOND137*%

%ADD138R,0.05800X0.04300*%
%ADD139O,0.06706X0.01981*%
G04:AMPARAMS|DCode=140|XSize=58mil|YSize=43mil|CornerRadius=0mil|HoleSize=0mil|Usage=FLASHONLY|Rotation=90.000|XOffset=0mil|YOffset=0mil|HoleType=Round|Shape=Octagon|*
%AMOCTAGOND140*
4,1,8,0.01075,0.02900,-0.01075,0.02900,-0.02150,0.01825,-0.02150,-0.01825,-0.01075,-0.02900,0.01075,-0.02900,0.02150,-0.01825,0.02150,0.01825,0.01075,0.02900,0.0*
%
%ADD140OCTAGOND140*%

%ADD141R,0.04300X0.05800*%
%ADD142O,0.09068X0.03162*%
%ADD143R,0.09068X0.03162*%
%ADD144R,0.04737X0.02572*%
%ADD145R,0.09461X0.06312*%
%ADD146O,0.03162X0.09068*%
%ADD147R,0.06194X0.07178*%
G04:AMPARAMS|DCode=148|XSize=71.78mil|YSize=61.94mil|CornerRadius=0mil|HoleSize=0mil|Usage=FLASHONLY|Rotation=270.000|XOffset=0mil|YOffset=0mil|HoleType=Round|Shape=Octagon|*
%AMOCTAGOND148*
4,1,8,-0.01548,-0.03589,0.01548,-0.03589,0.03097,-0.02041,0.03097,0.02041,0.01548,0.03589,-0.01548,0.03589,-0.03097,0.02041,-0.03097,-0.02041,-0.01548,-0.03589,0.0*
%
%ADD148OCTAGOND148*%

%ADD149R,0.06800X0.11800*%
%ADD150R,0.23800X0.25300*%
%ADD151R,0.10800X0.08280*%
G04:AMPARAMS|DCode=152|XSize=108mil|YSize=82.8mil|CornerRadius=0mil|HoleSize=0mil|Usage=FLASHONLY|Rotation=180.000|XOffset=0mil|YOffset=0mil|HoleType=Round|Shape=Octagon|*
%AMOCTAGOND152*
4,1,8,-0.05400,0.02070,-0.05400,-0.02070,-0.03330,-0.04140,0.03330,-0.04140,0.05400,-0.02070,0.05400,0.02070,0.03330,0.04140,-0.03330,0.04140,-0.05400,0.02070,0.0*
%
%ADD152OCTAGOND152*%

%ADD153R,0.25300X0.23800*%
%ADD154R,0.11800X0.06800*%
%ADD155C,0.07000*%
%ADD156C,0.07887*%
%ADD157R,0.07887X0.07887*%
%ADD158C,0.10642*%
%ADD159R,0.10642X0.10642*%
%ADD160R,0.07887X0.07887*%
%ADD161C,0.20800*%
%ADD162C,0.07099*%
%ADD163R,0.07099X0.07099*%
G04:AMPARAMS|DCode=164|XSize=70.99mil|YSize=70.99mil|CornerRadius=0mil|HoleSize=0mil|Usage=FLASHONLY|Rotation=180.000|XOffset=0mil|YOffset=0mil|HoleType=Round|Shape=Octagon|*
%AMOCTAGOND164*
4,1,8,-0.03550,0.01775,-0.03550,-0.01775,-0.01775,-0.03550,0.01775,-0.03550,0.03550,-0.01775,0.03550,0.01775,0.01775,0.03550,-0.01775,0.03550,-0.03550,0.01775,0.0*
%
%ADD164OCTAGOND164*%

%ADD165R,0.07099X0.07099*%
%ADD166C,0.08674*%
%ADD167R,0.07493X0.07493*%
%ADD168C,0.07493*%
%ADD169C,0.12611*%
%ADD170R,0.07493X0.07493*%
%ADD171R,0.08674X0.08674*%
%ADD172C,0.08280*%
%ADD173R,0.08280X0.08280*%
%ADD174C,0.05918*%
%ADD175R,0.05918X0.05918*%
%ADD176C,0.09855*%
%ADD177R,0.05918X0.05918*%
G04:AMPARAMS|DCode=178|XSize=78.87mil|YSize=78.87mil|CornerRadius=0mil|HoleSize=0mil|Usage=FLASHONLY|Rotation=0.000|XOffset=0mil|YOffset=0mil|HoleType=Round|Shape=Octagon|*
%AMOCTAGOND178*
4,1,8,0.03943,-0.01972,0.03943,0.01972,0.01972,0.03943,-0.01972,0.03943,-0.03943,0.01972,-0.03943,-0.01972,-0.01972,-0.03943,0.01972,-0.03943,0.03943,-0.01972,0.0*
%
%ADD178OCTAGOND178*%

%ADD179C,0.03162*%
D128*
X65160Y56235D02*
D03*
X72640D02*
D03*
X68900Y65165D02*
D03*
X428960Y141400D02*
D03*
X432700D02*
D03*
X436440D02*
D03*
Y152400D02*
D03*
X432700D02*
D03*
X428960D02*
D03*
X102760Y56035D02*
D03*
X110240D02*
D03*
X106500Y64965D02*
D03*
X166740Y80965D02*
D03*
X159260D02*
D03*
X163000Y72035D02*
D03*
X213760Y145035D02*
D03*
X221240D02*
D03*
X217500Y153965D02*
D03*
X337240Y56465D02*
D03*
X329760D02*
D03*
X333500Y47535D02*
D03*
X350240Y56465D02*
D03*
X342760D02*
D03*
X346500Y47535D02*
D03*
X338740Y98965D02*
D03*
X331260D02*
D03*
X335000Y90035D02*
D03*
X325740Y98965D02*
D03*
X318260D02*
D03*
X322000Y90035D02*
D03*
X86240Y65465D02*
D03*
X78760D02*
D03*
X82500Y56535D02*
D03*
X226240Y64465D02*
D03*
X218760D02*
D03*
X222500Y55535D02*
D03*
X227300Y166065D02*
D03*
X231040Y157135D02*
D03*
X223560D02*
D03*
D129*
X287110Y120000D02*
D03*
X275890D02*
D03*
X434198Y167385D02*
D03*
X445418D02*
D03*
X434198Y176443D02*
D03*
X445418D02*
D03*
D130*
X304744Y126000D02*
D03*
X310256D02*
D03*
X304744Y120000D02*
D03*
X310256D02*
D03*
X326756Y132000D02*
D03*
X321244D02*
D03*
X339756Y32500D02*
D03*
X334244D02*
D03*
X428944Y125400D02*
D03*
X434456D02*
D03*
X89756Y137500D02*
D03*
X84244D02*
D03*
Y132500D02*
D03*
X89756D02*
D03*
X219256Y135500D02*
D03*
X213744D02*
D03*
X275744Y33500D02*
D03*
X281256D02*
D03*
X295744D02*
D03*
X301256D02*
D03*
X286244Y63000D02*
D03*
X291756D02*
D03*
X296244D02*
D03*
X301756D02*
D03*
X342756D02*
D03*
X337244D02*
D03*
X355756D02*
D03*
X350244D02*
D03*
X369756Y28000D02*
D03*
X364244D02*
D03*
X286244Y74000D02*
D03*
X291756D02*
D03*
X321244Y137000D02*
D03*
X326756D02*
D03*
X321744Y111000D02*
D03*
X327256D02*
D03*
X100256Y82000D02*
D03*
X94744D02*
D03*
X344744Y32500D02*
D03*
X350256D02*
D03*
X245756Y117500D02*
D03*
X240244D02*
D03*
X428944Y131900D02*
D03*
X434456D02*
D03*
X119256Y118500D02*
D03*
X113744D02*
D03*
X291256Y33500D02*
D03*
X285744D02*
D03*
X301756Y74000D02*
D03*
X296244D02*
D03*
X307244D02*
D03*
X312756D02*
D03*
D131*
X86500Y189244D02*
D03*
Y194756D02*
D03*
X66500Y120244D02*
D03*
Y125756D02*
D03*
X61500Y125756D02*
D03*
Y120244D02*
D03*
X142000Y91465D02*
D03*
Y96976D02*
D03*
X117000Y55744D02*
D03*
Y61256D02*
D03*
X30000Y192965D02*
D03*
Y198476D02*
D03*
X152000Y76512D02*
D03*
Y71000D02*
D03*
X10500Y198476D02*
D03*
Y192965D02*
D03*
X17000Y198476D02*
D03*
Y192965D02*
D03*
X320000Y21744D02*
D03*
Y27256D02*
D03*
X314500D02*
D03*
Y21744D02*
D03*
X320000Y46256D02*
D03*
Y40744D02*
D03*
X314500D02*
D03*
Y46256D02*
D03*
X356500Y52756D02*
D03*
Y47244D02*
D03*
X304000Y105256D02*
D03*
Y99744D02*
D03*
X23500Y192965D02*
D03*
Y198476D02*
D03*
X338500Y116256D02*
D03*
Y110744D02*
D03*
X333500D02*
D03*
Y116256D02*
D03*
X66500Y104500D02*
D03*
Y98988D02*
D03*
X61500Y104500D02*
D03*
Y98988D02*
D03*
X66500Y109244D02*
D03*
Y114756D02*
D03*
X185500Y123256D02*
D03*
Y117744D02*
D03*
Y128244D02*
D03*
Y133756D02*
D03*
X152000Y91465D02*
D03*
Y96976D02*
D03*
X147000Y91465D02*
D03*
Y96976D02*
D03*
Y81000D02*
D03*
Y86512D02*
D03*
X152000Y81000D02*
D03*
Y86512D02*
D03*
X68000Y187744D02*
D03*
Y193256D02*
D03*
X73000Y187744D02*
D03*
Y193256D02*
D03*
X443300Y146944D02*
D03*
Y152456D02*
D03*
X233000Y58744D02*
D03*
Y64256D02*
D03*
X70000Y77956D02*
D03*
Y72444D02*
D03*
X64900D02*
D03*
Y77956D02*
D03*
D132*
X234250Y125000D02*
D03*
X334250Y76000D02*
D03*
X328250Y66000D02*
D03*
D133*
X247750Y125000D02*
D03*
X320750Y76000D02*
D03*
X314750Y66000D02*
D03*
D134*
X390600Y146497D02*
D03*
X311000Y105303D02*
D03*
X285500Y109003D02*
D03*
D135*
X390600Y161103D02*
D03*
X311000Y90697D02*
D03*
X285500Y94397D02*
D03*
D136*
X252500Y21250D02*
D03*
X261500D02*
D03*
X355000Y89530D02*
D03*
X347500D02*
D03*
D137*
X252500Y7750D02*
D03*
X261500D02*
D03*
X355000Y76029D02*
D03*
X347500D02*
D03*
D138*
X94500Y64740D02*
D03*
Y57260D02*
D03*
X124500Y55760D02*
D03*
Y63240D02*
D03*
X119500Y197240D02*
D03*
Y189760D02*
D03*
D139*
X99598Y102984D02*
D03*
Y105543D02*
D03*
Y108102D02*
D03*
Y110661D02*
D03*
Y113221D02*
D03*
Y115779D02*
D03*
Y118339D02*
D03*
Y120898D02*
D03*
Y123457D02*
D03*
Y126016D02*
D03*
X74402Y102984D02*
D03*
Y105543D02*
D03*
Y108102D02*
D03*
Y110661D02*
D03*
Y113221D02*
D03*
Y115779D02*
D03*
Y118339D02*
D03*
Y120898D02*
D03*
Y123457D02*
D03*
Y126016D02*
D03*
D140*
X10474Y212721D02*
D03*
X16974D02*
D03*
X29974D02*
D03*
X23474D02*
D03*
D141*
X10474Y205721D02*
D03*
X16974D02*
D03*
X29974D02*
D03*
X23474D02*
D03*
D142*
X304827Y41000D02*
D03*
Y46000D02*
D03*
Y51000D02*
D03*
Y56000D02*
D03*
X283173Y41000D02*
D03*
Y46000D02*
D03*
Y51000D02*
D03*
X304827Y11500D02*
D03*
Y16500D02*
D03*
Y21500D02*
D03*
Y26500D02*
D03*
X283173Y11500D02*
D03*
Y16500D02*
D03*
Y21500D02*
D03*
X352827Y11000D02*
D03*
Y16000D02*
D03*
Y21000D02*
D03*
Y26000D02*
D03*
X331173Y11000D02*
D03*
Y16000D02*
D03*
Y21000D02*
D03*
D143*
X283173Y56000D02*
D03*
Y26500D02*
D03*
X331173Y26000D02*
D03*
D144*
X362535Y18240D02*
D03*
Y10760D02*
D03*
X371465Y14500D02*
D03*
X318035Y122000D02*
D03*
X326965Y125740D02*
D03*
Y118260D02*
D03*
D145*
X376185Y135500D02*
D03*
Y125500D02*
D03*
X336815D02*
D03*
Y135500D02*
D03*
D146*
X177000Y130819D02*
D03*
X172000D02*
D03*
X167000D02*
D03*
X162000D02*
D03*
X157000D02*
D03*
X152000D02*
D03*
X147000D02*
D03*
X142000D02*
D03*
X177000Y108181D02*
D03*
X172000D02*
D03*
X167000D02*
D03*
X162000D02*
D03*
X157000D02*
D03*
X152000D02*
D03*
X147000D02*
D03*
X142000D02*
D03*
D147*
X109360Y73808D02*
D03*
X222197Y43000D02*
D03*
X213303Y196500D02*
D03*
D148*
X94754Y73808D02*
D03*
X236803Y43000D02*
D03*
X198697Y196500D02*
D03*
D149*
X402445Y155523D02*
D03*
X420245Y155423D02*
D03*
D150*
X411400Y184035D02*
D03*
D151*
X275500Y86279D02*
D03*
D152*
Y108721D02*
D03*
D153*
X220365Y92800D02*
D03*
D154*
X248977Y101645D02*
D03*
X248877Y83845D02*
D03*
D155*
X418800Y223474D02*
D03*
Y207726D02*
D03*
D156*
X253300Y182590D02*
D03*
X269710Y143000D02*
D03*
X392700Y229813D02*
D03*
X299810Y165200D02*
D03*
X300010Y205700D02*
D03*
X299810Y149900D02*
D03*
D157*
X253300Y168810D02*
D03*
X392700Y193987D02*
D03*
D158*
X492270Y142200D02*
D03*
Y112200D02*
D03*
Y82200D02*
D03*
D159*
Y52200D02*
D03*
D160*
X283490Y143000D02*
D03*
D161*
X223557Y182808D02*
D03*
X66557Y168308D02*
D03*
X26057Y58308D02*
D03*
X187557Y52308D02*
D03*
D162*
X90557Y155308D02*
D03*
X99057Y184808D02*
D03*
X424094Y28220D02*
D03*
X435906D02*
D03*
X431000Y219406D02*
D03*
Y207594D02*
D03*
X405800Y227343D02*
D03*
Y207658D02*
D03*
D163*
X99057Y155308D02*
D03*
D164*
X107557D02*
D03*
D165*
X99057Y194808D02*
D03*
D166*
X489057Y224962D02*
D03*
Y181655D02*
D03*
X478000Y17500D02*
D03*
X468000D02*
D03*
X247133Y225743D02*
D03*
Y206058D02*
D03*
X228900Y225743D02*
D03*
Y206058D02*
D03*
X265367Y225743D02*
D03*
Y206058D02*
D03*
X283600Y225443D02*
D03*
Y205757D02*
D03*
D167*
X380000Y28220D02*
D03*
X186057Y152808D02*
D03*
D168*
X380000Y18221D02*
D03*
Y8220D02*
D03*
X410000D02*
D03*
Y18221D02*
D03*
Y28220D02*
D03*
X129557Y217808D02*
D03*
X90500Y217220D02*
D03*
X80500D02*
D03*
X204800Y217800D02*
D03*
X169057Y217808D02*
D03*
X186057Y192808D02*
D03*
X176057D02*
D03*
X166057D02*
D03*
X156057D02*
D03*
X146057D02*
D03*
X136057D02*
D03*
X146057Y152808D02*
D03*
X156057D02*
D03*
X166057D02*
D03*
X176057D02*
D03*
X136057D02*
D03*
X222500Y15500D02*
D03*
D169*
X431089Y44064D02*
D03*
Y91308D02*
D03*
X383057Y44064D02*
D03*
Y91308D02*
D03*
X375183Y67686D02*
D03*
D170*
X119557Y217808D02*
D03*
X70500Y217220D02*
D03*
X194800Y217800D02*
D03*
X159057Y217808D02*
D03*
X232500Y15500D02*
D03*
D171*
X488000Y17500D02*
D03*
D172*
X457500Y198700D02*
D03*
X39943Y9450D02*
D03*
Y27166D02*
D03*
X13171D02*
D03*
X93943Y9450D02*
D03*
Y27166D02*
D03*
X67172D02*
D03*
X147943Y9450D02*
D03*
Y27166D02*
D03*
X121171D02*
D03*
X201943Y9450D02*
D03*
Y27166D02*
D03*
X175171D02*
D03*
X13171Y177666D02*
D03*
Y159950D02*
D03*
X39943D02*
D03*
D173*
X457500Y218700D02*
D03*
X13171Y9450D02*
D03*
X67172D02*
D03*
X121171D02*
D03*
X175171D02*
D03*
X39943Y177666D02*
D03*
D174*
X397300Y125763D02*
D03*
X237679Y142700D02*
D03*
D175*
X397300Y133637D02*
D03*
D176*
X333449Y171250D02*
D03*
Y187000D02*
D03*
Y202750D02*
D03*
X374000Y186996D02*
D03*
X333449Y155500D02*
D03*
Y218500D02*
D03*
X374000D02*
D03*
Y202744D02*
D03*
Y171248D02*
D03*
Y155500D02*
D03*
D177*
X247521Y142700D02*
D03*
D178*
X313590Y165200D02*
D03*
X313790Y205700D02*
D03*
X313590Y149900D02*
D03*
D179*
X406100Y183767D02*
D03*
Y180700D02*
D03*
Y186833D02*
D03*
Y189900D02*
D03*
X409533Y183767D02*
D03*
Y180700D02*
D03*
Y186833D02*
D03*
Y189900D02*
D03*
X412967Y183767D02*
D03*
Y180700D02*
D03*
Y186833D02*
D03*
Y189900D02*
D03*
X416400Y183767D02*
D03*
Y180700D02*
D03*
Y186833D02*
D03*
Y189900D02*
D03*
X316797Y105303D02*
D03*
X290000Y87900D02*
D03*
M02*
