%FSLAX25Y25*%
%MOIN*%
G70*
G01*
G75*
%ADD10C,0.00500*%
%ADD11C,0.00667*%
%ADD12C,0.00400*%
D10*
X417028Y223474D02*
X420572D01*
X418800Y221702D02*
Y225246D01*
X417028Y207726D02*
X420572D01*
X418800Y205954D02*
Y209498D01*
X251528Y182590D02*
X255072D01*
X253300Y180818D02*
Y184361D01*
X251528Y168810D02*
X255072D01*
X253300Y167039D02*
Y170582D01*
X489908Y142200D02*
X494632D01*
X492270Y139838D02*
Y144562D01*
X489908Y112200D02*
X494632D01*
X492270Y109838D02*
Y114562D01*
X489908Y52200D02*
X494632D01*
X492270Y49838D02*
Y54562D01*
X489908Y82200D02*
X494632D01*
X492270Y79838D02*
Y84562D01*
X281718Y143000D02*
X285261D01*
X283490Y141228D02*
Y144772D01*
X267939Y143000D02*
X271482D01*
X269710Y141228D02*
Y144772D01*
X217307Y182808D02*
X229807D01*
X223557Y176558D02*
Y189058D01*
X89179Y155308D02*
X91935D01*
X90557Y153930D02*
Y156686D01*
X97679Y155308D02*
X100435D01*
X99057Y153930D02*
Y156686D01*
X106179Y155308D02*
X108935D01*
X107557Y153930D02*
Y156686D01*
X60307Y168308D02*
X72807D01*
X66557Y162058D02*
Y174558D01*
X19807Y58308D02*
X32307D01*
X26057Y52058D02*
Y64558D01*
X181307Y52308D02*
X193807D01*
X187557Y46058D02*
Y58558D01*
X97679Y194808D02*
X100435D01*
X99057Y193430D02*
Y196186D01*
X97679Y184808D02*
X100435D01*
X99057Y183430D02*
Y186186D01*
X487286Y224962D02*
X490829D01*
X489057Y223190D02*
Y226733D01*
X487286Y181655D02*
X490829D01*
X489057Y179883D02*
Y183426D01*
X378228Y28220D02*
X381772D01*
X380000Y26449D02*
Y29992D01*
X378228Y18221D02*
X381772D01*
X380000Y16449D02*
Y19992D01*
X378228Y8220D02*
X381772D01*
X380000Y6449D02*
Y9992D01*
X408228Y8220D02*
X411772D01*
X410000Y6449D02*
Y9992D01*
X408228Y18221D02*
X411772D01*
X410000Y16449D02*
Y19992D01*
X408228Y28220D02*
X411772D01*
X410000Y26449D02*
Y29992D01*
X427939Y44064D02*
X434238D01*
X431089Y40914D02*
Y47214D01*
X427939Y91308D02*
X434238D01*
X431089Y88159D02*
Y94458D01*
X379908Y44064D02*
X386207D01*
X383057Y40914D02*
Y47214D01*
X379908Y91308D02*
X386207D01*
X383057Y88159D02*
Y94458D01*
X372034Y67686D02*
X378333D01*
X375183Y64536D02*
Y70836D01*
X117786Y217808D02*
X121329D01*
X119557Y216036D02*
Y219580D01*
X127786Y217808D02*
X131329D01*
X129557Y216036D02*
Y219580D01*
X88728Y217220D02*
X92272D01*
X90500Y215449D02*
Y218992D01*
X78728Y217220D02*
X82272D01*
X80500Y215449D02*
Y218992D01*
X68728Y217220D02*
X72272D01*
X70500Y215449D02*
Y218992D01*
X193028Y217800D02*
X196572D01*
X194800Y216028D02*
Y219572D01*
X203028Y217800D02*
X206572D01*
X204800Y216028D02*
Y219572D01*
X475835Y17500D02*
X480165D01*
X478000Y15335D02*
Y19665D01*
X465835Y17500D02*
X470165D01*
X468000Y15335D02*
Y19665D01*
X485835Y17500D02*
X490165D01*
X488000Y15335D02*
Y19665D01*
X455728Y198700D02*
X459272D01*
X457500Y196928D02*
Y200472D01*
X455728Y218700D02*
X459272D01*
X457500Y216928D02*
Y220472D01*
X395922Y125763D02*
X398678D01*
X397300Y124385D02*
Y127141D01*
X395922Y133637D02*
X398678D01*
X397300Y132259D02*
Y135015D01*
X422717Y28220D02*
X425472D01*
X424094Y26842D02*
Y29598D01*
X434528Y28220D02*
X437284D01*
X435906Y26842D02*
Y29598D01*
X157286Y217808D02*
X160829D01*
X159057Y216036D02*
Y219580D01*
X167286Y217808D02*
X170829D01*
X169057Y216036D02*
Y219580D01*
X184483Y192808D02*
X187632D01*
X186057Y191233D02*
Y194383D01*
X174483Y192808D02*
X177632D01*
X176057Y191233D02*
Y194383D01*
X164482Y192808D02*
X167632D01*
X166057Y191233D02*
Y194383D01*
X154482Y192808D02*
X157632D01*
X156057Y191233D02*
Y194383D01*
X144483Y192808D02*
X147632D01*
X146057Y191233D02*
Y194383D01*
X134483Y192808D02*
X137632D01*
X136057Y191233D02*
Y194383D01*
X144483Y152808D02*
X147632D01*
X146057Y151233D02*
Y154383D01*
X154482Y152808D02*
X157632D01*
X156057Y151233D02*
Y154383D01*
X164482Y152808D02*
X167632D01*
X166057Y151233D02*
Y154383D01*
X174483Y152808D02*
X177632D01*
X176057Y151233D02*
Y154383D01*
X184483Y152808D02*
X187632D01*
X186057Y151233D02*
Y154383D01*
X134483Y152808D02*
X137632D01*
X136057Y151233D02*
Y154383D01*
X37975Y9450D02*
X41912D01*
X39943Y7481D02*
Y11418D01*
X37975Y27166D02*
X41912D01*
X39943Y25198D02*
Y29135D01*
X11203Y27166D02*
X15140D01*
X13171Y25198D02*
Y29135D01*
X11203Y9450D02*
X15140D01*
X13171Y7481D02*
Y11418D01*
X91975Y9450D02*
X95912D01*
X93943Y7481D02*
Y11418D01*
X91975Y27166D02*
X95912D01*
X93943Y25198D02*
Y29135D01*
X65203Y27166D02*
X69140D01*
X67172Y25198D02*
Y29135D01*
X65203Y9450D02*
X69140D01*
X67172Y7481D02*
Y11418D01*
X145975Y9450D02*
X149912D01*
X147943Y7481D02*
Y11418D01*
X145975Y27166D02*
X149912D01*
X147943Y25198D02*
Y29135D01*
X119203Y27166D02*
X123140D01*
X121171Y25198D02*
Y29135D01*
X119203Y9450D02*
X123140D01*
X121171Y7481D02*
Y11418D01*
X199975Y9450D02*
X203912D01*
X201943Y7481D02*
Y11418D01*
X199975Y27166D02*
X203912D01*
X201943Y25198D02*
Y29135D01*
X173203Y27166D02*
X177140D01*
X175171Y25198D02*
Y29135D01*
X173203Y9450D02*
X177140D01*
X175171Y7481D02*
Y11418D01*
X11203Y177666D02*
X15140D01*
X13171Y175698D02*
Y179635D01*
X11203Y159950D02*
X15140D01*
X13171Y157981D02*
Y161918D01*
X37975Y159950D02*
X41912D01*
X39943Y157981D02*
Y161918D01*
X37975Y177666D02*
X41912D01*
X39943Y175698D02*
Y179635D01*
X330890Y171250D02*
X336008D01*
X333449Y168691D02*
Y173809D01*
X330890Y187000D02*
X336008D01*
X333449Y184441D02*
Y189559D01*
X330890Y202750D02*
X336008D01*
X333449Y200191D02*
Y205309D01*
X371441Y186996D02*
X376559D01*
X374000Y184437D02*
Y189555D01*
X330890Y155500D02*
X336008D01*
X333449Y152941D02*
Y158059D01*
X330890Y218500D02*
X336008D01*
X333449Y215941D02*
Y221059D01*
X371441Y218500D02*
X376559D01*
X374000Y215941D02*
Y221059D01*
X371441Y202744D02*
X376559D01*
X374000Y200185D02*
Y205303D01*
X371441Y171248D02*
X376559D01*
X374000Y168689D02*
Y173807D01*
X371441Y155500D02*
X376559D01*
X374000Y152941D02*
Y158059D01*
X246143Y142700D02*
X248899D01*
X247521Y141322D02*
Y144078D01*
X236301Y142700D02*
X239057D01*
X237679Y141322D02*
Y144078D01*
X230728Y15500D02*
X234272D01*
X232500Y13728D02*
Y17272D01*
X220728Y15500D02*
X224272D01*
X222500Y13728D02*
Y17272D01*
X429622Y219406D02*
X432378D01*
X431000Y218028D02*
Y220783D01*
X429622Y207594D02*
X432378D01*
X431000Y206217D02*
Y208972D01*
X404422Y227343D02*
X407178D01*
X405800Y225965D02*
Y228720D01*
X404422Y207658D02*
X407178D01*
X405800Y206279D02*
Y209035D01*
X390928Y193987D02*
X394472D01*
X392700Y192215D02*
Y195758D01*
X390928Y229813D02*
X394472D01*
X392700Y228042D02*
Y231585D01*
X245362Y225743D02*
X248905D01*
X247133Y223971D02*
Y227514D01*
X245362Y206058D02*
X248905D01*
X247133Y204286D02*
Y207829D01*
X227128Y225743D02*
X230672D01*
X228900Y223971D02*
Y227514D01*
X227128Y206058D02*
X230672D01*
X228900Y204286D02*
Y207829D01*
X263595Y225743D02*
X267138D01*
X265367Y223971D02*
Y227514D01*
X263595Y206058D02*
X267138D01*
X265367Y204286D02*
Y207829D01*
X281828Y225443D02*
X285372D01*
X283600Y223671D02*
Y227214D01*
X281828Y205757D02*
X285372D01*
X283600Y203986D02*
Y207529D01*
X311818Y165200D02*
X315361D01*
X313590Y163428D02*
Y166972D01*
X298039Y165200D02*
X301582D01*
X299810Y163428D02*
Y166972D01*
X312018Y205700D02*
X315561D01*
X313790Y203928D02*
Y207472D01*
X298239Y205700D02*
X301782D01*
X300010Y203928D02*
Y207472D01*
X311818Y149900D02*
X315361D01*
X313590Y148128D02*
Y151672D01*
X298039Y149900D02*
X301582D01*
X299810Y148128D02*
Y151672D01*
X456416Y165600D02*
X458384D01*
X457400Y164616D02*
Y166584D01*
X321750Y105160D02*
X322931D01*
X322340Y104569D02*
Y105750D01*
X335750Y105160D02*
X336931D01*
X336340Y104569D02*
Y105750D01*
X315009Y111000D02*
X316191D01*
X315600Y110409D02*
Y111591D01*
X383016Y125500D02*
X384984D01*
X384000Y124516D02*
Y126484D01*
X411209Y136300D02*
X412391D01*
X411800Y135709D02*
Y136891D01*
X309409Y132000D02*
X310591D01*
X310000Y131409D02*
Y132591D01*
X400310Y145700D02*
X401490D01*
X400900Y145109D02*
Y146291D01*
X295409Y125000D02*
X296590D01*
X296000Y124409D02*
Y125591D01*
X329410Y132000D02*
X330591D01*
X330000Y131409D02*
Y132591D01*
X326374Y121965D02*
X327555D01*
X326965Y121374D02*
Y122555D01*
X432610Y136400D02*
X433790D01*
X433200Y135809D02*
Y136991D01*
X114909Y110500D02*
X116091D01*
X115500Y109909D02*
Y111091D01*
X123409Y110500D02*
X124591D01*
X124000Y109909D02*
Y111091D01*
X123409Y87500D02*
X124591D01*
X124000Y86910D02*
Y88090D01*
X177909Y72000D02*
X179091D01*
X178500Y71409D02*
Y72591D01*
X188909Y82000D02*
X190091D01*
X189500Y81410D02*
Y82591D01*
X292910Y110500D02*
X294091D01*
X293500Y109909D02*
Y111091D01*
X73909Y94500D02*
X75090D01*
X74500Y93910D02*
Y95091D01*
X178409Y62500D02*
X179591D01*
X179000Y61910D02*
Y63090D01*
X213154Y120756D02*
X214335D01*
X213744Y120165D02*
Y121346D01*
X213154Y130744D02*
X214335D01*
X213744Y130154D02*
Y131335D01*
X160409Y86500D02*
X161591D01*
X161000Y85909D02*
Y87090D01*
X156909Y86500D02*
X158091D01*
X157500Y85909D02*
Y87090D01*
X59909Y109000D02*
X61090D01*
X60500Y108409D02*
Y109591D01*
X113909Y174000D02*
X115091D01*
X114500Y173409D02*
Y174591D01*
X117909Y183500D02*
X119091D01*
X118500Y182909D02*
Y184091D01*
X36909Y193000D02*
X38091D01*
X37500Y192409D02*
Y193591D01*
X85909Y183500D02*
X87090D01*
X86500Y182909D02*
Y184091D01*
X99665Y97256D02*
X100847D01*
X100256Y96665D02*
Y97847D01*
X151409Y66500D02*
X152591D01*
X152000Y65909D02*
Y67090D01*
X180909Y66500D02*
X182091D01*
X181500Y65909D02*
Y67090D01*
X124409Y176000D02*
X125591D01*
X125000Y175409D02*
Y176591D01*
X124409Y165500D02*
X125591D01*
X125000Y164909D02*
Y166091D01*
X165909Y87000D02*
X167091D01*
X166500Y86409D02*
Y87590D01*
X177062Y78000D02*
X178243D01*
X177653Y77409D02*
Y78591D01*
X184409Y78000D02*
X185591D01*
X185000Y77409D02*
Y78591D01*
X289409Y79000D02*
X290591D01*
X290000Y78409D02*
Y79590D01*
X319409Y51500D02*
X320590D01*
X320000Y50909D02*
Y52091D01*
X293409Y84000D02*
X294590D01*
X294000Y83410D02*
Y84591D01*
X109909Y108000D02*
X111091D01*
X110500Y107409D02*
Y108591D01*
X112409Y102000D02*
X113591D01*
X113000Y101409D02*
Y102591D01*
X112409Y105500D02*
X113591D01*
X113000Y104909D02*
Y106091D01*
X107409Y139500D02*
X108591D01*
X108000Y138909D02*
Y140091D01*
X146409Y75000D02*
X147591D01*
X147000Y74410D02*
Y75590D01*
X107366Y123457D02*
X108547D01*
X107957Y122866D02*
Y124047D01*
X109909Y126000D02*
X111091D01*
X110500Y125409D02*
Y126591D01*
X290409Y46000D02*
X291590D01*
X291000Y45409D02*
Y46591D01*
X225909Y125000D02*
X227091D01*
X226500Y124409D02*
Y125591D01*
X302909Y95500D02*
X304090D01*
X303500Y94910D02*
Y96091D01*
X306410Y34500D02*
X307591D01*
X307000Y33909D02*
Y35091D01*
X321410Y16000D02*
X322590D01*
X322000Y15409D02*
Y16590D01*
X53409Y9500D02*
X54590D01*
X54000Y8909D02*
Y10091D01*
X53409Y39000D02*
X54590D01*
X54000Y38409D02*
Y39591D01*
X142909Y187500D02*
X144091D01*
X143500Y186909D02*
Y188091D01*
X157909Y9500D02*
X159091D01*
X158500Y8909D02*
Y10091D01*
X151409Y38500D02*
X152591D01*
X152000Y37909D02*
Y39091D01*
X55910Y125500D02*
X57091D01*
X56500Y124909D02*
Y126091D01*
X53218Y111808D02*
X54399D01*
X53808Y111217D02*
Y112399D01*
X29717Y111808D02*
X30899D01*
X30308Y111217D02*
Y112399D01*
X92307Y120898D02*
X93488D01*
X92898Y120307D02*
Y121488D01*
X55910Y120000D02*
X57091D01*
X56500Y119409D02*
Y120591D01*
X346909Y96000D02*
X348091D01*
X347500Y95410D02*
Y96591D01*
X312910Y56000D02*
X314090D01*
X313500Y55409D02*
Y56590D01*
X316945Y90035D02*
X318126D01*
X317535Y89445D02*
Y90626D01*
X156409Y121000D02*
X157591D01*
X157000Y120409D02*
Y121591D01*
X153909Y140000D02*
X155091D01*
X154500Y139409D02*
Y140591D01*
X166409Y115000D02*
X167591D01*
X167000Y114409D02*
Y115591D01*
X159409Y143500D02*
X160591D01*
X160000Y142909D02*
Y144091D01*
X168909Y122000D02*
X170091D01*
X169500Y121409D02*
Y122591D01*
X173409Y142500D02*
X174591D01*
X174000Y141909D02*
Y143091D01*
X166409Y137500D02*
X167591D01*
X167000Y136909D02*
Y138091D01*
X182091Y108181D02*
X183272D01*
X182681Y107591D02*
Y108772D01*
X141409Y139000D02*
X142591D01*
X142000Y138409D02*
Y139591D01*
X293409Y58000D02*
X294590D01*
X294000Y57410D02*
Y58591D01*
X290409Y51000D02*
X291590D01*
X291000Y50409D02*
Y51591D01*
X361945Y22465D02*
X363126D01*
X362535Y21874D02*
Y23055D01*
X362409Y90000D02*
X363591D01*
X363000Y89410D02*
Y90591D01*
X345910Y42500D02*
X347091D01*
X346500Y41909D02*
Y43091D01*
X345910Y69500D02*
X347091D01*
X346500Y68910D02*
Y70091D01*
X251909Y32000D02*
X253091D01*
X252500Y31409D02*
Y32591D01*
X260910Y35000D02*
X262090D01*
X261500Y34409D02*
Y35591D01*
X297410Y11500D02*
X298590D01*
X298000Y10909D02*
Y12091D01*
X274909Y26500D02*
X276091D01*
X275500Y25909D02*
Y27091D01*
X310409Y34500D02*
X311591D01*
X311000Y33909D02*
Y35091D01*
X342409Y69500D02*
X343590D01*
X343000Y68910D02*
Y70091D01*
X321374Y98965D02*
X322555D01*
X321965Y98374D02*
Y99555D01*
X297909Y51000D02*
X299091D01*
X298500Y50409D02*
Y51591D01*
X289910Y27000D02*
X291090D01*
X290500Y26409D02*
Y27591D01*
X293409Y20500D02*
X294590D01*
X294000Y19909D02*
Y21091D01*
X146409Y116500D02*
X147591D01*
X147000Y115909D02*
Y117091D01*
X151409Y116500D02*
X152591D01*
X152000Y115909D02*
Y117091D01*
X161409Y139500D02*
X162591D01*
X162000Y138909D02*
Y140091D01*
X153909Y147000D02*
X155091D01*
X154500Y146409D02*
Y147591D01*
X163909Y171000D02*
X165091D01*
X164500Y170409D02*
Y171591D01*
X160409Y161000D02*
X161591D01*
X161000Y160409D02*
Y161591D01*
X160409Y175500D02*
X161591D01*
X161000Y174909D02*
Y176091D01*
X138409Y170500D02*
X139591D01*
X139000Y169909D02*
Y171091D01*
X145702Y177707D02*
X146883D01*
X146293Y177117D02*
Y178298D01*
X145528Y170500D02*
X146709D01*
X146119Y169909D02*
Y171091D01*
X158909Y184500D02*
X160091D01*
X159500Y183909D02*
Y185091D01*
X16384Y221474D02*
X17565D01*
X16974Y220884D02*
Y222065D01*
X51410Y104500D02*
X52591D01*
X52000Y103909D02*
Y105091D01*
X55910Y104500D02*
X57091D01*
X56500Y103909D02*
Y105091D01*
X46909Y121000D02*
X48091D01*
X47500Y120409D02*
Y121591D01*
X52909Y121000D02*
X54090D01*
X53500Y120409D02*
Y121591D01*
X79909Y121000D02*
X81090D01*
X80500Y120409D02*
Y121591D01*
X9884Y221474D02*
X11065D01*
X10474Y220884D02*
Y222065D01*
X43909Y116000D02*
X45091D01*
X44500Y115409D02*
Y116591D01*
X52909Y116000D02*
X54090D01*
X53500Y115409D02*
Y116591D01*
X79909Y116000D02*
X81090D01*
X80500Y115409D02*
Y116591D01*
X275410Y72000D02*
X276590D01*
X276000Y71409D02*
Y72591D01*
X202909Y50000D02*
X204091D01*
X203500Y49409D02*
Y50591D01*
X73909Y89500D02*
X75090D01*
X74500Y88910D02*
Y90091D01*
X79909Y104500D02*
X81090D01*
X80500Y103909D02*
Y105091D01*
X241516Y54500D02*
X243484D01*
X242500Y53516D02*
Y55484D01*
X320409Y66000D02*
X321590D01*
X321000Y65409D02*
Y66590D01*
X327909Y76000D02*
X329090D01*
X328500Y75410D02*
Y76591D01*
X338150Y94560D02*
X339331D01*
X338740Y93969D02*
Y95150D01*
X339210Y80800D02*
X340390D01*
X339800Y80209D02*
Y81391D01*
X327410Y80400D02*
X328590D01*
X328000Y79809D02*
Y80990D01*
X329609Y30300D02*
X330790D01*
X330200Y29709D02*
Y30891D01*
X248416Y61500D02*
X250384D01*
X249400Y60516D02*
Y62484D01*
X258610Y137000D02*
X259790D01*
X259200Y136409D02*
Y137591D01*
X442709Y141800D02*
X443890D01*
X443300Y141209D02*
Y142391D01*
X425910Y161600D02*
X427091D01*
X426500Y161009D02*
Y162191D01*
X432109Y158400D02*
X433290D01*
X432700Y157809D02*
Y158991D01*
X405510Y183767D02*
X406691D01*
X406100Y183176D02*
Y184357D01*
X405510Y180700D02*
X406691D01*
X406100Y180109D02*
Y181291D01*
X405510Y186833D02*
X406691D01*
X406100Y186243D02*
Y187424D01*
X405510Y189900D02*
X406691D01*
X406100Y189309D02*
Y190490D01*
X408943Y183767D02*
X410124D01*
X409533Y183176D02*
Y184357D01*
X408943Y180700D02*
X410124D01*
X409533Y180109D02*
Y181291D01*
X408943Y186833D02*
X410124D01*
X409533Y186243D02*
Y187424D01*
X408943Y189900D02*
X410124D01*
X409533Y189309D02*
Y190490D01*
X412376Y183767D02*
X413557D01*
X412967Y183176D02*
Y184357D01*
X412376Y180700D02*
X413557D01*
X412967Y180109D02*
Y181291D01*
X412376Y186833D02*
X413557D01*
X412967Y186243D02*
Y187424D01*
X412376Y189900D02*
X413557D01*
X412967Y189309D02*
Y190490D01*
X415809Y183767D02*
X416991D01*
X416400Y183176D02*
Y184357D01*
X415809Y180700D02*
X416991D01*
X416400Y180109D02*
Y181291D01*
X415809Y186833D02*
X416991D01*
X416400Y186243D02*
Y187424D01*
X415809Y189900D02*
X416991D01*
X416400Y189309D02*
Y190490D01*
X267009Y176400D02*
X268191D01*
X267600Y175809D02*
Y176991D01*
X198109Y189300D02*
X199291D01*
X198700Y188709D02*
Y189891D01*
X69410Y83000D02*
X70591D01*
X70000Y82410D02*
Y83591D01*
X192609Y94100D02*
X193791D01*
X193200Y93510D02*
Y94691D01*
X227410Y149000D02*
X228590D01*
X228000Y148409D02*
Y149591D01*
X174409Y99000D02*
X175591D01*
X175000Y98409D02*
Y99590D01*
X170909Y99000D02*
X172091D01*
X171500Y98409D02*
Y99590D01*
X167409Y99000D02*
X168591D01*
X168000Y98409D02*
Y99590D01*
X163909Y99000D02*
X165091D01*
X164500Y98409D02*
Y99590D01*
X164609Y94000D02*
X165791D01*
X165200Y93410D02*
Y94591D01*
X119709Y96600D02*
X120891D01*
X120300Y96009D02*
Y97190D01*
X105409Y82000D02*
X106591D01*
X106000Y81410D02*
Y82591D01*
X103709Y87700D02*
X104891D01*
X104300Y87110D02*
Y88291D01*
X77310Y76500D02*
X78491D01*
X77900Y75910D02*
Y77091D01*
X266616Y157500D02*
X268584D01*
X267600Y156516D02*
Y158484D01*
X316206Y105303D02*
X317387D01*
X316797Y104713D02*
Y105894D01*
X303410Y113500D02*
X304591D01*
X304000Y112909D02*
Y114091D01*
X289409Y87900D02*
X290591D01*
X290000Y87309D02*
Y88490D01*
X275110Y94500D02*
X276290D01*
X275700Y93910D02*
Y95091D01*
M02*
